<svg width="34" height="34" viewBox="0 0 34 34" fill="none" xmlns="http://www.w3.org/2000/svg">
<g filter="url(#filter0_d_1305_493)">
<path d="M28 15C28 15.9387 26.8468 16.7123 26.6158 17.5777C26.3775 18.4723 26.9807 19.719 26.5278 20.5018C26.0677 21.2975 24.6835 21.3928 24.0382 22.0382C23.3928 22.6835 23.2975 24.0677 22.5018 24.5278C21.719 24.9807 20.4723 24.3775 19.5777 24.6158C18.7123 24.8468 17.9387 26 17 26C16.0613 26 15.2877 24.8468 14.4223 24.6158C13.5277 24.3775 12.281 24.9807 11.4982 24.5278C10.7025 24.0677 10.6072 22.6835 9.96183 22.0382C9.3165 21.3928 7.93233 21.2975 7.47217 20.5018C7.01933 19.719 7.6225 18.4723 7.38417 17.5777C7.15317 16.7123 6 15.9387 6 15C6 14.0613 7.15317 13.2877 7.38417 12.4223C7.6225 11.5277 7.01933 10.281 7.47217 9.49817C7.93233 8.7025 9.3165 8.60717 9.96183 7.96183C10.6072 7.3165 10.7025 5.93233 11.4982 5.47217C12.281 5.01933 13.5277 5.6225 14.4223 5.38417C15.2877 5.15317 16.0613 4 17 4C17.9387 4 18.7123 5.15317 19.5777 5.38417C20.4723 5.6225 21.719 5.01933 22.5018 5.47217C23.2975 5.93233 23.3928 7.3165 24.0382 7.96183C24.6835 8.60717 26.0677 8.7025 26.5278 9.49817C26.9807 10.281 26.3775 11.5277 26.6158 12.4223C26.8468 13.2877 28 14.0613 28 15Z" fill="#0B3948"/>
</g>
<path d="M20.2599 12.3792L16.4496 16.08L14.4743 14.1632C14.0456 13.7468 13.3499 13.7468 12.9212 14.1632C12.4924 14.5796 12.4924 15.2553 12.9212 15.6717L15.6922 18.3631C16.1092 18.7682 16.7866 18.7682 17.2036 18.3631L21.8114 13.8877C22.2401 13.4713 22.2401 12.7956 21.8114 12.3792C21.3826 11.9628 20.6886 11.9628 20.2599 12.3792Z" fill="#FFD470"/>
<defs>
<filter id="filter0_d_1305_493" x="0" y="0" width="34" height="34" filterUnits="userSpaceOnUse" color-interpolation-filters="sRGB">
<feFlood flood-opacity="0" result="BackgroundImageFix"/>
<feColorMatrix in="SourceAlpha" type="matrix" values="0 0 0 0 0 0 0 0 0 0 0 0 0 0 0 0 0 0 127 0" result="hardAlpha"/>
<feOffset dy="2"/>
<feGaussianBlur stdDeviation="3"/>
<feComposite in2="hardAlpha" operator="out"/>
<feColorMatrix type="matrix" values="0 0 0 0 0.898307 0 0 0 0 0.898307 0 0 0 0 0.898307 0 0 0 1 0"/>
<feBlend mode="normal" in2="BackgroundImageFix" result="effect1_dropShadow_1305_493"/>
<feBlend mode="normal" in="SourceGraphic" in2="effect1_dropShadow_1305_493" result="shape"/>
</filter>
</defs>
</svg>
