<svg width="26" height="27" viewBox="0 0 26 27" fill="none" xmlns="http://www.w3.org/2000/svg">
<path d="M17.2423 13.5656L22.7835 8.02438C24.4706 6.33733 24.4706 3.5908 22.7835 1.90374C21.2761 0.398431 18.9294 0.23807 17.2423 1.41622C15.5563 0.23807 13.2097 0.397369 11.7011 1.90373C10.0141 3.59079 10.0141 6.33732 11.7011 8.02437L17.2423 13.5656Z" fill="white"/>
<path d="M0 13.2258H5.47383V26.363H0V13.2258Z" fill="white"/>
<path d="M25.1117 14.4447C24.2115 13.3296 22.579 13.0955 21.4008 13.907L19.3903 15.291C19.9701 16.3228 20.1216 17.5473 19.7971 18.6602C19.1845 20.7614 16.888 22.1699 14.7349 21.7606L11.8537 21.21L12.1616 19.5978L15.0428 20.1484C16.4038 20.4082 17.8332 19.5358 18.2213 18.2005C18.6375 16.7685 17.6962 15.1273 16.2477 14.7644C16.2433 14.7632 11.2699 13.5178 11.2699 13.5178L7.11539 14.6217V25.2684H16.4711L24.745 18.2914C25.8857 17.3313 26.0503 15.6047 25.1117 14.4447Z" fill="white"/>
</svg>
