<svg width="28" height="26" viewBox="0 0 28 26" fill="none" xmlns="http://www.w3.org/2000/svg">
<path fill-rule="evenodd" clip-rule="evenodd" d="M13.1914 0.236606C13.6843 -0.0788687 14.3157 -0.0788687 14.8086 0.236606L27.3084 8.2366C28.0061 8.68315 28.2099 9.61083 27.7631 10.3086C27.3166 11.0064 26.3889 11.21 25.6912 10.7634L24.4999 10.0009V22C24.4999 24.2092 22.709 26 20.4999 26H7.50009C5.29097 26 3.50015 24.2092 3.50015 22V10.0009L2.30874 10.7634C1.61097 11.21 0.683336 11.0064 0.236776 10.3086C-0.209785 9.61083 -0.00615535 8.68315 0.691585 8.2366L13.1914 0.236606ZM9.00007 14.75C9.00007 15.4891 9.29165 16.1602 9.76606 16.6543L13.2836 20.2647C13.6762 20.6677 14.3238 20.6676 14.7162 20.2646L18.1628 16.7258C18.679 16.2258 18.9999 15.5254 18.9999 14.75C18.9999 13.2312 17.7687 12 16.25 12C15.3199 12 14.4977 13.0242 14 13.731C13.5023 13.0242 12.6801 12 11.75 12C10.2313 12 9.00007 13.2312 9.00007 14.75Z" fill="#0B3948"/>
</svg>
