<svg width="26" height="26" viewBox="0 0 26 26" fill="none" xmlns="http://www.w3.org/2000/svg">
<path d="M17.5392 2.16669H8.46084C4.5175 2.16669 2.16667 4.51752 2.16667 8.46085V17.5284C2.16667 21.4825 4.5175 23.8334 8.46084 23.8334H17.5283C21.4717 23.8334 23.8225 21.4825 23.8225 17.5392V8.46085C23.8333 4.51752 21.4825 2.16669 17.5392 2.16669ZM8.26584 19.6625C8.26584 20.1067 7.89751 20.475 7.45334 20.475C7.00917 20.475 6.64084 20.1067 6.64084 19.6625V17.42C6.64084 16.9759 7.00917 16.6075 7.45334 16.6075C7.89751 16.6075 8.26584 16.9759 8.26584 17.42V19.6625ZM13.8125 19.6625C13.8125 20.1067 13.4442 20.475 13 20.475C12.5558 20.475 12.1875 20.1067 12.1875 19.6625V15.1667C12.1875 14.7225 12.5558 14.3542 13 14.3542C13.4442 14.3542 13.8125 14.7225 13.8125 15.1667V19.6625ZM19.3592 19.6625C19.3592 20.1067 18.9908 20.475 18.5467 20.475C18.1025 20.475 17.7342 20.1067 17.7342 19.6625V12.9242C17.7342 12.48 18.1025 12.1117 18.5467 12.1117C18.9908 12.1117 19.3592 12.48 19.3592 12.9242V19.6625ZM19.3592 9.50085C19.3592 9.94502 18.9908 10.3134 18.5467 10.3134C18.1025 10.3134 17.7342 9.94502 17.7342 9.50085V8.45002C14.9717 11.2884 11.5158 13.2925 7.64834 14.2567C7.58334 14.2784 7.51834 14.2784 7.45334 14.2784C7.08501 14.2784 6.76001 14.0292 6.66251 13.6609C6.55417 13.2275 6.81417 12.7834 7.25834 12.675C10.9092 11.765 14.1592 9.84752 16.7375 7.13919H15.3833C14.9392 7.13919 14.5708 6.77085 14.5708 6.32669C14.5708 5.88252 14.9392 5.51419 15.3833 5.51419H18.5575C18.6008 5.51419 18.6333 5.53585 18.6767 5.53585C18.7308 5.54669 18.785 5.54669 18.8392 5.56835C18.8933 5.59002 18.9367 5.62252 18.9908 5.65502C19.0233 5.67669 19.0558 5.68752 19.0883 5.70919C19.0992 5.72002 19.0992 5.73085 19.11 5.73085C19.1533 5.77419 19.1858 5.81752 19.2183 5.86085C19.2508 5.90419 19.2833 5.93669 19.2942 5.98002C19.3158 6.02335 19.3158 6.06669 19.3267 6.12085C19.3375 6.17502 19.3592 6.22919 19.3592 6.29419C19.3592 6.30502 19.37 6.31585 19.37 6.32669V9.50085H19.3592Z" fill="#0B3948"/>
</svg>
