<svg width="18" height="18" viewBox="0 0 18 18" fill="none" xmlns="http://www.w3.org/2000/svg">
<path d="M14.625 6C15.6605 6 16.5 5.16053 16.5 4.125C16.5 3.08947 15.6605 2.25 14.625 2.25C13.5895 2.25 12.75 3.08947 12.75 4.125C12.75 5.16053 13.5895 6 14.625 6Z" fill="#0B3948"/>
<path d="M14.625 6C15.6605 6 16.5 5.16053 16.5 4.125C16.5 3.08947 15.6605 2.25 14.625 2.25C13.5895 2.25 12.75 3.08947 12.75 4.125C12.75 5.16053 13.5895 6 14.625 6Z" fill="#FFD470"/>
<path d="M15.54 6.9825C15.015 7.1475 14.4375 7.1775 13.8375 7.0275C12.8325 6.765 12.015 5.9625 11.7375 4.9575C11.6025 4.47 11.595 3.99 11.6775 3.555C11.775 3.075 11.4375 2.625 10.9575 2.625H5.25C3 2.625 1.5 3.75 1.5 6.375V11.625C1.5 14.25 3 15.375 5.25 15.375H12.75C15 15.375 16.5 14.25 16.5 11.625V7.695C16.5 7.2 16.02 6.825 15.54 6.9825ZM11.64 8.3625L10.755 9.0675C10.26 9.465 9.63 9.66 9 9.66C8.37 9.66 7.7325 9.465 7.245 9.0675L4.8975 7.1925C4.6575 6.9975 4.62 6.6375 4.8075 6.3975C5.0025 6.1575 5.355 6.1125 5.595 6.3075L7.9425 8.1825C8.5125 8.64 9.48 8.64 10.05 8.1825L10.935 7.4775C11.175 7.2825 11.535 7.32 11.7225 7.5675C11.9175 7.8075 11.88 8.1675 11.64 8.3625Z" fill="#FFD470"/>
</svg>
