<svg width="20" height="20" viewBox="0 0 20 20" fill="none" xmlns="http://www.w3.org/2000/svg">
<path d="M14.482 8.91669C14.1476 8.91669 13.8831 8.64447 13.8831 8.3178C13.8831 8.03002 13.5954 7.43113 13.1131 6.91002C12.6387 6.40447 12.1176 6.10891 11.682 6.10891C11.3476 6.10891 11.0831 5.83669 11.0831 5.51002C11.0831 5.18336 11.3554 4.91113 11.682 4.91113C12.4598 4.91113 13.2765 5.33113 13.992 6.08558C14.6609 6.79336 15.0887 7.67224 15.0887 8.31002C15.0887 8.64447 14.8165 8.91669 14.482 8.91669Z" fill="#FFD470"/>
<path d="M17.2898 8.91688C16.9554 8.91688 16.6909 8.64466 16.6909 8.31799C16.6909 5.55688 14.4432 3.31688 11.6898 3.31688C11.3554 3.31688 11.0909 3.04466 11.0909 2.71799C11.0909 2.39133 11.3554 2.11133 11.6821 2.11133C15.1043 2.11133 17.8887 4.89577 17.8887 8.31799C17.8887 8.64466 17.6165 8.91688 17.2898 8.91688Z" fill="#FFD470"/>
<path d="M9.94757 11.608L7.40424 14.1513C7.12424 13.9024 6.85202 13.6458 6.58757 13.3813C5.78646 12.5724 5.06313 11.7247 4.41757 10.838C3.7798 9.95133 3.26646 9.06466 2.89313 8.18577C2.5198 7.29911 2.33313 6.45133 2.33313 5.64244C2.33313 5.11355 2.42646 4.608 2.61313 4.14133C2.7998 3.66688 3.09535 3.23133 3.50757 2.84244C4.00535 2.35244 4.5498 2.11133 5.12535 2.11133C5.34313 2.11133 5.56091 2.15799 5.75535 2.25133C5.95757 2.34466 6.13646 2.48466 6.27646 2.68688L8.08091 5.23022C8.22091 5.42466 8.32202 5.60355 8.39202 5.77466C8.46202 5.93799 8.50091 6.10133 8.50091 6.24911C8.50091 6.43577 8.44646 6.62244 8.33757 6.80133C8.23646 6.98022 8.08868 7.16688 7.90202 7.35355L7.31091 7.96799C7.22535 8.05355 7.18646 8.15466 7.18646 8.27911C7.18646 8.34133 7.19424 8.39577 7.2098 8.45799C7.23313 8.52022 7.25646 8.56688 7.27202 8.61355C7.41202 8.87022 7.65313 9.20466 7.99535 9.60911C8.34535 10.0136 8.71868 10.4258 9.12313 10.838C9.40313 11.1102 9.67535 11.3747 9.94757 11.608Z" fill="#FFD470"/>
<path d="M17.8654 14.8123C17.8654 15.03 17.8265 15.2556 17.7487 15.4734C17.7254 15.5356 17.702 15.5978 17.6709 15.66C17.5387 15.94 17.3676 16.2045 17.142 16.4534C16.7609 16.8734 16.3409 17.1767 15.8665 17.3711C15.8587 17.3711 15.8509 17.3789 15.8432 17.3789C15.3843 17.5656 14.8865 17.6667 14.3498 17.6667C13.5565 17.6667 12.7087 17.48 11.8143 17.0989C10.9198 16.7178 10.0254 16.2045 9.13871 15.5589C8.83537 15.3334 8.53204 15.1078 8.24426 14.8667L10.7876 12.3234C11.0054 12.4867 11.1998 12.6111 11.3632 12.6967C11.402 12.7123 11.4487 12.7356 11.5032 12.7589C11.5654 12.7823 11.6276 12.79 11.6976 12.79C11.8298 12.79 11.9309 12.7434 12.0165 12.6578L12.6076 12.0745C12.802 11.88 12.9887 11.7323 13.1676 11.6389C13.3465 11.53 13.5254 11.4756 13.7198 11.4756C13.8676 11.4756 14.0232 11.5067 14.1943 11.5767C14.3654 11.6467 14.5443 11.7478 14.7387 11.88L17.3132 13.7078C17.5154 13.8478 17.6554 14.0111 17.7409 14.2056C17.8187 14.4 17.8654 14.5945 17.8654 14.8123Z" fill="#FFD470"/>
</svg>
