<svg width="21" height="21" viewBox="0 0 21 21" fill="none" xmlns="http://www.w3.org/2000/svg">
<path d="M15.4175 9.40566C15.0413 9.40566 14.7438 9.09941 14.7438 8.73191C14.7438 8.40816 14.42 7.73441 13.8775 7.14816C13.3437 6.57941 12.7575 6.24691 12.2675 6.24691C11.8913 6.24691 11.5938 5.94066 11.5938 5.57316C11.5938 5.20566 11.9 4.89941 12.2675 4.89941C13.1425 4.89941 14.0613 5.37191 14.8663 6.22066C15.6188 7.01691 16.1 8.00566 16.1 8.72316C16.1 9.09941 15.7938 9.40566 15.4175 9.40566Z" fill="white"/>
<path d="M18.5763 9.40625C18.2 9.40625 17.9025 9.1 17.9025 8.7325C17.9025 5.62625 15.3738 3.10625 12.2763 3.10625C11.9 3.10625 11.6025 2.8 11.6025 2.4325C11.6025 2.065 11.9 1.75 12.2675 1.75C16.1175 1.75 19.25 4.8825 19.25 8.7325C19.25 9.1 18.9438 9.40625 18.5763 9.40625Z" fill="white"/>
<path d="M10.3162 12.4337L7.455 15.295C7.14 15.015 6.83375 14.7262 6.53625 14.4287C5.635 13.5187 4.82125 12.565 4.095 11.5675C3.3775 10.57 2.8 9.5725 2.38 8.58375C1.96 7.58625 1.75 6.6325 1.75 5.7225C1.75 5.1275 1.855 4.55875 2.065 4.03375C2.275 3.5 2.6075 3.01 3.07125 2.5725C3.63125 2.02125 4.24375 1.75 4.89125 1.75C5.13625 1.75 5.38125 1.8025 5.6 1.9075C5.8275 2.0125 6.02875 2.17 6.18625 2.3975L8.21625 5.25875C8.37375 5.4775 8.4875 5.67875 8.56625 5.87125C8.645 6.055 8.68875 6.23875 8.68875 6.405C8.68875 6.615 8.6275 6.825 8.505 7.02625C8.39125 7.2275 8.225 7.4375 8.015 7.6475L7.35 8.33875C7.25375 8.435 7.21 8.54875 7.21 8.68875C7.21 8.75875 7.21875 8.82 7.23625 8.89C7.2625 8.96 7.28875 9.0125 7.30625 9.065C7.46375 9.35375 7.735 9.73 8.12 10.185C8.51375 10.64 8.93375 11.1037 9.38875 11.5675C9.70375 11.8737 10.01 12.1712 10.3162 12.4337Z" fill="white"/>
<path d="M19.2237 16.0389C19.2237 16.2839 19.18 16.5377 19.0925 16.7827C19.0662 16.8527 19.04 16.9227 19.005 16.9927C18.8562 17.3077 18.6637 17.6052 18.41 17.8852C17.9812 18.3577 17.5087 18.6989 16.975 18.9177C16.9662 18.9177 16.9575 18.9264 16.9487 18.9264C16.4325 19.1364 15.8725 19.2502 15.2687 19.2502C14.3762 19.2502 13.4225 19.0402 12.4162 18.6114C11.41 18.1827 10.4037 17.6052 9.40624 16.8789C9.06499 16.6252 8.72374 16.3714 8.39999 16.1002L11.2612 13.2389C11.5062 13.4227 11.725 13.5627 11.9087 13.6589C11.9525 13.6764 12.005 13.7027 12.0662 13.7289C12.1362 13.7552 12.2062 13.7639 12.285 13.7639C12.4337 13.7639 12.5475 13.7114 12.6437 13.6152L13.3087 12.9589C13.5275 12.7402 13.7375 12.5739 13.9387 12.4689C14.14 12.3464 14.3412 12.2852 14.56 12.2852C14.7262 12.2852 14.9012 12.3202 15.0937 12.3989C15.2862 12.4777 15.4875 12.5914 15.7062 12.7402L18.6025 14.7964C18.83 14.9539 18.9875 15.1377 19.0837 15.3564C19.1712 15.5752 19.2237 15.7939 19.2237 16.0389Z" fill="white"/>
</svg>
