<svg width="24" height="24" viewBox="0 0 24 24" fill="none" xmlns="http://www.w3.org/2000/svg">
<path d="M5.46005 19.49V16.57C5.46005 15.6 6.22005 14.73 7.30005 14.73C8.27005 14.73 9.14005 15.49 9.14005 16.57V19.38C9.14005 21.33 7.52005 22.9501 5.57005 22.9501C3.62005 22.9501 2.00005 21.32 2.00005 19.38V13.22C1.89005 7.60005 6.33005 3.05005 11.95 3.05005C17.57 3.05005 22 7.60005 22 13.11V19.2701C22 21.2201 20.38 22.84 18.43 22.84C16.48 22.84 14.86 21.2201 14.86 19.2701V16.46C14.86 15.49 15.62 14.62 16.7 14.62C17.67 14.62 18.54 15.38 18.54 16.46V19.49" stroke="#0B3948" stroke-width="2" stroke-linecap="round" stroke-linejoin="round"/>
</svg>
