<svg width="69" height="61" viewBox="0 0 69 61" fill="none" xmlns="http://www.w3.org/2000/svg">
<path d="M50.1005 0C44.1016 0 38.4761 2.76068 34.5 7.52137C30.5326 2.76923 24.8983 0 18.8908 0C9.49744 0 0 6.88889 0 20.0598C0 22.6923 0.642426 25.3675 1.73629 28.0171C8.36022 44.0171 31.748 59.2308 32.9026 59.9744L34.5 61L36.0974 59.9744C37.252 59.2308 60.6398 44.0171 67.2637 28.0171C68.3576 25.3675 69 22.6923 69 20.0598C69 6.88889 59.4938 0 50.1005 0ZM50.2047 34.0427H38.9362V45.1282H30.0464V34.0427H18.7779V25.2906H30.0464V14.1966H38.9362V25.2906H50.2047V34.0427Z" fill="#A9F7FF"/>
</svg>
