<svg width="43" height="39" viewBox="0 0 43 39" fill="none" xmlns="http://www.w3.org/2000/svg">
<path d="M31.2221 0C27.4836 0 23.9779 1.76503 21.5 4.80874C19.0276 1.77049 15.5163 0 11.7725 0C5.9187 0 0 4.40437 0 12.8251C0 14.5082 0.400352 16.2186 1.08203 17.9126C5.20999 28.1421 19.785 37.8689 20.5045 38.3443L21.5 39L22.4955 38.3443C23.215 37.8689 37.79 28.1421 41.918 17.9126C42.5996 16.2186 43 14.5082 43 12.8251C43 4.40437 37.0759 0 31.2221 0ZM31.287 21.765H24.2646V28.8525H18.7246V21.765H11.7022V16.1694H18.7246V9.0765H24.2646V16.1694H31.287V21.765Z" fill="#A9F7FF"/>
</svg>
