<svg width="17" height="17" viewBox="0 0 17 17" fill="none" xmlns="http://www.w3.org/2000/svg">
<path d="M11.1568 7.4075C11.6865 7.44888 12.2162 7.49027 12.7541 7.55648C14.1694 7.74684 15.5847 8.00341 17 8.50828C15.5847 9.01315 14.1694 9.26972 12.7541 9.46008C12.2244 9.52629 11.6947 9.56767 11.1568 9.60906C11.5044 10.0146 11.852 10.4202 12.1831 10.8423C13.0521 11.9761 13.8715 13.1597 14.517 14.517C13.1597 13.8715 11.9761 13.0521 10.8423 12.1831C10.4202 11.852 10.0146 11.5044 9.60906 11.1568C9.56767 11.6865 9.52629 12.2162 9.46008 12.7541C9.26972 14.1694 9.01314 15.5847 8.50828 17C8.00341 15.5847 7.74684 14.1694 7.55648 12.7541C7.49026 12.2244 7.44888 11.6947 7.4075 11.165C7.00195 11.5127 6.5964 11.8603 6.17429 12.1831C5.04041 13.0521 3.85686 13.8715 2.49124 14.5088C3.13681 13.1514 3.94791 11.9596 4.81694 10.8257C5.148 10.4036 5.48734 9.99806 5.83496 9.60078C5.30526 9.5594 4.77556 9.51802 4.24586 9.45181C2.83057 9.26145 1.41529 9.00487 0 8.5C1.41529 7.99513 2.83057 7.73028 4.24586 7.5482C4.77556 7.48199 5.30526 7.44061 5.83496 7.39922C5.48734 6.99367 5.13973 6.5964 4.81694 6.1743C3.94791 5.04041 3.12853 3.85687 2.49124 2.49124C3.84859 3.13681 5.04041 3.94791 6.17429 4.81695C6.5964 5.14801 7.00195 5.48734 7.39922 5.83496C7.4406 5.30526 7.48199 4.77556 7.5482 4.24587C7.73856 2.83058 7.99513 1.41529 8.5 0C9.00487 1.41529 9.26972 2.83058 9.4518 4.24587C9.51801 4.77556 9.5594 5.30526 9.60078 5.83496C10.0063 5.48734 10.4119 5.13973 10.834 4.81695C11.9679 3.94791 13.1514 3.12853 14.5088 2.48296C13.8632 3.84031 13.0438 5.02386 12.1748 6.15774C11.8437 6.5964 11.5044 7.00195 11.1568 7.4075Z" fill="#1140C0"/>
</svg>
