<svg width="24" height="24" viewBox="0 0 24 24" fill="none" xmlns="http://www.w3.org/2000/svg">
<g clip-path="url(#clip0_1333_500)">
<path d="M10 16.95H6.21C2.84 16.95 2 16.11 2 12.74V6.74003C2 3.37003 2.84 2.53003 6.21 2.53003H16.74C20.11 2.53003 20.95 3.37003 20.95 6.74003" stroke="#0B3948" stroke-width="2" stroke-linecap="round" stroke-linejoin="round"/>
<path d="M10 21.4699V16.95" stroke="#0B3948" stroke-width="2" stroke-linecap="round" stroke-linejoin="round"/>
<path d="M2 12.95H10" stroke="#0B3948" stroke-width="2" stroke-linecap="round" stroke-linejoin="round"/>
<path d="M6.74023 21.47H10.0002" stroke="#0B3948" stroke-width="2" stroke-linecap="round" stroke-linejoin="round"/>
<path d="M22.0003 12.8001V18.5101C22.0003 20.8801 21.4103 21.4701 19.0403 21.4701H15.4903C13.1203 21.4701 12.5303 20.8801 12.5303 18.5101V12.8001C12.5303 10.4301 13.1203 9.84009 15.4903 9.84009H19.0403C21.4103 9.84009 22.0003 10.4301 22.0003 12.8001Z" stroke="#0B3948" stroke-width="2" stroke-linecap="round" stroke-linejoin="round"/>
<path d="M17.2445 18.25H17.2535" stroke="#0B3948" stroke-width="2" stroke-linecap="round" stroke-linejoin="round"/>
</g>
<defs>
<clipPath id="clip0_1333_500">
<rect width="24" height="24" fill="white"/>
</clipPath>
</defs>
</svg>
