<svg width="20" height="20" viewBox="0 0 20 20" fill="none" xmlns="http://www.w3.org/2000/svg">
<path d="M10.1001 10.65C10.0417 10.6417 9.96672 10.6417 9.90006 10.65C8.43339 10.6 7.26672 9.39998 7.26672 7.92498C7.26672 6.41665 8.48339 5.19165 10.0001 5.19165C11.5084 5.19165 12.7334 6.41665 12.7334 7.92498C12.7251 9.39998 11.5667 10.6 10.1001 10.65Z" stroke="#06083C" stroke-width="1.5" stroke-linecap="round" stroke-linejoin="round"/>
<path d="M15.6171 16.1498C14.1338 17.5081 12.1671 18.3331 10.0005 18.3331C7.83379 18.3331 5.86712 17.5081 4.38379 16.1498C4.46712 15.3665 4.96712 14.5998 5.85879 13.9998C8.14212 12.4831 11.8755 12.4831 14.1421 13.9998C15.0338 14.5998 15.5338 15.3665 15.6171 16.1498Z" stroke="#06083C" stroke-width="1.5" stroke-linecap="round" stroke-linejoin="round"/>
<path d="M10.0003 18.3332C14.6027 18.3332 18.3337 14.6022 18.3337 9.99984C18.3337 5.39746 14.6027 1.6665 10.0003 1.6665C5.39795 1.6665 1.66699 5.39746 1.66699 9.99984C1.66699 14.6022 5.39795 18.3332 10.0003 18.3332Z" stroke="#06083C" stroke-width="1.5" stroke-linecap="round" stroke-linejoin="round"/>
</svg>
