<svg width="22" height="22" viewBox="0 0 22 22" fill="none" xmlns="http://www.w3.org/2000/svg">
<path d="M8.25016 1.83325C5.8485 1.83325 3.896 3.78575 3.896 6.18742C3.896 8.54325 5.7385 10.4499 8.14016 10.5324C8.2135 10.5233 8.28683 10.5233 8.34183 10.5324C8.36016 10.5324 8.36933 10.5324 8.38766 10.5324C8.39683 10.5324 8.39683 10.5324 8.406 10.5324C10.7527 10.4499 12.5952 8.54325 12.6043 6.18742C12.6043 3.78575 10.6518 1.83325 8.25016 1.83325Z" fill="#0B3948"/>
<path d="M12.9069 12.9709C10.3494 11.2659 6.17854 11.2659 3.60271 12.9709C2.43854 13.7501 1.79688 14.8042 1.79688 15.9317C1.79688 17.0592 2.43854 18.1042 3.59354 18.8742C4.87688 19.7359 6.56354 20.1667 8.25021 20.1667C9.93688 20.1667 11.6235 19.7359 12.9069 18.8742C14.0619 18.0951 14.7035 17.0501 14.7035 15.9134C14.6944 14.7859 14.0619 13.7409 12.9069 12.9709Z" fill="#0B3948"/>
<path d="M18.3241 6.72834C18.4707 8.50668 17.2057 10.065 15.4549 10.2758C15.4457 10.2758 15.4457 10.2758 15.4366 10.2758H15.4091C15.3541 10.2758 15.2991 10.2758 15.2532 10.2942C14.3641 10.34 13.5482 10.0558 12.9341 9.53334C13.8782 8.69001 14.4191 7.42501 14.3091 6.05001C14.2449 5.30751 13.9882 4.62918 13.6032 4.05168C13.9516 3.87751 14.3549 3.76751 14.7674 3.73084C16.5641 3.57501 18.1682 4.91334 18.3241 6.72834Z" fill="#0B3948"/>
<path d="M20.1576 15.2075C20.0842 16.0967 19.5159 16.8667 18.5626 17.3892C17.6459 17.8934 16.4909 18.1317 15.3451 18.1042C16.0051 17.5084 16.3901 16.7659 16.4634 15.9775C16.5551 14.8409 16.0142 13.75 14.9326 12.8792C14.3184 12.3934 13.6034 12.0084 12.8242 11.7242C14.8501 11.1375 17.3984 11.5317 18.9659 12.7967C19.8092 13.475 20.2401 14.3275 20.1576 15.2075Z" fill="#0B3948"/>
</svg>
