<svg width="80" height="90" viewBox="0 0 80 90" fill="none" xmlns="http://www.w3.org/2000/svg">
<mask id="mask0_1754_995" style="mask-type:luminance" maskUnits="userSpaceOnUse" x="1" y="0" width="78" height="90">
<path d="M78.3911 0H1.60742V90H78.3911V0Z" fill="white"/>
</mask>
<g mask="url(#mask0_1754_995)">
<path d="M45.7793 53.2979C45.9282 44.3741 51.8599 35.8437 60.0405 32.7896C63.0377 31.6708 66.3405 31.1965 68.9391 29.2996C69.4542 34.304 69.8822 39.7307 67.3003 44.0103C66.035 46.1081 64.143 47.7316 62.154 49.1186C57.7188 52.2111 52.6258 54.3071 45.7793 53.2979Z" fill="#C6EDE6"/>
<path d="M49.2377 54.2209C48.0837 54.2209 46.9038 54.1303 45.687 53.9507C45.3657 53.9032 45.1293 53.6186 45.1349 53.2863C45.2898 44.0232 51.3282 35.3397 59.8195 32.1695C60.7716 31.8138 61.759 31.5205 62.7139 31.2365C64.8476 30.6025 66.8631 30.004 68.565 28.7617C68.7516 28.6251 68.994 28.601 69.2029 28.6975C69.4118 28.7938 69.5548 28.9964 69.5789 29.2301C70.0334 33.6493 70.6558 39.7014 67.8469 44.3573C66.7183 46.2287 65.0237 47.9146 62.5151 49.664C58.0799 52.7565 53.8689 54.2209 49.2377 54.2209ZM46.4413 52.7217C51.9528 53.4073 56.7103 52.1152 61.791 48.5728C64.1456 46.9315 65.7219 45.3711 66.7525 43.6633C68.972 39.9835 68.8688 35.3286 68.4043 30.4337C66.7386 31.4162 64.8796 31.9686 63.0728 32.5053C62.138 32.7829 61.172 33.0703 60.2607 33.41C52.5656 36.2827 46.833 44.3402 46.4413 52.7217Z" fill="#333333"/>
<path d="M43.8016 0.661669C34.1144 0.5539 32.4564 8.50217 32.4948 12.0177C32.5297 15.2054 33.7172 23.6168 44.0524 23.7319C53.9666 23.8422 56.4261 15.6706 55.2092 9.96489C54.5225 6.74581 52.5129 0.758623 43.8016 0.661669Z" fill="#FFEAAF"/>
<path d="M44.2456 24.393C44.1785 24.393 44.1123 24.3927 44.0447 24.3917C32.8526 24.2675 31.8816 14.8949 31.8502 12.0249C31.8363 10.752 32.0326 6.34991 35.1352 3.1685C37.1855 1.06582 40.0353 0 43.6066 0C43.6736 0 43.7402 0.000348761 43.8082 0.00139504C50.4166 0.0749837 54.464 3.3795 55.8377 9.82357C56.4711 12.794 56.2315 17.1235 53.6576 20.3649C51.5639 23.0022 48.3118 24.393 44.2456 24.393ZM43.6081 1.32041C40.39 1.32041 37.8465 2.25614 36.0458 4.10213C33.8633 6.34049 33.1127 9.65511 33.1386 12.0103C33.1741 15.2998 34.309 22.9628 44.059 23.0713C47.8023 23.1096 50.7869 21.889 52.6591 19.5317C54.9434 16.654 55.1489 12.7755 54.5794 10.1057C53.3339 4.26186 49.8059 1.38842 43.7942 1.32181C43.7321 1.32076 43.6697 1.32041 43.6081 1.32041Z" fill="#333333"/>
<path d="M77.8246 42.8602C77.6743 61.6309 71.7317 81.4325 54.9469 86.9903C42.8676 90.9899 26.1162 90.538 16.361 81.9413C6.60575 73.3447 2.17578 59.4612 2.17578 42.8602C2.17578 42.9414 77.8246 42.8602 77.8246 42.8602Z" fill="white"/>
<path d="M39.4317 89.9998C30.9212 89.9998 22.1906 87.8461 15.9903 82.3828C6.58076 74.0906 1.60742 60.4241 1.60742 42.8605C1.60742 42.5166 1.91398 42.2431 2.24042 42.2826C3.64593 42.3429 52.2253 42.307 77.823 42.2787C77.974 42.2787 78.1198 42.3404 78.2262 42.4506C78.3328 42.5609 78.3918 42.7101 78.3908 42.8653C78.3078 53.2594 76.491 62.6855 73.1374 70.1242C69.1102 79.058 63.048 84.9186 55.1196 87.5441C50.5048 89.072 45.0157 89.9998 39.4317 89.9998ZM2.74404 43.4474C2.85285 60.3784 7.68354 73.5284 16.7301 81.5004C26.666 90.2564 43.4145 90.1981 54.7716 86.4368C74.4528 79.9201 77.0812 54.6569 77.2499 43.4429C73.9524 43.4464 56.995 43.4635 40.0294 43.4728C30.5779 43.4778 21.1245 43.4801 14.0285 43.4766C10.4803 43.4746 7.52103 43.4715 5.44729 43.4655C4.092 43.4617 3.26229 43.4597 2.74404 43.4474Z" fill="#333333"/>
<path d="M7.0947 14.9721C6.69816 19.1893 6.38706 23.7836 8.66553 27.3182C10.2287 29.7431 12.8028 31.2871 15.4274 32.3878C18.0518 33.4885 23.394 34.6747 25.9355 35.9634C24.3783 31.1675 23.5392 25.5145 20.3295 21.2404C15.3596 14.6222 10.1136 15.2169 7.0947 14.9721Z" fill="#C6EDE6"/>
<path d="M25.9352 36.6228C25.8379 36.6228 25.7402 36.6004 25.6496 36.5544C24.2674 35.8538 21.9823 35.1712 19.7729 34.5111C18.0169 33.9868 16.3585 33.4916 15.1829 32.9985C11.8372 31.5951 9.52946 29.8558 8.12779 27.6817C5.80992 24.0859 6.01254 19.5875 6.45304 14.9082C6.48687 14.5497 6.79657 14.2899 7.14463 14.3133C7.48537 14.3407 7.85541 14.3575 8.2502 14.3749C11.4393 14.5194 16.2592 14.7376 20.8394 20.8365C23.2989 24.111 24.3881 28.0942 25.442 31.9455C25.8062 33.2769 26.1497 34.5334 26.5459 35.7537C26.6279 36.0066 26.554 36.2849 26.3582 36.4599C26.2383 36.567 26.0876 36.6228 25.9352 36.6228ZM7.67684 15.6703C7.30401 19.8743 7.21613 23.8731 9.20198 26.9538C10.4568 28.8995 12.5725 30.4773 15.6705 31.7768C16.7837 32.2434 18.4106 32.7295 20.1332 33.244C21.8052 33.7434 23.5194 34.2554 24.8994 34.7921C24.6566 33.9667 24.4268 33.1258 24.2018 32.3031C23.1814 28.5723 22.1257 24.715 19.8189 21.6428C15.6039 16.0305 11.3207 15.8367 8.19336 15.695C8.01653 15.6874 7.84425 15.6786 7.67684 15.6703Z" fill="#333333"/>
<path d="M22.6632 31.9683C22.6007 31.9683 22.5383 31.9404 22.4958 31.8863C18.5736 26.8876 14.1956 22.2156 9.48177 17.9991C9.39249 17.9192 9.38307 17.7801 9.46119 17.6883C9.53896 17.5966 9.67498 17.5882 9.76427 17.6673C14.4962 21.9009 18.8924 26.5922 22.8302 31.6105C22.9046 31.705 22.8895 31.8438 22.7975 31.9198C22.7577 31.9522 22.7107 31.9683 22.6632 31.9683Z" fill="#333333"/>
<path d="M57.7325 42.7833C57.6794 42.7833 57.6268 42.7635 57.5853 42.7237C57.4989 42.6403 57.4946 42.5012 57.5759 42.4126C60.5509 39.1771 63.6374 35.9665 66.7497 32.8698C66.8351 32.7847 66.9711 32.7871 67.0535 32.874C67.1362 32.9612 67.134 33.1007 67.0493 33.185C63.9408 36.2776 60.8591 39.4834 57.8888 42.7142C57.8465 42.7604 57.7893 42.7833 57.7325 42.7833Z" fill="#333333"/>
<path d="M44.6546 6.79209C44.5382 6.79209 44.4429 6.69687 44.4398 6.57725L44.3868 4.23531C44.3844 4.1136 44.4778 4.01315 44.5963 4.01001C44.7292 4.01629 44.813 4.10314 44.8161 4.22485L44.8692 6.56679C44.8715 6.6885 44.7781 6.78895 44.6595 6.79209H44.6546Z" fill="#333333"/>
<path d="M49.0956 9.64462C49.0237 9.64462 48.9533 9.60766 48.9128 9.54034C48.8507 9.43676 48.8818 9.30144 48.9829 9.23727C49.663 8.80724 50.3752 8.41488 51.1006 8.07205C51.2066 8.02183 51.3356 8.06891 51.3852 8.18018C51.4347 8.29038 51.3876 8.42081 51.2798 8.47208C50.5705 8.80724 49.8737 9.19122 49.2086 9.61219C49.1734 9.63416 49.134 9.64462 49.0956 9.64462Z" fill="#333333"/>
<path d="M51.1907 16.2161C51.1568 16.2161 51.1223 16.2081 51.0905 16.1907L48.636 14.8618C48.5314 14.805 48.4909 14.6718 48.5464 14.5644C48.6022 14.4566 48.7329 14.4161 48.8365 14.4723L51.2911 15.8014C51.3958 15.8579 51.4361 15.9915 51.3807 16.0989C51.3423 16.1739 51.2677 16.2161 51.1907 16.2161Z" fill="#333333"/>
<path d="M45.7885 20.6321C45.6937 20.6321 45.6068 20.5675 45.5813 20.4692C45.3693 19.6617 45.2207 18.8317 45.1398 18.0017C45.1276 17.881 45.2141 17.7729 45.3316 17.7611C45.4461 17.7446 45.5545 17.837 45.5663 17.958C45.6452 18.7641 45.7892 19.5707 45.9953 20.3551C46.0263 20.4726 45.9584 20.5934 45.844 20.6247C45.8254 20.6299 45.807 20.6321 45.7885 20.6321Z" fill="#333333"/>
<path d="M39.1269 19.4317C39.0941 19.4317 39.061 19.424 39.0296 19.408C38.9239 19.3528 38.8817 19.2203 38.9354 19.1119C39.377 18.2201 39.9077 17.3705 40.5119 16.5868C40.5865 16.492 40.7211 16.4759 40.8135 16.5509C40.9063 16.6266 40.9219 16.765 40.8487 16.8603C40.2618 17.6206 39.747 18.4454 39.3184 19.3113C39.2803 19.3877 39.2046 19.4317 39.1269 19.4317Z" fill="#333333"/>
<path d="M36.4036 13.1976C36.2993 13.1976 36.208 13.1195 36.1919 13.0103C36.1741 12.89 36.2555 12.7777 36.3722 12.7603L38.8202 12.3847C38.9357 12.3689 39.0466 12.4491 39.0644 12.5695C39.0818 12.6898 39.0016 12.8014 38.884 12.8196L36.436 13.1951C36.4249 13.1969 36.4148 13.1976 36.4036 13.1976Z" fill="#333333"/>
<path d="M39.5052 8.49195C39.4469 8.49195 39.3891 8.46789 39.3465 8.42046C38.7139 7.71142 38.0945 6.98112 37.5061 6.25012C37.4307 6.15629 37.4436 6.01749 37.535 5.94042C37.6265 5.86264 37.7618 5.87555 37.8374 5.97006C38.4209 6.69548 39.0354 7.42021 39.6635 8.12331C39.7437 8.21294 39.7371 8.35245 39.6499 8.43441C39.6085 8.47312 39.5572 8.49195 39.5052 8.49195Z" fill="#333333"/>
<path d="M74.264 47.5058L5.65778 47.4873C5.55315 47.4873 5.46875 47.4004 5.46875 47.2934C5.46875 47.1863 5.5535 47.0995 5.65778 47.0995L74.264 47.1179C74.3687 47.1179 74.453 47.2048 74.453 47.3119C74.453 47.419 74.3683 47.5058 74.264 47.5058Z" fill="#333333"/>
<path d="M10.8471 51.3893C9.23579 51.3893 7.61754 51.2941 6.01881 51.105C5.91523 51.0925 5.84095 50.9966 5.85281 50.8899C5.86466 50.7835 5.96022 50.7089 6.06276 50.7194C8.07755 50.9575 10.1244 51.0457 12.1483 50.9799C12.2432 50.9851 12.3401 51.0608 12.3433 51.1678C12.3468 51.2749 12.2648 51.3645 12.1601 51.3677C11.7235 51.3816 11.2851 51.3893 10.8471 51.3893Z" fill="#333333"/>
</g>
</svg>
