<svg width="66" height="80" viewBox="0 0 66 80" fill="none" xmlns="http://www.w3.org/2000/svg">
<g clip-path="url(#clip0_1754_1106)">
<mask id="mask0_1754_1106" style="mask-type:luminance" maskUnits="userSpaceOnUse" x="0" y="0" width="66" height="80">
<path d="M65.8644 0H0.134766V80H65.8644V0Z" fill="white"/>
</mask>
<g mask="url(#mask0_1754_1106)">
<path d="M46.5053 23.8158C46.4224 23.8158 46.3383 23.793 46.2631 23.7455C46.0507 23.6117 45.9872 23.3309 46.1213 23.1182C47.3453 21.1779 47.0149 18.4058 45.3685 16.8076C45.1882 16.6325 45.1839 16.3449 45.359 16.1646C45.5341 15.9843 45.822 15.9803 46.002 16.155C47.9451 18.0412 48.3351 21.3129 46.8903 23.6034C46.8037 23.7406 46.6564 23.8158 46.5053 23.8158Z" fill="#333333"/>
<path d="M38.1752 37.6581C37.9693 37.6581 37.7723 37.5709 37.6339 37.417C35.315 34.8364 32.7301 32.4476 29.9519 30.317C29.6631 30.0954 29.37 29.874 29.0753 29.6512C26.2194 27.4916 23.2662 25.259 22.3038 21.8631C21.5184 19.0914 22.3809 16.0589 24.5013 14.1373C26.6556 12.1852 29.9374 11.5799 32.6685 12.6313C34.3638 13.2838 36.0847 14.6802 37.0927 16.3829C37.5516 15.1089 38.3186 13.8639 39.4883 13.1285C41.4355 11.9038 43.5368 11.5453 45.5641 12.0915C47.6682 12.6584 49.6101 14.2209 50.6316 16.1693C52.08 18.9308 51.777 22.0508 49.7053 25.7072C48.493 27.847 46.6016 29.4721 44.7722 31.0441C44.2461 31.4963 43.7017 31.9639 43.1888 32.4318C41.5492 33.9277 40.0598 35.5861 38.7627 37.3606C38.6333 37.5376 38.4311 37.6467 38.2119 37.6578C38.1996 37.6584 38.1872 37.6581 38.1752 37.6581ZM29.8897 13.5825C28.2773 13.5825 26.6466 14.1561 25.4784 15.2153C23.7908 16.7448 23.0775 19.2566 23.7039 21.4661C24.533 24.3923 27.2884 26.4757 29.9532 28.4903C30.2506 28.715 30.5462 28.9388 30.8378 29.1623C33.4514 31.1668 35.8979 33.3942 38.121 35.792C39.3453 34.2058 40.7173 32.7167 42.208 31.3564C42.7369 30.874 43.2893 30.399 43.8238 29.94C45.6384 28.3809 47.3522 26.9084 48.4391 24.9896C50.2728 21.7534 50.5598 19.1654 49.3428 16.8446C48.6847 15.5901 47.2474 14.0517 45.1853 13.4959C43.5365 13.0517 41.8803 13.3421 40.2626 14.3596C38.5661 15.4267 38.0048 18.1306 37.9857 19.3673C37.986 19.4024 37.9857 19.4376 37.9853 19.473C37.9792 19.8707 37.6549 20.1894 37.2579 20.1894H37.2548C36.8559 20.1875 36.5332 19.8654 36.5304 19.4665C36.5304 19.4314 36.5304 19.3956 36.5304 19.3596C36.5039 17.1424 34.2621 14.8038 32.1451 13.9888C31.4327 13.7144 30.6637 13.5825 29.8897 13.5825Z" fill="#333333"/>
<path d="M10.4097 54.7103C11.8594 54.9455 13.3334 55.1813 14.7902 54.9957C16.2472 54.8105 17.7111 54.1416 18.5187 52.9151C16.0382 54.2951 12.9666 53.5886 10.2266 52.8479C10.3385 53.2952 10.4507 53.7421 10.4097 54.7103Z" fill="#E8E1D6"/>
<path d="M13.6809 55.5173C12.5463 55.5173 11.4277 55.3358 10.3365 55.1588C10.109 55.1218 9.9454 54.9209 9.95495 54.6906C9.99317 53.7884 9.89207 53.3849 9.78511 52.958C9.74596 52.8014 9.79251 52.6359 9.90779 52.523C10.0227 52.4099 10.1889 52.3664 10.3448 52.4087C13.1196 53.1589 16.0193 53.7853 18.2972 52.5178C18.48 52.4161 18.7093 52.4521 18.8514 52.6056C18.9938 52.7592 19.0132 52.99 18.8979 53.1651C18.0913 54.3904 16.6148 55.222 14.847 55.4467C14.4568 55.4963 14.0678 55.5173 13.6809 55.5173ZM10.8726 54.3244C12.1496 54.5282 13.4587 54.7066 14.7324 54.5448C15.3492 54.4665 15.9219 54.305 16.4283 54.0726C14.6362 54.3272 12.7094 53.9604 10.8198 53.4752C10.8522 53.7085 10.8726 53.9813 10.8726 54.3244Z" fill="#E8E1D6"/>
<path d="M33.4774 74.4472C35.1361 72.9738 36.3083 71.0171 37.139 68.9599C37.9697 66.9027 38.4793 64.7327 38.9854 62.5725C38.8137 63.9892 37.7808 65.1984 36.5253 65.8766C35.2698 66.5547 33.8149 66.7683 32.3887 66.8198C32.9833 68.5305 33.2931 70.3399 33.4774 74.4472Z" fill="#E8E1D6"/>
<path d="M33.4766 74.9022C33.4168 74.9022 33.3567 74.8905 33.2997 74.8665C33.1382 74.7983 33.0303 74.6433 33.0226 74.4682C32.8299 70.1833 32.5001 68.5271 31.9588 66.9696C31.9113 66.8333 31.9317 66.6826 32.0131 66.5636C32.0944 66.4447 32.2279 66.3713 32.3719 66.3661C34.0468 66.3056 35.2977 66.0233 36.3084 65.4771C37.3007 64.941 38.0466 64.1017 38.373 63.1896C38.4297 62.9489 38.4862 62.7088 38.5423 62.4696C38.5974 62.2344 38.8261 62.083 39.0641 62.1256C39.3018 62.1678 39.4651 62.3882 39.4362 62.628C39.4016 62.9125 39.3363 63.1933 39.242 63.4667C38.7935 65.3603 38.3028 67.2917 37.5602 69.131C36.6 71.5088 35.3276 73.4119 33.7787 74.7879C33.6939 74.8631 33.586 74.9022 33.4766 74.9022ZM33.0038 67.2424C33.4769 68.799 33.7213 70.5236 33.8807 73.4186C35.0104 72.2116 35.962 70.6589 36.7168 68.7901C37.1388 67.7451 37.4788 66.6607 37.7769 65.5665C37.4665 65.8331 37.1194 66.0723 36.7406 66.2767C35.7305 66.8219 34.5323 67.1333 33.0038 67.2424Z" fill="#E8E1D6"/>
<path d="M62.0423 76.541C61.751 76.541 61.476 76.3646 61.3641 76.0767C59.105 70.2636 56.6459 54.9551 56.55 52.6818C56.4227 49.6746 57.8498 46.974 59.2299 44.3626C59.4031 44.0346 59.5757 43.7082 59.7443 43.3824C63.4907 36.1455 65.0267 28.8972 64.1855 22.4216C64.0452 21.3431 63.8005 20.3009 63.5844 19.3814C59.2348 0.865908 38.4879 0.0974596 28.1245 2.27735C23.6334 3.22242 19.5563 5.30275 16.3342 8.29362C10.9871 13.2569 8.64975 20.3616 10.3793 26.3936C11.0056 28.5769 10.6733 30.8789 9.46813 32.7092C7.31228 35.9827 5.00262 38.6194 2.19823 41.5712C1.70073 42.0949 1.50746 42.5918 1.62336 43.048C1.79259 43.7138 2.59556 44.3059 3.27215 44.5306C4.54119 44.8654 8.102 45.459 9.62842 44.2732C9.85775 44.0954 10.1709 44.0704 10.4255 44.2103C10.6798 44.3503 10.8269 44.6283 10.7988 44.9174C10.7479 45.4476 10.6832 45.996 10.6151 46.5764C10.4046 48.3691 10.1681 50.3801 10.3485 52.0046C11.9482 52.4265 13.5964 52.663 15.2554 52.7083C16.6754 52.7462 17.5881 52.4959 18.0447 51.9398C18.2993 51.6291 18.7579 51.5844 19.0683 51.8393C19.379 52.0943 19.424 52.5526 19.1688 52.8633C18.1553 54.0975 16.4264 54.1959 15.2156 54.1626C13.2771 54.1095 11.3521 53.8118 9.49341 53.2776C9.22462 53.2005 9.02426 52.9761 8.9771 52.7006C8.65345 50.8018 8.92778 48.4665 9.17006 46.4059C9.18239 46.2999 9.19472 46.1951 9.20705 46.0912C6.63569 46.9161 3.05577 45.9784 2.87729 45.9303C2.86527 45.9272 2.85325 45.9235 2.84123 45.9199C1.76238 45.5706 0.531262 44.6576 0.213156 43.4058C0.0433144 42.7372 0.0667409 41.7022 1.14343 40.5685C3.97279 37.5902 6.14898 35.1027 8.25273 31.9081C9.22431 30.4328 9.48971 28.5689 8.9808 26.794C7.10145 20.2399 9.59913 12.5594 15.3441 7.22649C18.7598 4.05591 23.0752 1.85228 27.8249 0.852962C32.9839 -0.232668 41.0845 -0.591154 48.3483 1.65809C57.2146 4.40361 62.9728 10.4168 65.0001 19.0479C65.2242 20.001 65.4779 21.0817 65.6277 22.2336C66.5071 29.0047 64.9194 36.5487 61.0362 44.0507C60.8657 44.3802 60.6909 44.7103 60.5158 45.042C59.2262 47.4823 57.8927 50.0059 58.0034 52.6201C58.0946 54.7837 60.5599 69.9911 62.7201 75.5497C62.8656 75.9242 62.68 76.3455 62.3055 76.4913C62.2189 76.5249 62.1301 76.541 62.0423 76.541Z" fill="#333333"/>
<path d="M16.0909 68.2046C14.0565 68.2046 11.9337 67.822 10.6434 66.213C9.26092 64.4887 9.45295 62.0875 9.65639 59.5457C9.81853 57.5178 9.98652 55.4211 9.31517 53.6922C9.16968 53.3177 9.35555 52.8963 9.72975 52.7508C10.1043 52.6053 10.5256 52.7912 10.6711 53.1657C11.463 55.2051 11.2821 57.4706 11.1064 59.6619C10.927 61.9078 10.7571 64.0291 11.7783 65.3031C13.007 66.8354 15.5679 66.8446 17.6627 66.6812C19.3586 66.549 21.3486 66.5777 23.4561 66.6073C27.2188 66.6609 31.1107 66.7164 34.0294 65.9038C34.0852 65.8884 34.1425 65.8795 34.2005 65.8776C36.2346 65.8104 38.1204 64.1148 38.3183 62.1744C38.3593 61.7746 38.7128 61.483 39.116 61.5246C39.5155 61.5656 39.8068 61.9226 39.7658 62.3224C39.4961 64.9646 37.0708 67.1923 34.3377 67.3282C31.2296 68.1731 27.2678 68.1167 23.4354 68.0625C21.3625 68.0329 19.4052 68.0051 17.7758 68.1321C17.2354 68.1744 16.6664 68.2046 16.0909 68.2046Z" fill="#333333"/>
<path d="M34.2236 80.0005C33.8675 80.0005 33.5562 79.7388 33.5041 79.376C33.3481 78.2867 33.2153 77.378 33.0988 76.5818C32.6114 73.2519 32.4099 71.8734 32.007 67.4729C31.9703 67.0728 32.265 66.7187 32.6651 66.682C33.0612 66.6456 33.4193 66.94 33.4557 67.3401C33.8549 71.7014 34.0549 73.0685 34.538 76.371C34.6548 77.1684 34.7879 78.0783 34.9442 79.1692C35.0009 79.5668 34.7248 79.9355 34.3271 79.9925C34.292 79.9974 34.2582 80.0005 34.2236 80.0005Z" fill="#333333"/>
<path d="M29.8908 13.5823C28.2784 13.5823 26.6478 14.156 25.4796 15.2151C23.792 16.7446 23.0787 19.2565 23.705 21.4659C24.5342 24.3921 27.2896 26.4755 29.9543 28.4902C30.2518 28.7149 30.5474 28.9387 30.839 29.1621C33.4526 31.1666 35.8991 33.394 38.1221 35.7918C39.3465 34.2056 40.7185 32.7165 42.2091 31.3562C42.7381 30.8738 43.2904 30.3988 43.8249 29.9398C45.6396 28.3807 47.3534 26.9083 48.4402 24.9895C50.274 21.7532 50.561 19.1652 49.344 16.8445C48.6859 15.5899 47.2486 14.0515 45.1864 13.4957C43.5377 13.0515 41.8815 13.3419 40.2638 14.3594C38.5672 15.4265 38.0059 18.1305 37.9868 19.3671C37.9871 19.4023 37.9868 19.4374 37.9865 19.4728C37.9803 19.8705 37.6561 20.1892 37.2591 20.1892H37.256C36.8571 20.1874 36.5344 19.8652 36.5316 19.4664C36.5316 19.4312 36.5316 19.3955 36.5316 19.3594C36.5051 17.1422 34.2633 14.8036 32.1462 13.9886C31.4339 13.7143 30.6648 13.5823 29.8908 13.5823Z" fill="#FFD0B6"/>
</g>
</g>
<defs>
<clipPath id="clip0_1754_1106">
<rect width="66" height="80" fill="white"/>
</clipPath>
</defs>
</svg>
