<svg width="58" height="86" viewBox="0 0 58 86" fill="none" xmlns="http://www.w3.org/2000/svg">
<g clip-path="url(#clip0_1754_1041)">
<mask id="mask0_1754_1041" style="mask-type:luminance" maskUnits="userSpaceOnUse" x="0" y="0" width="58" height="86">
<path d="M57.7303 0.0740967H0.271484V86H57.7303V0.0740967Z" fill="white"/>
</mask>
<g mask="url(#mask0_1754_1041)">
<path fill-rule="evenodd" clip-rule="evenodd" d="M13.5392 12.4776C13.1915 12.8254 13.3903 14.0918 13.9615 15.2342C14.7314 16.7491 16.1715 18.1149 17.587 18.6861C19.2012 19.3316 22.8268 19.307 24.1429 18.6364C26.0056 17.6928 26.0302 16.4761 24.168 17.1462C22.8518 17.618 20.4677 17.618 18.8534 17.1216C17.2642 16.6497 15.4512 15.0852 14.6317 13.4463C14.0854 12.3289 13.862 12.1298 13.5392 12.4776Z" fill="#EFEAE3"/>
<path fill-rule="evenodd" clip-rule="evenodd" d="M10.459 41.508C10.1859 42.2282 10.7321 43.1966 11.6758 43.6684C12.7685 44.2146 16.5432 44.5126 17.8345 44.1648C19.2004 43.817 18.952 43.2459 17.3381 43.0475C13.4887 42.5756 11.8499 42.1781 11.4774 41.6567C11.0303 41.0111 10.6828 40.9617 10.459 41.508Z" fill="#EFEAE3"/>
<path fill-rule="evenodd" clip-rule="evenodd" d="M51.7339 79.8511C51.411 80.3973 53.0997 82.5828 53.8696 82.5828C54.093 82.5828 54.4408 82.409 54.6145 82.1605C54.9126 81.8128 54.9126 81.7384 54.5899 81.6391C54.391 81.5648 53.8199 81.0929 53.3234 80.5713C52.4295 79.578 52.0069 79.4044 51.7339 79.8511Z" fill="#EFEAE3"/>
<path fill-rule="evenodd" clip-rule="evenodd" d="M35.1444 80.2731C35.045 80.3476 34.9707 80.8194 34.9707 81.2666C34.9707 82.8558 36.8334 83.9238 37.8267 82.9304C38.1248 82.6323 38.1494 82.4586 37.926 82.1855C37.777 81.9868 37.4789 81.8377 37.2805 81.8377C37.0571 81.8377 36.5356 81.4402 36.1134 80.9684C35.6663 80.4965 35.2191 80.1738 35.1444 80.2731Z" fill="#EFEAE3"/>
<path fill-rule="evenodd" clip-rule="evenodd" d="M54.7295 42.2937C53.0656 28.2625 51.4764 24.5627 45.0693 19.5709C42.3623 17.4848 38.414 16.094 35.3592 16.119C34.1425 16.119 31.4852 16.6902 30.3428 17.1871C29.9704 17.3608 30.0447 17.063 30.6906 15.6969C31.7833 13.3875 31.9571 10.283 31.1625 7.70049C29.6229 2.60975 24.3831 -0.618695 19.019 0.200926C13.6547 1.02055 9.78076 4.99391 9.35861 10.1343C8.91146 15.3992 12.413 20.3408 17.5784 21.7066C19.2424 22.1538 22.0733 22.1538 23.5882 21.682C24.2588 21.4832 24.8299 21.3095 24.8796 21.3095C24.9043 21.3095 24.7059 21.7563 24.4324 22.3028C24.1594 22.849 23.5385 24.7367 23.0666 26.5247C22.5948 28.2879 21.8995 30.3243 21.5518 31.0445C20.0866 33.9502 16.5107 36.4333 12.0405 37.6752C8.63836 38.6187 7.34692 40.0343 7.64503 42.5179C7.67885 42.7994 7.70281 43.0168 7.71162 43.194C8.00621 43.3857 8.2793 43.6151 8.51539 43.8931C9.19477 44.6937 9.72015 44.8893 10.6173 45.1895C11.1416 45.365 11.679 45.4993 12.2044 45.6702C12.3552 45.7191 13.1569 46.0342 13.5332 46.1786L15.4673 46.0691C21.9736 45.6715 26.0463 43.3621 30.4422 37.5261C31.3859 36.2346 32.3049 35.2413 32.4785 35.2909C33.3229 35.5641 34.1921 40.7295 34.6143 48.0057C34.9371 53.5686 34.664 59.5533 33.6209 70.2316C32.6276 80.2147 32.5779 82.4249 33.2731 83.7659C33.9437 85.082 35.2846 85.7773 36.4022 85.4049C39.3576 84.3618 40.7731 81.0837 42.561 70.9765C42.9832 68.5924 43.5794 65.513 43.9022 64.1472C44.2249 62.7814 44.6224 60.8445 44.7961 59.851C44.9948 58.6343 45.1932 58.1128 45.3423 58.2618C45.7148 58.6343 47.1799 66.2583 48.1236 72.9632C48.6205 76.3157 49.1666 79.5938 49.3653 80.2891C50.1599 82.8966 51.8239 84.6349 53.5621 84.6349C54.4314 84.6349 55.7475 83.6416 56.3931 82.5238C58.5038 78.7492 58.2311 71.8955 54.7295 42.2937ZM20.6082 20.3162C16.9825 20.2912 13.5307 18.0564 11.9412 14.6542C11.2706 13.2137 11.1466 12.7172 11.1466 11.0037C11.1466 9.73721 11.3202 8.5698 11.5937 7.7752C12.4631 5.29167 15.0706 2.65944 17.4544 1.86484C18.9442 1.34332 21.5272 1.34332 23.2157 1.84016C25.997 2.65979 27.934 4.37302 29.2255 7.12965C30.6163 10.085 30.1691 13.785 28.108 16.4421C26.4195 18.6522 23.191 20.3162 20.6082 20.3162ZM54.8289 82.4002C53.3387 84.1384 51.6255 82.7479 50.6568 78.998C50.4334 78.1784 49.8125 74.6025 49.266 71.0759C47.3536 58.9571 46.8321 56.8463 45.3423 55.5052C44.8454 55.0581 44.8208 55.0581 44.4483 55.6293C44.0508 56.2252 43.306 59.5283 41.3192 69.3623C39.4566 78.6252 38.6374 81.4565 37.4202 82.8966C36.2281 84.3371 35.3839 84.4115 34.7383 83.12C34.1671 82.0524 34.2665 78.8982 35.1108 71.8952C36.8741 56.846 36.9734 50.7369 35.5826 40.8035C34.8377 35.3153 34.0431 33.4777 32.4289 33.4777C31.4852 33.4777 31.2368 33.7011 29.1758 36.4824C26.7419 39.7852 24.9043 41.4244 22.0984 42.7902C19.4907 44.0567 17.1563 44.6529 14.5984 44.6529C11.2706 44.6529 9.28391 43.6345 9.28391 41.9212C9.28391 40.6051 10.0539 40.0089 12.9094 39.1896C16.5351 38.122 18.7701 36.9048 20.8562 34.8438C23.0416 32.6834 23.7369 31.2679 24.7056 26.9468C25.103 25.1339 25.7239 23.0728 26.0714 22.3776C26.7419 20.9867 28.1574 19.5963 29.7219 18.8017C31.932 17.6593 35.806 17.2868 38.4135 17.9574C42.4366 19.0004 47.0555 22.5266 49.2163 26.1772C51.2277 29.5547 52.3454 34.0495 53.3387 42.7909C53.6864 45.7956 54.208 49.918 54.4561 51.9794C55.3254 58.5603 55.9959 65.7621 56.2193 70.9522C56.5175 77.7816 56.1454 80.811 54.8289 82.4002Z" fill="#333333"/>
<path fill-rule="evenodd" clip-rule="evenodd" d="M17.0229 84.7058C17.5694 84.6923 18.1427 84.5726 18.2759 84.439C18.5959 84.119 18.5293 82.8794 18.1692 82.7328C18.036 82.6796 17.9425 82.373 17.956 82.0664L18.0091 81.5065L17.3027 81.5464C16.9162 81.5597 16.4763 81.7063 16.3428 81.8395C15.8629 82.3195 15.663 83.0259 15.9295 83.2924C16.1029 83.4658 16.1029 83.679 15.9428 83.8922C15.5295 84.4386 15.9165 84.7189 17.0229 84.7058Z" fill="#EFEAE3"/>
<path fill-rule="evenodd" clip-rule="evenodd" d="M19.2229 84.648L19.103 79.676C19.0499 76.9299 18.9033 72.6377 18.7831 66.7322C18.6763 60.8137 18.5566 60.9335 18.5164 60.2002C18.4895 59.4535 18.5431 58.7873 18.6361 58.7207C19.076 58.3873 19.1429 58.0275 19.1559 55.828C19.2225 51.5224 18.8472 51.3983 17.3677 48.8792C16.528 47.4528 14.3302 46.1046 12.9439 45.3847C11.6243 44.6783 9.05161 44.1849 7.63859 44.3449C3.98624 44.7713 1.16021 48.024 0.506904 52.5696C0.186949 54.729 1.18663 56.5021 2.73284 56.5021C3.46614 56.4888 3.61273 56.4221 4.13247 55.7956C4.46582 55.3823 5.01235 54.2762 5.43873 53.0763C6.54517 50.0237 7.47827 49.1438 9.31765 49.3838C12.1835 49.7972 13.4767 48.6565 13.9164 55.5482C14.1162 58.6008 14.1962 59.1073 14.5296 59.0406C14.6628 59.0138 14.8228 58.801 14.8893 66.7322C15.0225 80.0621 15.1427 82.4886 15.3292 84.0081C15.4148 84.6811 15.3958 84.8027 15.0934 84.8492C15.1022 84.9154 15.1068 84.982 15.1132 85.0483C15.3228 85.2569 15.5085 85.4856 15.6702 85.7301C15.7706 85.7611 15.8242 85.789 15.7555 85.7939C16.6044 85.8661 17.4789 85.7918 18.3225 85.7428C18.3948 85.7385 18.553 85.7188 18.7461 85.6955C18.8867 85.3354 19.065 84.9802 19.2673 84.6387L19.2214 84.6476L19.2229 84.648ZM14.9038 58.0275L14.8506 56.0814C14.784 53.4287 14.6981 54.2233 14.5561 52.5516C14.2196 48.5833 10.225 47.8108 7.71893 48.5039C6.23932 48.9173 5.53281 49.8102 4.58633 52.4097C3.79983 54.5824 3.21348 55.489 2.57357 55.489C2.14685 55.489 1.80046 55.1159 1.57389 54.4361C0.947371 52.4234 2.4136 48.2375 4.30655 46.6913C5.49299 45.7181 7.1724 45.1849 8.86555 45.2251C14.5709 45.3583 18.7225 50.3046 18.2098 54.2955C18.0636 55.433 18.2232 56.4418 18.17 56.4951C18.1034 56.5617 17.4233 56.6283 16.6636 56.6685C15.8771 56.7082 15.264 56.815 15.2907 56.9218C15.3175 57.0286 15.9838 57.1085 16.7569 57.0818C18.2633 57.0416 18.4234 57.0952 18.3698 57.5751C18.343 57.7883 17.8765 57.8816 16.6234 57.9349L14.9038 58.0275ZM17.4363 84.8615C16.93 84.8615 16.4898 84.8481 16.4631 84.8213C16.4363 84.7945 16.3433 81.9286 16.2763 78.4497C16.0099 64.1331 15.8231 59.1076 15.8897 59.041C15.943 59.0141 16.2897 58.9342 16.6763 58.8944C17.3162 58.8412 17.3828 58.881 17.4627 59.2809C17.5427 59.7608 18.0093 70.9319 18.1027 78.1967C18.1295 80.516 18.1961 82.9555 18.2627 83.6352L18.3824 84.8484L17.4363 84.8615Z" fill="#333333" stroke="#2C2930" stroke-miterlimit="10"/>
<path fill-rule="evenodd" clip-rule="evenodd" d="M17.0509 55.7215C17.9973 55.6281 18.2637 55.5218 18.0506 55.3082C17.9307 55.1884 16.1312 55.335 15.9842 55.4816C15.7711 55.6948 16.2513 55.8016 17.0509 55.7215Z" fill="#333333"/>
<path fill-rule="evenodd" clip-rule="evenodd" d="M14.9045 58.0275L14.8513 56.0814C14.7847 53.4287 14.6987 54.2233 14.5567 52.5517C14.2202 48.5833 10.2257 47.8108 7.71961 48.5039C6.23999 48.9173 5.53348 49.8102 4.58701 52.4097C3.80051 54.5824 3.21416 55.489 2.57425 55.489C2.14753 55.489 1.80114 55.1159 1.57456 54.4361C0.948046 52.4234 2.41428 48.2375 4.30722 46.6913C5.49367 45.7181 7.17308 45.1849 8.86623 45.2251C14.5715 45.3583 18.7232 50.3046 18.2104 54.2955C18.0642 55.433 18.2239 56.4418 18.1707 56.4951C18.1041 56.5617 17.424 56.6283 16.6643 56.6685C15.8778 56.7082 15.2647 56.815 15.2914 56.9217C15.3182 57.0286 15.9845 57.1085 16.7576 57.0818C18.264 57.0416 18.4241 57.0952 18.3705 57.5751C18.3437 57.7883 17.8771 57.8816 16.6241 57.9349L14.9045 58.0275Z" fill="#FFF1C9" stroke="#2C2930" stroke-miterlimit="10"/>
<path fill-rule="evenodd" clip-rule="evenodd" d="M17.4371 84.8612C16.9307 84.8612 16.4906 84.8479 16.4638 84.821C16.437 84.7943 16.344 81.9284 16.2771 78.4494C16.0107 64.1328 15.8239 59.1072 15.8905 59.0407C15.9437 59.0139 16.2905 58.9339 16.6769 58.894C17.3169 58.8409 17.3835 58.8807 17.4635 59.2806C17.5435 59.7606 18.01 70.9315 18.1034 78.1964C18.1302 80.5157 18.1968 82.9552 18.2633 83.6349L18.3832 84.8482L17.4371 84.8612Z" fill="#FFF1C9" stroke="#2C2930" stroke-miterlimit="10"/>
</g>
</g>
<defs>
<clipPath id="clip0_1754_1041">
<rect width="58" height="85.9259" fill="white" transform="translate(0 0.0740967)"/>
</clipPath>
</defs>
</svg>
