<svg width="112" height="80" viewBox="0 0 112 80" fill="none" xmlns="http://www.w3.org/2000/svg">
<g clip-path="url(#clip0_1754_1128)">
<mask id="mask0_1754_1128" style="mask-type:luminance" maskUnits="userSpaceOnUse" x="0" y="0" width="112" height="80">
<path d="M111.111 0H0.888672V80H111.111V0Z" fill="white"/>
</mask>
<g mask="url(#mask0_1754_1128)">
<path d="M110.914 20.2909C110.876 19.7141 110.451 19.194 109.833 19.2096C80.2404 19.919 50.6315 19.3262 21.0322 19.4301C21.0259 19.3922 21.0225 19.3577 21.0132 19.3199C20.6291 17.9769 21.2116 16.5363 19.5551 15.8774C18.7897 15.5716 17.9113 15.4394 17.0105 15.3826C16.9634 14.6543 16.9538 13.9294 16.9634 13.2045C16.976 12.2304 17.0235 11.2564 17.0609 10.2791C17.0958 9.3871 16.7398 7.61836 17.9554 7.51777C18.7994 7.44835 19.6686 7.50849 20.5126 7.50849C21.3945 7.50552 22.2763 7.50552 23.1548 7.50218C24.3893 7.50218 24.5246 7.48659 24.5877 8.74716C24.6255 9.49734 24.6033 10.2475 24.5906 10.9981C24.5751 11.7041 24.5688 12.4105 24.6222 13.1194C24.7008 14.1595 25.3527 14.8785 26.43 14.7965C27.6014 14.7052 28.7729 14.8091 29.9443 14.7586C31.0464 14.7082 31.9694 14.125 31.9505 12.9145C31.9412 12.2746 31.9253 11.638 31.9127 10.9981C31.8908 9.81583 31.8719 8.63395 31.8467 7.45169C31.8278 6.59127 31.9379 5.45319 31.919 4.33404C31.8908 2.47733 31.5126 0.671103 29.6358 0.254995C27.9163 -0.123251 25.9227 0.0374751 24.1657 0.0155747C21.98 -0.00966641 19.7947 0.0597468 17.6124 0.188922C14.6268 0.36561 10.5076 0.0942681 9.67954 3.72268C9.51564 4.43204 9.45297 5.18222 9.43405 5.94205C9.4055 6.97582 9.45631 8.02556 9.44666 9.00922C9.43109 10.412 9.43739 11.8147 9.46224 13.2174C9.47485 13.9079 9.49079 14.5983 9.50971 15.2883C8.83591 15.3355 8.18399 15.4364 7.5762 15.635C5.84405 16.2056 6.16519 17.9171 5.76543 19.295C5.73391 19.4023 5.7213 19.5029 5.7213 19.5975C4.48051 19.6291 3.24267 19.6573 2.00225 19.6985C1.74081 19.7078 1.52981 19.7931 1.36627 19.9223C0.997665 20.1335 0.768121 20.537 0.95984 21.0697C1.62437 22.9108 -0.233492 27.3711 2.61634 28.1339C2.97531 28.2285 3.39731 28.2033 3.76258 28.2159C4.25393 28.2285 4.74824 28.2348 5.2396 28.2474C5.2522 29.0073 5.27445 29.7667 5.29967 30.5266C5.58929 39.1104 6.70734 47.8357 9.14481 56.0443C10.2188 59.6567 11.9005 63.1812 14.7629 65.7124C15.4211 66.2925 16.1361 66.7874 16.8885 67.2127C16.8948 67.7361 16.857 68.2528 16.7658 68.7699C16.0697 68.7669 15.2984 68.9778 14.4573 69.4603C11.5853 71.1088 11.0498 75.3345 13.0497 77.817C15.057 80.3084 19.0567 80.6243 21.4338 78.8883C23.3391 77.4967 25.4421 74.3085 26.2323 71.5345C26.3836 71.0019 26.5219 70.4659 26.6514 69.9395C31.309 70.5605 36.0141 70.5951 40.7062 70.6266C45.2819 70.6548 49.8609 70.7116 54.4399 70.7402C63.7299 70.8033 73.0329 70.7747 82.3104 70.1726C83.2237 70.1129 84.1274 70.0435 85.0219 69.9488C85.7839 73.0854 86.8297 76.4079 89.5063 78.3905C92.2304 80.4142 95.8898 80.739 98.3588 78.1448C100.613 75.7743 100.198 71.6604 97.5808 69.7313C96.7494 69.1196 95.836 68.7666 94.9008 68.7573C94.8882 68.6786 94.8789 68.5965 94.8663 68.5179C94.7814 67.9032 94.7625 67.2885 94.8033 66.6738C94.9071 66.598 95.0143 66.5257 95.1211 66.4436C98.6514 63.7484 100.9 59.8742 102.566 55.8267C103.155 54.3988 103.649 52.9519 104.068 51.4957C106.055 44.5985 106.339 37.4144 106.707 30.227C106.754 29.3443 106.801 28.465 106.852 27.5823C107.523 27.5288 108.19 27.4561 108.848 27.3428C111.85 26.8321 111.053 22.3933 110.914 20.2909ZM12.473 2.15551C13.4112 1.78914 14.566 1.82811 15.5509 1.7394C17.4344 1.56865 19.3241 1.47622 21.2142 1.42277C23.1044 1.36932 24.9941 1.39419 26.8842 1.4584C27.7227 1.48699 28.5611 1.53301 29.3999 1.58647C29.9592 1.61839 30.554 2.25164 30.594 2.94875C30.6341 3.59945 30.5573 4.30397 30.564 4.62394C30.5907 6.21748 30.6207 7.8073 30.6537 9.39712C30.6671 10.0478 30.6771 10.6989 30.6871 11.3496C30.6871 11.435 30.6904 11.5166 30.6904 11.602C30.7004 12.0144 30.7071 12.4309 30.7138 12.8433C30.7205 13.3269 30.4416 13.1632 29.7793 13.1707C29.2201 13.1777 28.6612 13.1566 28.1057 13.1495C27.8495 13.1425 27.5933 13.1458 27.3337 13.1495C27.2072 13.1532 27.1141 13.1566 27.0478 13.1603C27.0678 13.1495 26.2468 13.1354 26.2434 13.1176C26.2038 12.527 26.2038 11.9402 26.2167 11.35C26.2334 10.667 26.2668 9.98064 26.2668 9.2943C26.2668 8.06713 26.3102 7.34071 25.435 6.4053C24.5832 5.49847 23.7871 5.80434 22.7291 5.80434C21.0885 5.80805 20.2827 5.78318 18.6388 5.82216C17.7173 5.83997 16.293 5.75497 15.8672 6.7828C15.235 8.30878 15.4478 9.56453 15.3881 11.2041C15.3581 12.086 15.3251 12.9609 15.3117 13.8396C15.3017 14.6432 15.3084 15.0315 15.3551 15.8355C14.8163 15.8425 13.4494 15.8496 12.957 15.8355C12.3814 15.8214 11.3568 15.7857 10.7413 15.7609C10.7212 14.9821 10.7079 14.6187 10.6945 13.8399C10.6415 10.71 10.6515 7.57679 10.7776 4.45022C10.7876 4.2405 10.8043 4.04117 10.8343 3.84926C10.9441 3.08089 11.6624 2.46916 12.4745 2.15625L12.473 2.15551ZM7.5317 18.6346C7.6003 17.8689 7.74752 17.2341 8.7102 17.1669C10.2555 17.0586 11.8211 17.1035 13.3693 17.1295C14.9212 17.1591 16.4732 17.2527 18.0218 17.3722C18.5628 17.4134 19.2481 17.2378 19.2618 18.0444C19.2652 18.1977 19.2652 18.3395 19.2652 18.4776C19.2685 18.8024 19.2722 19.1049 19.3134 19.4186C15.3529 19.4372 11.3961 19.4747 7.43899 19.553C7.4872 19.243 7.50462 18.9297 7.5317 18.6346ZM24.4546 71.5071C23.4281 74.7097 21.3774 78.441 17.658 78.5137C16.2125 78.5419 14.2423 77.3697 13.7068 76.2034C13.3322 75.3868 12.9603 74.1088 13.1965 73.2168C13.5147 72.0253 13.933 70.8786 16.5937 70.4054C17.5223 70.2402 18.5509 71.5446 18.8406 72.4176C18.9444 72.7298 19.0293 73.3987 19.1643 73.6014C19.5522 74.1849 20.7032 73.7012 20.3191 72.3586C19.9123 70.9362 19.7602 70.2458 18.8216 69.5082C18.825 69.5019 18.3885 69.2057 18.3885 69.2027C18.4074 69.1114 18.4167 69.0197 18.4326 68.9317C18.4894 68.5943 18.5365 68.2573 18.565 67.9199C20.3224 68.6006 23.1292 69.3137 24.9904 69.6225C24.8328 70.2402 24.6593 70.8769 24.4546 71.5071ZM97.4221 71.1745C98.2505 71.8727 98.2994 73.6656 98.3091 74.186C98.3469 75.8471 96.7716 77.9347 94.2882 78.3953C91.9983 78.8203 89.2846 76.7892 88.1417 75.0713C87.4931 74.0973 87.0522 73.0034 86.7058 71.8749C86.5108 71.235 86.3435 70.5824 86.1892 69.9362C88.0946 69.6177 91.4858 68.7209 93.2239 67.8601C93.2554 68.3141 93.169 69.2012 93.251 69.6519C92.9613 69.8378 92.7125 70.0806 92.4982 70.3579C91.8589 71.1745 91.2429 72.2628 91.2481 73.2138C91.2522 73.9918 92.2175 74.1856 92.467 73.7142C92.516 73.6218 92.6676 72.9354 92.6992 72.8315C92.9194 72.0624 93.1012 71.3096 93.7564 70.8211C94.9216 69.9544 96.6427 70.5182 97.4221 71.1745ZM91.6163 27.8053C96.2569 27.7155 100.904 27.629 105.542 27.3625C105.491 28.2608 105.442 29.1558 105.395 30.0507C104.975 37.9779 104.606 45.7797 102.01 53.3702C101.901 53.6879 101.795 54.0086 101.677 54.3294C100.096 58.6185 97.6865 62.741 93.9207 65.4451C91.7895 66.9752 89.3439 67.6652 86.8156 68.0179C86.4792 67.8894 86.3061 68.2146 85.7643 68.1493C84.0466 68.3323 82.3029 68.3931 80.6075 68.4926C71.1243 69.0349 61.6151 68.9963 52.1222 68.9225C43.4081 68.8553 34.3958 69.3523 25.7295 68.0565C25.5244 67.9666 25.2967 67.9314 25.079 67.9603C24.403 67.8512 23.7296 67.7357 23.0569 67.6043C21.3103 67.258 19.6308 66.7543 18.0989 65.9971C17.9035 65.7959 17.7399 65.7079 17.3072 65.5769C15.8776 64.7558 14.599 63.6842 13.5447 62.2696C11.4874 59.5105 10.4906 56.0844 9.67658 52.7896C9.58053 52.3951 9.49079 52.0005 9.39771 51.6059C9.16706 50.6052 8.9427 49.6041 8.73764 48.5966C8.54851 47.6597 8.37237 46.7199 8.20883 45.78C8.1254 45.3086 8.04863 44.8402 7.9715 44.3684C7.3689 40.5926 6.96173 36.7879 6.73775 32.9735C6.68027 32.0206 6.63837 31.0648 6.60314 30.1119C6.57755 29.387 6.55493 28.6587 6.54232 27.9338C7.22502 27.9401 7.91068 27.9497 8.59338 27.9561C16.3527 28.0459 24.1115 28.0778 31.8708 28.1038M108.98 23.2668C108.986 23.7334 108.933 24.181 108.816 24.635C108.775 24.802 108.552 25.0856 108.482 25.2152C108.464 25.2181 108.448 25.2244 108.429 25.2278C108.322 25.2497 108.208 25.2686 108.098 25.2846C108.06 25.2909 108.042 25.2939 108.026 25.2972C108.001 25.3002 107.963 25.3035 107.9 25.3128C107.509 25.3599 107.119 25.3948 106.725 25.4264C104.243 25.6313 101.753 25.71 99.2647 25.792C90.9036 26.063 82.5392 26.142 74.1751 26.2081C54.9932 26.3659 35.8083 26.3499 16.6234 26.2111C13.0397 26.1829 9.45593 26.1543 5.87186 26.0975C5.02488 26.0819 4.17754 26.0693 3.33056 26.0377C3.27679 26.0348 3.21709 26.0284 3.15738 26.0188C2.96529 25.7668 3.23934 23.5192 3.26122 23.2575C3.27049 23.1755 3.27679 23.0934 3.28347 23.0118C3.31499 22.6175 3.32426 22.2204 3.30238 21.8265C15.3262 21.4672 27.3685 21.5682 39.3923 21.6027C55.1793 21.6469 70.9663 21.7445 86.7533 21.6721C94.1191 21.6376 101.482 21.5619 108.845 21.3948C108.895 21.975 108.952 22.5548 108.98 23.135C108.983 23.1792 108.98 23.2226 108.98 23.2668Z" fill="#333333"/>
<path d="M109.703 23.1261C109.71 23.7041 109.656 24.2582 109.537 24.8206C109.496 25.0274 109.269 25.3789 109.199 25.5389C109.179 25.5429 109.163 25.5507 109.145 25.5545C109.036 25.5819 108.921 25.6053 108.809 25.6246C108.771 25.6324 108.752 25.6365 108.736 25.6402C108.71 25.6443 108.672 25.648 108.608 25.6599C108.212 25.7185 107.816 25.7612 107.417 25.8006C104.902 26.0545 102.377 26.1521 99.8549 26.2534C91.3796 26.5893 82.9009 26.6866 74.4223 26.7686C54.9781 26.9639 35.5311 26.9442 16.084 26.7727C12.451 26.7374 8.8183 26.7026 5.18564 26.632C4.3268 26.6124 3.46833 26.5968 2.60949 26.5578C2.55498 26.5537 2.49453 26.5459 2.43408 26.5344C2.2394 26.2222 2.51715 23.4383 2.5394 23.1142C2.54904 23.0129 2.55535 22.9112 2.56165 22.8098C2.59354 22.3217 2.60318 21.8299 2.58093 21.3418C14.769 20.8967 26.976 21.0218 39.1641 21.0645C55.1669 21.1191 71.1697 21.2401 87.1721 21.1502C94.6388 21.1072 102.102 21.0136 109.566 20.8065C109.617 21.5248 109.674 22.2434 109.703 22.9617C109.706 23.0162 109.703 23.0716 109.703 23.1261Z" fill="#B0DDE4"/>
<path d="M97.4222 71.1745C98.2506 71.8727 98.2996 73.6656 98.3092 74.186C98.3471 75.8471 96.7719 77.9347 94.2884 78.3953C91.9985 78.8203 89.2848 76.7892 88.1419 75.0713C87.4933 74.0973 87.0523 73.0034 86.706 71.8749C86.5109 71.235 86.3438 70.5824 86.1895 69.9362C88.0948 69.6177 91.4861 68.7209 93.2241 67.8601C93.2557 68.3141 93.1693 69.2012 93.2512 69.6519C92.9616 69.8378 92.7128 70.0806 92.4984 70.3579C91.8591 71.1745 91.2432 72.2628 91.2484 73.2138C91.2524 73.9919 92.2176 74.1856 92.4672 73.7142C92.5161 73.6218 92.6678 72.9354 92.6993 72.8315C92.9196 72.0624 93.1014 71.3096 93.7567 70.8211C94.9218 69.9544 96.6427 70.5183 97.4222 71.1745Z" fill="#FFF1C9"/>
<path d="M24.4552 71.5071C23.4287 74.7098 21.378 78.441 17.6586 78.5138C16.2131 78.542 14.2429 77.3698 13.7074 76.2035C13.3329 75.3868 12.9609 74.1088 13.1971 73.2168C13.5153 72.0253 13.9336 70.8787 16.5943 70.4054C17.5229 70.2403 18.5516 71.5446 18.8412 72.4177C18.945 72.7298 19.0299 73.3987 19.1649 73.6014C19.5528 74.1849 20.7039 73.7013 20.3197 72.3587C19.9129 70.9362 19.7608 70.2458 18.8223 69.5083C18.8256 69.5019 18.3891 69.2057 18.3891 69.2028C18.408 69.1115 18.4173 69.0198 18.4333 68.9318C18.49 68.5944 18.5371 68.2573 18.5656 67.9199C20.323 68.6007 23.1298 69.3138 24.991 69.6226C24.8334 70.2402 24.6599 70.8768 24.4552 71.5071Z" fill="#FFF1C9"/>
</g>
</g>
<defs>
<clipPath id="clip0_1754_1128">
<rect width="112" height="80" fill="white"/>
</clipPath>
</defs>
</svg>
