<svg width="80" height="90" viewBox="0 0 80 90" fill="none" xmlns="http://www.w3.org/2000/svg">
<g clip-path="url(#clip0_1754_953)">
<mask id="mask0_1754_953" style="mask-type:luminance" maskUnits="userSpaceOnUse" x="0" y="0" width="80" height="90">
<path d="M79.3431 0H0.658203V90H79.3431V0Z" fill="white"/>
</mask>
<g mask="url(#mask0_1754_953)">
<path d="M25.937 1.26014C2.94579 5.60073 -1.63836 30.3664 4.06657 45.9719C8.65936 58.5355 22.2161 70.882 42.7857 65.5951C67.0996 59.3459 67.2867 34.8997 64.6417 24.0916C58.8229 0.315469 36.7255 -0.776406 25.937 1.26014Z" fill="white"/>
<path d="M33.3172 67.4053C27.4522 67.4053 21.9705 65.9123 17.1412 62.9586C11.0312 59.2218 6.07255 53.1013 3.53725 46.1652C-0.171676 36.0189 0.724153 23.6707 5.81968 14.7055C10.0782 7.21385 16.9987 2.37285 25.8333 0.7048C29.296 0.0512029 38.3247 -1.08553 47.3608 2.46987C56.5916 6.10171 62.5906 13.3312 65.1913 23.9566C68.0951 35.8219 67.1784 59.9083 42.9275 66.1416C39.6432 66.9856 36.4261 67.4053 33.3172 67.4053ZM26.043 1.81462C17.5445 3.41921 10.891 8.06981 6.80224 15.2637C1.86321 23.9522 0.998286 35.9296 4.59822 45.7777C8.61616 56.7686 18.7258 66.2845 33.2737 66.2851C36.2207 66.2855 39.3481 65.895 42.6461 65.0474C66.0417 59.0341 66.9056 35.7153 64.0939 24.2253C57.3658 -3.26696 29.2312 1.21319 26.043 1.81462Z" fill="#333333"/>
<path d="M33.4184 57.8901C29.2742 57.8901 25.4028 56.8045 21.9929 54.658C17.6772 51.9406 14.1746 47.4887 12.3834 42.444C9.71249 34.9215 10.407 25.8217 14.1534 19.2601C17.1679 13.9812 21.9972 10.5616 28.1199 9.3714C30.5707 8.89458 36.9618 8.0662 43.3547 10.6563C49.8676 13.2947 54.1009 18.5493 55.9371 26.2743C57.9896 34.9092 57.3459 52.4367 40.2176 56.9693C37.8936 57.584 35.6178 57.8901 33.4184 57.8901ZM28.1917 9.74123C22.1804 10.9095 17.4387 14.2656 14.4807 19.4469C10.7864 25.917 10.1026 34.8942 12.7386 42.3181C15.6317 50.4656 22.9097 57.5209 33.3802 57.5219C35.5005 57.5219 37.7497 57.2328 40.1219 56.6052C56.9692 52.1469 57.5946 34.872 55.5713 26.3609C50.7262 5.97881 30.4867 9.29531 28.1917 9.74123Z" fill="#333333"/>
<path d="M60.4771 66.1914C60.4771 66.1914 1.14332 65.4621 1.22274 65.9469C1.6454 68.5286 3.80655 71.909 6.88747 72.9677C9.96837 74.0266 13.4593 74.0333 16.8319 74.022C25.0134 73.9943 48.9084 74.6945 52.8705 73.707C60.6781 71.7611 60.4771 66.1914 60.4771 66.1914Z" fill="white"/>
<path d="M40.1368 74.8038C35.6307 74.8038 30.5974 74.736 26.0384 74.6746C22.2671 74.6241 19.0096 74.5812 16.8339 74.5872C13.5972 74.5971 9.9291 74.6101 6.70398 73.5022C3.38882 72.3628 1.11834 68.8061 0.665436 66.0382C0.638521 65.8734 0.687699 65.6993 0.796687 65.5727C1.0336 65.2969 1.10936 65.2151 10.6548 65.2158C15.5878 65.2168 22.4358 65.2534 31.0083 65.3238C45.6028 65.4444 60.3372 65.6249 60.4843 65.6266C60.7854 65.6302 61.031 65.8701 61.0419 66.1712C61.0443 66.2309 61.1652 72.222 53.0074 74.2552C51.3001 74.6806 46.1956 74.8038 40.1368 74.8038ZM17.328 73.4568C19.4964 73.4568 22.5538 73.498 26.0537 73.5451C36.1168 73.681 49.8996 73.8661 52.7339 73.1597C58.6485 71.6857 59.6941 68.1173 59.8759 66.7493C38.1674 66.4845 6.4674 66.2017 1.90152 66.4309C2.50727 68.7992 4.48833 71.5464 7.07148 72.4339C10.1165 73.4806 13.6822 73.4674 16.8306 73.4577C16.9907 73.4573 17.1569 73.4568 17.328 73.4568Z" fill="#333333"/>
<path d="M60.813 73.8787C60.813 73.8787 1.47926 73.1494 1.55867 73.6339C1.98134 76.2157 4.1425 79.596 7.2234 80.6549C10.3043 81.7139 13.7952 81.7206 17.1679 81.7093C25.3493 81.6817 49.2443 82.3818 53.2065 81.3943C61.0141 79.4485 60.813 73.8787 60.813 73.8787Z" fill="white"/>
<path d="M40.4704 82.4905C35.967 82.4905 30.9382 82.4228 26.3823 82.3613C22.6076 82.3107 19.3506 82.2713 17.1702 82.2742C13.9344 82.2842 10.2634 82.2968 7.03992 81.189C3.72475 80.0499 1.45427 76.4933 1.00137 73.725C0.974459 73.5602 1.02364 73.386 1.13262 73.2594C1.36987 72.9837 1.45527 72.8926 10.9907 72.9026C15.9238 72.9036 22.7717 72.9405 31.3442 73.0109C45.9388 73.1312 60.6731 73.312 60.8203 73.3136C61.1217 73.3173 61.3669 73.5568 61.3778 73.8582C61.3802 73.918 61.5011 79.9088 53.3433 81.9416C51.6356 82.3676 46.5298 82.4905 40.4704 82.4905ZM17.6709 81.1441C19.8407 81.1441 22.8981 81.1853 26.3976 81.2325C36.4577 81.3674 50.2362 81.5528 53.0701 80.8468C58.9847 79.3728 60.0304 75.8048 60.2122 74.4368C38.5036 74.1716 6.80301 73.8884 2.23746 74.118C2.84321 76.4863 4.82427 79.2339 7.40742 80.121C10.4501 81.1671 14.0168 81.1561 17.1669 81.1451C17.3293 81.1448 17.4971 81.1441 17.6709 81.1441Z" fill="#333333"/>
<path d="M60.813 80.6855C60.813 80.6855 1.47926 79.9561 1.55867 80.441C1.98133 83.0228 4.14249 86.4031 7.2234 87.462C10.3043 88.5208 13.7952 88.5277 17.1679 88.5164C25.3493 88.4888 49.2443 89.1889 53.2065 88.2014C61.0141 86.2556 60.813 80.6855 60.813 80.6855Z" fill="white"/>
<path d="M40.4717 89.2969C35.9687 89.2969 30.9382 89.2291 26.3827 89.1683C22.6073 89.1175 19.3476 89.0775 17.1698 89.0809C13.9354 89.0915 10.2654 89.1045 7.03992 87.996C3.72475 86.8562 1.45427 83.2999 1.00137 80.5319C0.974459 80.3671 1.02364 80.1931 1.13262 80.0664C1.36954 79.7907 1.44464 79.7009 10.9907 79.7095C15.9238 79.7106 22.7717 79.7471 31.3442 79.8175C45.9388 79.9381 60.6731 80.1183 60.8203 80.1203C61.1217 80.1239 61.3669 80.3639 61.3778 80.6649C61.3802 80.7246 61.5011 86.7157 53.3433 88.7482C51.636 89.1743 46.5312 89.2969 40.4717 89.2969ZM17.6702 87.9505C19.84 87.9505 22.8978 87.9917 26.3976 88.0388C36.4584 88.174 50.2358 88.3598 53.0698 87.6531C58.9372 86.191 60.0112 82.6058 60.2062 81.243C38.4977 80.9779 6.80267 80.6952 2.23713 80.9248C2.84287 83.2929 4.82394 86.0401 7.40709 86.9277C10.4521 87.974 14.0195 87.9611 17.1662 87.9515C17.3283 87.9512 17.4965 87.9505 17.6702 87.9505Z" fill="#333333"/>
<path d="M54.1469 27.3142C53.9738 25.7904 53.802 24.2336 54.1257 22.7347C54.449 21.2357 55.3622 19.7774 56.7833 19.2119C57.5745 18.8972 60.6138 18.8955 63.5838 18.8955C65.2906 18.8955 66.9198 20.3771 67.3933 22.5726C67.7881 24.4017 67.2093 27.7675 67.2093 27.7675C67.2093 27.7675 58.0858 30.114 54.1469 27.3142Z" fill="#B0DDE4"/>
<path d="M60.0158 29.2547C57.736 29.2547 55.408 28.9039 53.8191 27.7747C53.6885 27.6817 53.6031 27.5375 53.5852 27.378C53.417 25.8983 53.2263 24.2207 53.5725 22.6158C53.9769 20.7427 55.0987 19.274 56.5737 18.6875C57.4064 18.3559 59.8898 18.331 63.5829 18.331C65.5952 18.331 67.4294 20.0648 67.9447 22.4536C68.3577 24.3675 67.7896 27.7216 67.7649 27.8631C67.7274 28.0822 67.5642 28.2592 67.3489 28.3147C67.1144 28.3752 63.6264 29.2547 60.0158 29.2547ZM54.6784 26.9912C58.0221 29.1071 65.0429 27.6844 66.7086 27.3056C66.8405 26.4041 67.1339 24.0525 66.8405 22.6918C66.4364 20.8194 65.0669 19.4607 63.5829 19.4607C60.9555 19.4607 57.6855 19.4607 56.991 19.7369C55.6669 20.2635 54.9276 21.6924 54.6767 22.8539C54.3877 24.1937 54.5229 25.611 54.6784 26.9912Z" fill="#333333"/>
<path d="M69.7817 89.0677C64.6483 89.49 59.2927 89.5342 53.9974 89.2717C50.4878 89.098 47.5178 87.1132 45.9758 84.5062C44.4211 81.8782 43.6069 78.8859 43.1551 75.9628C41.8864 67.7502 43.0527 59.076 48.0519 51.8974C49.5432 49.7561 51.4232 47.2693 50.2101 45.0119C49.7356 44.129 48.8464 43.4538 48.114 42.6998C45.6727 40.1871 45.0075 36.5792 46.4323 33.5813C47.9551 30.3779 54.2639 27.5661 54.2639 27.5661L67.367 27.4604C67.367 27.4604 69.3993 28.143 70.2482 28.5988C74.5871 30.9288 76.6646 34.3443 75.6461 38.546C75.069 40.9275 73.8362 42.236 72.7898 43.28C70.1659 45.8974 71.5571 47.8277 72.6539 49.5039C74.2051 51.8745 76.4346 54.1193 77.4844 60.0565C79.0361 68.8321 80.126 78.6859 75.1836 86.3045C74.1857 87.8426 72.7636 88.8225 69.7817 89.0677Z" fill="white"/>
<path fill-rule="evenodd" clip-rule="evenodd" d="M78.213 76.4056V61.7008C77.3083 60.7575 76.6065 59.651 76.1582 58.4432H44.6607C44.3011 59.1904 43.8193 59.8906 43.2422 60.5279V76.2714C43.372 76.4202 43.5026 76.5684 43.6319 76.7176C43.6645 76.7608 43.6984 76.8017 43.728 76.8468C43.7582 76.8931 43.7827 76.9416 43.8087 76.9897C43.9702 77.2921 44.1569 77.6689 44.3389 78.0514C44.6925 78.573 44.9873 79.1253 45.2205 79.7095H76.2975C76.6497 78.4983 77.3206 77.3768 78.213 76.4056Z" fill="#B0DDE4"/>
<path d="M60.5037 90.0004C58.3635 90.0004 56.1823 89.9455 53.969 89.8356C50.4757 89.6625 47.2263 87.7305 45.4888 84.7939C44.085 82.4208 43.1386 79.5601 42.5964 76.0485C41.5981 69.5868 41.6536 60.0951 47.5879 51.5744L47.8045 51.2641C49.1629 49.3229 50.7023 47.1225 49.7118 45.279C49.4105 44.7187 48.8957 44.2326 48.3511 43.7179C48.1328 43.5116 47.9145 43.3053 47.7085 43.0936C45.0881 40.3965 44.387 36.5676 45.9215 33.3391C47.5154 29.9854 53.7679 27.1684 54.0331 27.0501C54.1042 27.0186 54.181 27.0019 54.2584 27.0012L67.3615 26.8959C67.4251 26.8978 67.4869 26.9052 67.546 26.9255C67.6308 26.9538 69.634 27.6285 70.5149 28.1017C75.2183 30.6271 77.2357 34.3838 76.1949 38.6796C75.6042 41.1162 74.386 42.4858 73.1885 43.68C70.9636 45.8994 71.9693 47.4316 73.0336 49.0534L73.1264 49.1949C73.3815 49.5847 73.6557 49.9715 73.9457 50.3809C75.3712 52.3918 77.1452 54.8949 78.0405 59.9586C79.6989 69.3371 80.5581 79.058 75.6573 86.6122C74.4378 88.4922 72.6937 89.3946 69.8271 89.6309C66.8332 89.8775 63.7155 90.0004 60.5037 90.0004ZM54.3889 28.1299C53.5739 28.5088 48.2544 31.0637 46.9422 33.8242C45.6121 36.6228 46.2311 39.9519 48.5189 42.3071C48.714 42.5074 48.9203 42.7025 49.127 42.8973C49.7131 43.4511 50.3196 44.0236 50.7074 44.7451C52.0271 47.2006 50.1989 49.8133 48.7305 51.9123L48.5153 52.2207C42.7947 60.4347 42.7465 69.6186 43.7131 75.8767C44.2331 79.2431 45.1323 81.9718 46.4614 84.2191C48.0082 86.8331 50.9064 88.5534 54.0251 88.7078C59.5095 88.9796 64.7954 88.9112 69.7351 88.5048C72.8439 88.2493 73.9634 87.1485 74.7099 85.9975C79.3978 78.7713 78.5465 69.3066 76.9283 60.1549C76.077 55.3414 74.4551 53.0531 73.0243 51.0345C72.7279 50.6158 72.4478 50.221 72.1813 49.8136L72.0896 49.6738C71.0031 48.018 69.5145 45.7502 72.391 42.881C73.5195 41.7552 74.5757 40.5669 75.0974 38.4138C76.2618 33.6096 72.9579 30.6955 69.9813 29.0972C69.2811 28.7215 67.6713 28.1622 67.2758 28.027L54.3889 28.1299Z" fill="#333333"/>
<path d="M48.0866 59.2476C47.9838 59.2476 47.9001 59.1653 47.8985 59.0622C47.8969 58.9586 47.9796 58.8729 48.0835 58.8712L74.2208 58.4432H74.2238C74.3265 58.4432 74.4105 58.5256 74.4122 58.6286C74.4138 58.7322 74.3308 58.818 74.2272 58.8197L48.0899 59.2476H48.0866Z" fill="#333333"/>
<path d="M47.5731 80.98C47.4738 80.98 47.3908 80.9026 47.385 80.8019C47.3794 80.6978 47.4592 80.6092 47.5632 80.6038C56.9727 80.0961 66.5231 79.9841 75.948 80.2702C76.052 80.2735 76.1337 80.3602 76.1307 80.4643C76.1274 80.5682 76.036 80.6504 75.9366 80.6467C66.5225 80.3606 56.983 80.4723 47.5835 80.9797C47.5798 80.98 47.5765 80.98 47.5731 80.98Z" fill="#333333"/>
<path d="M47.3483 62.103C47.247 62.103 47.1633 62.0223 47.1602 61.92C47.1576 61.8159 47.2396 61.7295 47.3434 61.7266C49.333 61.6727 51.354 61.6641 53.349 61.7006C53.453 61.7027 53.5357 61.7887 53.5337 61.8927C53.5318 61.9954 53.448 62.0775 53.3457 62.0775H53.342C51.3523 62.0403 49.3373 62.0489 47.3536 62.103H47.3483Z" fill="#333333"/>
<path d="M15.5733 24.649C15.5586 24.649 15.5437 24.6469 15.5287 24.6439C15.4277 24.6194 15.3656 24.5173 15.3901 24.4167C16.0886 21.5294 17.6709 18.8603 19.8453 16.9008C19.9224 16.8303 20.0411 16.8366 20.1112 16.9144C20.1806 16.9915 20.1746 17.1108 20.0976 17.1802C17.979 19.0899 16.4372 21.6913 15.756 24.5051C15.735 24.5915 15.6583 24.649 15.5733 24.649Z" fill="#333333"/>
</g>
</g>
<defs>
<clipPath id="clip0_1754_953">
<rect width="78.75" height="90" fill="white" transform="translate(0.625)"/>
</clipPath>
</defs>
</svg>
