<svg width="84" height="80" viewBox="0 0 84 80" fill="none" xmlns="http://www.w3.org/2000/svg">
<g clip-path="url(#clip0_1754_1069)">
<mask id="mask0_1754_1069" style="mask-type:luminance" maskUnits="userSpaceOnUse" x="0" y="0" width="84" height="80">
<path d="M83.6143 0H0.386719V80H83.6143V0Z" fill="white"/>
</mask>
<g mask="url(#mask0_1754_1069)">
<path d="M78.7359 68.2799C78.7241 68.2799 78.712 68.2796 78.6999 68.2787C78.4226 68.259 78.2134 68.0184 78.2331 67.7408C78.6094 62.4169 78.5313 57.0248 78.0006 51.714C77.973 51.4376 78.1749 51.1906 78.4516 51.163C78.7283 51.1327 78.975 51.3374 79.0026 51.6141C79.5387 56.9816 79.6177 62.4311 79.2375 67.8119C79.2187 68.0771 78.9977 68.2799 78.7359 68.2799Z" fill="#E8E1D6"/>
<path d="M77.1675 75.9621C77.099 75.9621 77.0291 75.9479 76.9625 75.9182C76.7085 75.8047 76.5947 75.5071 76.7079 75.2532C77.2777 73.9772 77.5895 72.5644 77.6097 71.1671C77.6137 70.8889 77.8407 70.6691 78.1204 70.6709C78.3983 70.6751 78.6205 70.9037 78.6163 71.1816C78.5942 72.7143 78.2521 74.2642 77.627 75.6636C77.5434 75.8507 77.36 75.9621 77.1675 75.9621Z" fill="#E8E1D6"/>
<path d="M69.0527 73.2157C69.271 73.886 69.4892 74.5562 69.7075 75.2264C69.9463 75.9596 70.3032 76.8051 71.0567 76.9688C71.479 77.0606 71.9261 76.8947 72.2597 76.6204C72.5933 76.3459 72.8306 75.9732 73.0416 75.5963C73.7591 74.3143 74.2404 72.9006 74.4547 71.4473C73.6967 72.4638 72.939 73.4806 72.181 74.4972C71.8695 74.9152 71.4823 75.3735 70.9614 75.3808C70.4525 75.3878 70.0538 74.9573 69.7623 74.5401C69.5292 74.2065 69.3176 73.8578 69.0527 73.2157Z" fill="#E8E1D6"/>
<path d="M71.2918 77.4971C71.1755 77.4971 71.0611 77.4853 70.9494 77.4611C69.8257 77.2168 69.4074 75.9314 69.2285 75.3826L68.5737 73.3716C68.4898 73.1143 68.6245 72.837 68.8785 72.7435C69.1322 72.6493 69.4149 72.7738 69.5179 73.0241C69.7588 73.609 69.9477 73.9274 70.1742 74.2519C70.4642 74.667 70.7248 74.8774 70.9485 74.8774H70.9537C71.2337 74.8734 71.5146 74.5477 71.7768 74.1962L74.0505 71.1463C74.1882 70.9614 74.4337 70.893 74.6471 70.9823C74.8602 71.0707 74.9859 71.2923 74.9523 71.5205C74.7279 73.0441 74.2327 74.498 73.4808 75.8421C73.2625 76.2323 72.9846 76.6761 72.5793 77.0094C72.1951 77.3254 71.7332 77.4971 71.2918 77.4971ZM70.476 75.8019C70.6476 76.1391 70.8686 76.4127 71.1634 76.4769C71.3968 76.5287 71.6941 76.4336 71.9396 76.2317C72.2151 76.005 72.4209 75.6741 72.602 75.3505C72.8814 74.8513 73.122 74.3358 73.3233 73.8063L72.5841 74.798C72.3041 75.1737 71.7828 75.8727 70.9676 75.8842C70.789 75.8842 70.6267 75.8551 70.476 75.8019Z" fill="#E8E1D6"/>
<path d="M38.5336 78.0735C38.2821 78.0735 38.0296 78.0617 37.7756 78.0368C36.4225 77.9027 35.1834 77.399 33.9278 76.8502C32.301 76.1391 30.5982 75.4477 28.7952 74.7157C23.19 72.4402 17.3942 70.0872 12.9315 66.7669C12.7084 66.601 12.6621 66.2856 12.828 66.0625C12.9939 65.8394 13.3093 65.7931 13.5324 65.959C17.8922 69.2029 23.6275 71.5311 29.1739 73.7827C30.9832 74.5171 32.6918 75.211 34.331 75.9275C35.5098 76.443 36.668 76.9156 37.8746 77.0348C39.3228 77.1789 40.7855 76.8102 42.2825 76.387C42.8195 76.2351 43.4304 76.0643 44.1021 75.8763C48.253 74.7154 54.5262 72.9609 60.3778 70.9711C60.6412 70.8815 60.9269 71.0226 61.0165 71.2856C61.1061 71.5487 60.9651 71.8347 60.702 71.9244C54.8244 73.9229 48.5351 75.682 44.3737 76.8459C43.7025 77.0336 43.0929 77.2044 42.5565 77.3557C41.2124 77.7356 39.8889 78.0735 38.5336 78.0735Z" fill="#E8E1D6"/>
<path d="M63.3938 17.4335C63.3348 17.4335 63.2755 17.4272 63.2155 17.4136C62.7817 17.3158 62.5093 16.8844 62.6074 16.4503C63.7916 11.209 62.532 5.54487 59.2375 1.29925C58.9648 0.947789 59.0286 0.441947 59.3801 0.169197C59.7319 -0.103855 60.2377 -0.0393755 60.5102 0.311778C64.0965 4.93338 65.4678 11.0995 64.1788 16.8054C64.0943 17.1796 63.762 17.4335 63.3938 17.4335Z" fill="#333333"/>
<path d="M68.4299 14.1466C68.3956 14.1466 68.3608 14.1445 68.326 14.14C67.885 14.0833 67.5732 13.6795 67.6301 13.2382C67.8435 11.5799 67.957 9.89161 67.9673 8.21969C67.9782 6.46544 67.8305 4.50594 66.6514 3.27479C66.3438 2.9533 66.3547 2.44352 66.6762 2.13566C66.9974 1.8281 67.5075 1.839 67.815 2.16048C69.401 3.81696 69.5905 6.27412 69.5784 8.22968C69.5678 9.96668 69.4497 11.7209 69.2281 13.444C69.1758 13.8503 68.8291 14.1466 68.4299 14.1466Z" fill="#333333"/>
<path d="M18.0556 37.6966C17.9721 37.6966 17.8873 37.6836 17.8038 37.6558C13.8512 36.3544 10.5279 33.2866 8.91479 29.4503C8.74224 29.0404 8.93507 28.5678 9.34495 28.3953C9.75514 28.2227 10.2273 28.4153 10.3996 28.8255C11.8348 32.2386 14.7911 34.9673 18.3075 36.1255C18.7301 36.2645 18.9599 36.7197 18.8206 37.1423C18.7089 37.4811 18.3941 37.6966 18.0556 37.6966Z" fill="#333333"/>
<path d="M27.2609 67.3524C24.5948 67.3524 22.6129 65.741 22.0934 63.8345C21.613 62.0727 22.3178 59.6304 25.8838 58.5451C27.4897 58.0565 28.7339 57.7944 29.8318 57.5631C31.5416 57.2032 33.0183 56.892 35.3113 55.8355C38.0334 54.5813 39.5549 53.4316 41.0261 52.3197C43.0788 50.7683 44.8518 49.4287 49.0929 48.3877C55.8072 46.74 60.8859 48.1022 65.374 49.8199L65.9392 50.0366C69.4014 51.3655 71.903 52.3264 74.4683 51.852C74.9063 51.7721 75.3259 52.0606 75.4067 52.4977C75.4875 52.9351 75.1984 53.3553 74.761 53.4361C71.7496 53.9919 69.0702 52.9639 65.3619 51.5402L64.7982 51.3241C60.5544 49.7 55.7612 48.4098 49.4771 49.9521C45.5584 50.9139 43.987 52.1014 41.9975 53.6047C40.5296 54.7142 38.8659 55.9714 35.9855 57.2985C33.5277 58.431 31.9687 58.7591 30.1636 59.1393C29.0463 59.3749 27.8908 59.6179 26.3527 60.0862C24.2957 60.7123 23.2592 61.9858 23.6476 63.4104C24.0696 64.9591 26.0267 66.1936 28.5704 65.5791C36.4629 63.6738 41.0512 62.9657 47.9965 61.8932L49.0248 61.7342C49.4643 61.6652 49.876 61.9676 49.9438 62.4072C50.0117 62.847 49.7104 63.2584 49.2709 63.3262L48.242 63.4852C41.337 64.5513 36.775 65.2558 28.9482 67.145C28.3621 67.2864 27.7977 67.3524 27.2609 67.3524Z" fill="#333333"/>
<path d="M37.886 79.9996C37.1979 79.9996 36.5059 79.9557 35.8145 79.8564C31.1608 79.188 20.6992 73.9104 15.1982 70.7406C10.2039 67.8633 7.10771 65.3068 3.52261 62.3468C2.7531 61.7117 1.95756 61.0548 1.11782 60.3737C0.268089 59.6847 0.147304 58.505 0.81722 57.4373C1.98692 55.5735 5.11885 54.481 8.61948 56.1266C11.4499 57.4576 16.5304 60.0244 19.8921 61.7226C21.5035 62.5369 22.7761 63.1799 23.1052 63.3343C23.5078 63.5238 23.6806 64.0036 23.4914 64.4062C23.3022 64.8088 22.8227 64.9817 22.4198 64.7925C22.0702 64.6281 20.852 64.0127 19.1659 63.1605C15.8121 61.4665 10.744 58.9058 7.93413 57.5848C4.94872 56.1808 2.82122 57.2745 2.18187 58.2937C2.0732 58.4669 1.851 58.8943 2.13253 59.1223C2.97802 59.8079 3.7766 60.467 4.54853 61.1045C8.07792 64.0181 11.1257 66.5349 16.0028 69.3448C21.7992 72.6847 31.8492 77.6595 36.044 78.262C39.0194 78.6888 42.1225 77.9511 44.7977 77.226C47.8139 76.4084 50.8635 75.3876 53.8126 74.4002C61.452 71.8428 68.6676 69.4277 74.6191 70.6583C75.0547 70.7485 75.335 71.1744 75.2448 71.6103C75.1546 72.0456 74.7277 72.3259 74.293 72.2357C68.7666 71.0924 61.7514 73.4415 54.3242 75.9277C51.353 76.9224 48.2807 77.9511 45.2193 78.7808C42.9856 79.3866 40.4624 79.9996 37.886 79.9996Z" fill="#333333"/>
<path d="M71.3108 78.4646C69.5943 78.4646 68.4262 76.7682 68.1897 75.1247C67.993 73.7549 67.9003 72.8961 67.8365 71.1252C67.8204 70.6805 68.1679 70.3073 68.6126 70.2915C69.0576 70.2743 69.4306 70.623 69.4466 71.0674C69.5075 72.7644 69.5962 73.5857 69.7845 74.8956C69.9249 75.8725 70.5991 76.8935 71.3634 76.8524C72.3067 76.8039 72.8704 75.3418 73.0689 74.7155C74.7714 69.3452 74.4839 63.5824 74.2057 58.0096C74.0855 55.6009 73.9611 53.1098 73.5003 50.7284C73.3898 50.1562 73.1304 49.7836 73.0223 49.7442C73.0136 49.7506 72.9318 49.7812 72.7278 50.0418C72.1063 50.8373 71.6746 51.7821 71.4803 52.7729C71.3946 53.2094 70.9705 53.4946 70.5346 53.408C70.0981 53.3224 69.8138 52.8992 69.8992 52.4626C70.1423 51.2242 70.6814 50.0442 71.4585 49.0498C71.7273 48.7062 72.1102 48.2957 72.6915 48.1716C73.1253 48.0793 73.5527 48.1619 73.9278 48.4101C74.7418 48.9493 75.0169 50.0866 75.0817 50.4223C75.564 52.9158 75.6911 55.4644 75.8143 57.9294C76.0861 63.3787 76.3946 69.5553 74.6043 75.2025C73.9608 77.2323 72.8392 78.3899 71.4458 78.4616C71.4004 78.4637 71.3556 78.4646 71.3108 78.4646Z" fill="#333333"/>
<path d="M73.0252 49.7863C72.6305 49.7863 72.2857 49.4957 72.2288 49.0934C72.1664 48.6529 72.4728 48.2454 72.9132 48.1828C74.0963 48.0154 75.8653 47.8689 77.5763 47.7269C79.1868 47.5937 80.7079 47.4675 81.6518 47.3337C82.0929 47.2728 82.5 47.5779 82.5621 48.0184C82.6244 48.4589 82.3181 48.8666 81.8773 48.929C80.8868 49.0691 79.3433 49.1969 77.7089 49.3322C76.0209 49.4724 74.2755 49.6168 73.1388 49.7778C73.1003 49.7833 73.0631 49.7863 73.0252 49.7863Z" fill="#333333"/>
<path d="M71.4043 78.4622C70.9908 78.4622 70.639 78.1459 70.6027 77.726C70.5642 77.2828 70.8924 76.8923 71.3355 76.8539C74.6158 76.5702 78.3677 76.424 82.8052 76.4073H82.8083C83.2518 76.4073 83.612 76.7661 83.6138 77.2099C83.6156 77.6545 83.2563 78.0166 82.8113 78.0184C78.4186 78.0348 74.7103 78.1789 71.4745 78.4589C71.4509 78.461 71.4273 78.4622 71.4043 78.4622Z" fill="#333333"/>
<path d="M24.8023 60.6651C24.7139 60.6651 24.624 60.6503 24.5356 60.6194C24.4194 60.5785 21.6686 59.6089 20.224 58.708C16.3211 56.2736 12.1853 54.0655 8.18555 51.9299C6.49335 51.0262 5.04575 51.3659 4.25505 51.9847C3.81308 52.3307 3.56939 52.7744 3.64901 53.089C3.75345 53.5019 4.87562 54.6322 6.39678 55.4638C6.78699 55.6775 6.93048 56.1667 6.71706 56.5569C6.50364 56.9474 6.01384 57.0903 5.62394 56.8772C4.127 56.0586 2.38183 54.6477 2.08728 53.484C1.84662 52.5323 2.29676 51.4715 3.26244 50.716C4.45242 49.7845 6.57024 49.2411 8.94476 50.5089C12.9679 52.657 17.1281 54.878 21.0771 57.3416C22.3703 58.148 25.0427 59.0904 25.0693 59.0997C25.4892 59.2469 25.7099 59.7067 25.5628 60.1266C25.4465 60.458 25.1347 60.6651 24.8023 60.6651Z" fill="#333333"/>
<path d="M30.7199 58.946C30.6617 58.946 30.6027 58.9396 30.5434 58.9263C26.7037 58.0684 23.3235 56.0135 20.0545 54.0268C17.7405 52.6201 15.3475 51.1655 12.8416 50.1762C12.0991 49.8829 11.3235 49.6398 10.6817 49.8393C10.4922 49.8986 10.2062 50.195 10.0551 50.5894C9.94732 50.8709 9.94672 51.1116 10.0018 51.2039C10.2295 51.5863 10.1041 52.0806 9.7218 52.3083C9.33916 52.5356 8.84512 52.4103 8.61748 52.0285C8.29327 51.4839 8.26875 50.7492 8.55058 50.0133C8.87146 49.1751 9.50444 48.5191 10.2019 48.3018C11.3238 47.9515 12.4647 48.2957 13.4328 48.6781C16.0665 49.7179 18.5191 51.2088 20.8909 52.6506C24.1936 54.6583 27.3134 56.5545 30.8942 57.3549C31.3283 57.4517 31.6017 57.8822 31.5048 58.3166C31.421 58.6917 31.0886 58.946 30.7199 58.946Z" fill="#333333"/>
<path d="M35.9991 57.2514C31.1044 57.2478 26.6817 54.7731 23.0015 52.3529L22.5611 52.0622C21.1435 51.1241 19.8042 50.2381 18.297 49.7401C18.0715 49.6653 17.9243 49.6372 17.8596 49.6541C17.7418 49.6856 17.5874 50.0822 17.6304 50.8329C17.6558 51.277 17.3165 51.6578 16.8724 51.6832C16.4274 51.712 16.0478 51.3693 16.0221 50.9252C15.9016 48.8277 16.8612 48.2534 17.4439 48.0978C17.9395 47.9653 18.409 48.0806 18.8028 48.2108C20.5141 48.7762 22.0068 49.764 23.4502 50.7191L23.8867 51.0073C27.368 53.2964 31.5294 55.6373 35.9997 55.641C36.4447 55.6413 36.8049 56.0021 36.8046 56.4471C36.8043 56.8918 36.4438 57.2514 35.9991 57.2514Z" fill="#333333"/>
<path d="M42.9026 36.2393C40.0958 33.292 36.1454 31.6852 32.3859 30.0039C28.6267 28.3226 24.7737 26.3456 22.5155 22.9796C20.2575 19.6137 20.2529 14.4745 23.5716 11.997C25.622 10.4662 28.5193 10.2842 30.908 11.1742C33.2968 12.0639 35.206 13.9026 36.5598 16.008C36.4611 13.8327 37.2857 11.6876 38.4475 9.80987C39.936 7.40447 42.3832 5.17132 45.2505 5.28544C47.4137 5.37172 49.2634 6.77784 50.7152 8.32231C52.0647 9.7578 53.2435 11.4306 53.6225 13.348C54.2282 16.4119 52.7237 19.4835 51.2631 22.2879C48.8005 27.0155 46.3385 31.7421 42.9026 36.2393Z" fill="#E7AEC6"/>
<path d="M42.903 36.7428C42.7656 36.7428 42.6336 36.6865 42.5385 36.5866C40.0239 33.946 36.4945 32.3794 33.0813 30.8643C32.7804 30.7308 32.4801 30.5973 32.181 30.4638C28.5517 28.8406 24.4805 26.8112 22.0981 23.2603C19.769 19.7881 19.6845 14.2714 23.2711 11.5935C25.3347 10.053 28.4019 9.70276 31.0843 10.7023C33.3289 11.5384 34.9821 13.0814 36.1215 14.5254C36.3258 12.9246 36.9616 11.2554 38.0202 9.54444C39.9303 6.45762 42.6396 4.67642 45.2715 4.78177C47.234 4.86017 49.1351 5.90516 51.0828 7.97666C52.7804 9.78237 53.773 11.5073 54.1172 13.2497C54.7835 16.6202 53.0071 20.03 51.7103 22.5199C49.2795 27.1869 46.7657 32.0128 43.3032 36.5445C43.2139 36.6616 43.0777 36.7337 42.9306 36.7416C42.9215 36.7422 42.9121 36.7428 42.903 36.7428ZM27.9378 11.1425C26.4327 11.1425 24.9824 11.572 23.8735 12.4C20.7458 14.7355 20.8627 19.611 22.9345 22.6991C25.1679 26.0284 29.0909 27.9782 32.5921 29.5441C32.8906 29.6773 33.19 29.8105 33.49 29.9437C36.8132 31.4189 40.2433 32.9415 42.8518 35.472C46.0846 31.1416 48.4894 26.5248 50.8176 22.0546C52.3508 19.1109 53.6816 16.2372 53.1297 13.4447C52.8231 11.8929 51.9137 10.33 50.3496 8.66625C48.5914 6.79636 46.9174 5.8546 45.2315 5.7874C42.9648 5.69719 40.5933 7.29978 38.8765 10.0736C37.59 12.1527 36.98 14.1415 37.0636 15.9842C37.0739 16.2115 36.9304 16.4177 36.7133 16.4867C36.4963 16.5557 36.2602 16.4709 36.1369 16.2793C35.1259 14.707 33.3677 12.6264 30.7328 11.6453C29.8256 11.3072 28.8711 11.1425 27.9378 11.1425Z" fill="#E7AEC6"/>
<path d="M42.0071 39.1145C41.8415 39.1145 41.678 39.0634 41.54 38.9656C37.6822 36.2208 33.534 33.8163 29.2109 31.8187C28.762 31.6113 28.307 31.4049 27.8499 31.1972C23.4529 29.2017 18.906 27.1384 16.6232 22.9478C14.7715 19.5483 14.968 15.3066 17.1239 12.142C19.3205 8.91744 23.3875 7.12232 27.2456 7.67841C29.7606 8.04016 32.5608 9.4699 34.3819 11.5605C34.5424 9.63337 35.1451 7.59547 36.5182 6.18722C38.6624 3.98888 41.2654 2.88063 44.0459 2.97326C46.9517 3.07346 49.9498 4.54104 51.8697 6.80295C54.5799 9.99572 55.1299 14.2029 53.5516 19.6642C52.6252 22.8694 50.6467 25.6151 48.7335 28.2705C48.1792 29.0397 47.6065 29.8347 47.074 30.6217C45.3703 33.1404 43.9154 35.8312 42.75 38.6199C42.6555 38.8457 42.4636 39.0164 42.2281 39.0836C42.1554 39.1045 42.0813 39.1145 42.0071 39.1145ZM25.8737 9.19201C23.0003 9.19201 20.0697 10.6796 18.4556 13.0486C16.6644 15.6781 16.4967 19.3464 18.0385 22.1768C20.063 25.8939 24.3601 27.844 28.5158 29.7299C28.9763 29.9388 29.4346 30.1468 29.8869 30.356C33.9975 32.2555 37.9528 34.5153 41.659 37.0805C42.7936 34.5208 44.164 32.0485 45.7399 29.7187C46.2857 28.912 46.8657 28.1071 47.4267 27.3285C49.2596 24.7844 51.1552 22.1538 52.0041 19.2168C53.4408 14.2459 53.0076 10.6326 50.6415 7.84521C49.3595 6.33495 46.939 4.68483 43.9905 4.58281C41.6741 4.50108 39.4906 5.44647 37.6716 7.31152C35.8774 9.15144 35.7121 12.795 36.1664 14.8907C36.1786 14.9409 36.1901 14.9915 36.2007 15.042C36.2933 15.4737 36.0211 15.8993 35.5904 15.9965C35.159 16.0928 34.731 15.8261 34.6292 15.3965C34.6183 15.3502 34.6074 15.303 34.5969 15.2549C33.86 12.2171 30.1133 9.71783 27.0162 9.27223C26.6384 9.21804 26.2567 9.19201 25.8737 9.19201Z" fill="#333333"/>
</g>
</g>
<defs>
<clipPath id="clip0_1754_1069">
<rect width="84" height="80" fill="white"/>
</clipPath>
</defs>
</svg>
