<svg width="198" height="56" viewBox="0 0 198 56" fill="none" xmlns="http://www.w3.org/2000/svg">
<path fill-rule="evenodd" clip-rule="evenodd" d="M31.106 39.0435C30.0429 32.6571 26.5159 26.5864 20.5195 20.8369C23.9635 25.2127 25.8238 30.1202 26.0896 35.5595C23.4928 34.1028 20.7299 33.2165 17.7843 32.8897C20.9182 34.1028 23.5648 36.1189 25.7242 38.9438L25.6411 38.8441C28.4262 41.9847 28.8414 45.9672 26.8869 50.7861C17.7788 51.257 8.71499 52.974 0 55.8377C15.3869 53.4781 50.9722 53.1291 62.2286 55.5497C53.497 52.5919 44.4221 51.0077 35.3084 50.7086C33.3872 45.9285 33.8135 41.9736 36.5819 38.8497L36.4989 38.9494C38.6582 36.1245 41.3048 34.1083 44.4387 32.8953C41.4931 33.2276 38.7302 34.1138 36.1334 35.565C36.3992 30.1258 38.254 25.2182 41.7035 20.8424C35.696 26.5864 32.1691 32.6571 31.106 39.0435ZM41.2605 27.5501C42.3624 27.5501 43.2593 28.4475 43.2593 29.5497C43.2593 30.652 42.3679 31.5493 41.2605 31.5493C40.1587 31.5493 39.2617 30.6575 39.2617 29.5497C39.2617 28.4419 40.1587 27.5501 41.2605 27.5501ZM31.106 23.4513C32.4625 23.4513 33.5588 24.548 33.5588 25.9051C33.5588 27.2621 32.4625 28.3588 31.106 28.3588C29.7495 28.3588 28.6532 27.2621 28.6532 25.9051C28.6532 24.548 29.755 23.4513 31.106 23.4513ZM21.339 28.021C22.4408 28.021 23.3378 28.9183 23.3378 30.0205C23.3378 31.1228 22.4464 32.0201 21.339 32.0201C20.2372 32.0201 19.3457 31.1283 19.3457 30.0205C19.3457 28.9183 20.2372 28.021 21.339 28.021Z" fill="white"/>
<path fill-rule="evenodd" clip-rule="evenodd" d="M31.1068 3.60033C45.7684 3.60033 57.8498 14.9829 59.4222 29.6169C60.3469 38.2632 57.6504 45.1703 52.8389 52.6978C58.4533 47.1145 61.9304 39.3821 61.9304 30.8355C61.9304 13.8087 48.1271 0 31.1068 0C14.0866 0 0.283203 13.8087 0.283203 30.8355C0.283203 39.3821 3.76034 47.1145 9.3747 52.6978C4.56318 45.1703 1.86674 38.2632 2.79139 29.6169C4.36386 14.9885 16.4452 3.60033 31.1068 3.60033Z" fill="white"/>
<path fill-rule="evenodd" clip-rule="evenodd" d="M31.6918 19.4211C35.4845 15.937 35.2686 11.9767 31.0329 7.53442C26.8969 11.8991 26.7584 15.8595 30.6232 19.4044L30.8059 16.5297L31.0218 13.1676L31.3817 16.5186L31.6918 19.4211Z" fill="white"/>
<path fill-rule="evenodd" clip-rule="evenodd" d="M37.8494 19.2456C41.8747 18.8301 43.5967 16.2317 43.0153 11.4392C38.3588 12.2481 36.4099 14.6803 37.185 18.7359L38.6467 17.0073L40.3632 14.9906L39.0177 17.2733L37.8494 19.2456Z" fill="white"/>
<path fill-rule="evenodd" clip-rule="evenodd" d="M23.9185 20.4177C19.4669 19.5868 17.7837 16.5348 18.8745 11.2451C23.9905 12.5689 25.9395 15.4603 24.7103 19.9081L23.2375 17.8476L21.51 15.4437L22.8056 18.1134L23.9185 20.4177Z" fill="white"/>
<path fill-rule="evenodd" clip-rule="evenodd" d="M45.0643 22.6005C48.2812 22.739 49.9312 20.8888 50.0253 17.0554C46.2658 17.1551 44.4608 18.8447 44.5992 22.1241L45.9502 20.9331L47.5282 19.5427L46.2049 21.1824L45.0643 22.6005Z" fill="white"/>
<path fill-rule="evenodd" clip-rule="evenodd" d="M46.5431 28.1834C49.6271 29.8453 52.1242 28.826 54.0344 25.109C50.3081 23.4195 47.7335 24.2171 46.3105 27.491L48.1986 26.9647L50.4078 26.3554L48.3315 27.3359L46.5431 28.1834Z" fill="white"/>
<path fill-rule="evenodd" clip-rule="evenodd" d="M46.4434 33.4394C48.5141 36.126 51.1275 36.2036 54.278 33.672C51.648 30.7084 49.0568 30.3982 46.5098 32.7359L48.3868 33.0184L50.5794 33.3507L48.3591 33.4006L46.4434 33.4394Z" fill="white"/>
<path fill-rule="evenodd" clip-rule="evenodd" d="M42.0234 37.2442C42.9426 40.5347 45.3455 41.5928 49.2435 40.4239C47.9091 36.6681 45.6113 35.3996 42.3557 36.6183L44.0001 37.5877L45.9214 38.7233L43.834 37.9311L42.0234 37.2442Z" fill="white"/>
<path fill-rule="evenodd" clip-rule="evenodd" d="M17.285 23.2262C13.8965 23.3702 12.1524 21.4259 12.0527 17.3765C16.0171 17.4817 17.9218 19.2654 17.7723 22.7166L16.3493 21.4591L14.6827 19.9967L16.078 21.725L17.285 23.2262Z" fill="white"/>
<path fill-rule="evenodd" clip-rule="evenodd" d="M16.1186 28.089C13.0346 29.7675 10.5264 28.7482 8.59961 25.0367C12.3314 23.3306 14.9116 24.1172 16.3457 27.3966L14.4521 26.8758L12.2373 26.272L14.3192 27.247L16.1186 28.089Z" fill="white"/>
<path fill-rule="evenodd" clip-rule="evenodd" d="M16.1738 33.2569C14.0975 35.9435 11.4841 36.0266 8.32812 33.4895C10.9637 30.5259 13.5549 30.2101 16.1019 32.5533L14.2249 32.8359L12.0323 33.1682L14.2525 33.2181L16.1738 33.2569Z" fill="white"/>
<path fill-rule="evenodd" clip-rule="evenodd" d="M20.515 37.3436C19.5958 40.6341 17.1929 41.6921 13.2949 40.5233C14.6293 36.7675 16.9271 35.4989 20.1828 36.7176L18.5383 37.687L16.617 38.8226L18.7044 38.0305L20.515 37.3436Z" fill="white"/>
<path d="M81.863 26.6128C79.523 26.6128 77.6856 26.1188 76.351 25.1308C75.0163 24.1254 74.349 23.0768 74.349 21.9848C74.349 21.6034 74.4616 21.2914 74.687 21.0488C74.9123 20.7888 75.2243 20.6674 75.623 20.6848C75.987 20.7021 76.3076 20.8321 76.585 21.0748C76.8623 21.3001 77.079 21.5861 77.235 21.9328C77.4083 22.2794 77.6163 22.6521 77.859 23.0508C78.119 23.4494 78.3963 23.8221 78.691 24.1688C79.003 24.5154 79.4363 24.8014 79.991 25.0268C80.563 25.2521 81.2303 25.3648 81.993 25.3648C83.0503 25.3648 83.9083 25.0788 84.567 24.5068C85.2256 23.9348 85.555 23.1808 85.555 22.2448C85.555 21.4474 85.3556 20.7888 84.957 20.2688C84.5583 19.7488 84.0383 19.3674 83.397 19.1248C82.773 18.8821 82.071 18.6828 81.291 18.5268C80.5283 18.3534 79.757 18.1628 78.977 17.9548C78.2143 17.7294 77.5123 17.4434 76.871 17.0968C76.247 16.7501 75.7356 16.2214 75.337 15.5108C74.9383 14.8001 74.739 13.9161 74.739 12.8588C74.739 11.3508 75.337 10.1114 76.533 9.14078C77.729 8.15278 79.367 7.65878 81.447 7.65878C83.527 7.65878 85.2083 8.11812 86.491 9.03678C87.791 9.93812 88.4323 10.9348 88.415 12.0268C88.415 12.9108 87.9643 13.3528 87.063 13.3528C86.6816 13.3528 86.3523 13.2488 86.075 13.0408C85.815 12.8154 85.6156 12.5381 85.477 12.2088C85.3383 11.8794 85.1563 11.5241 84.931 11.1428C84.723 10.7441 84.489 10.3801 84.229 10.0508C83.9863 9.72145 83.6136 9.45278 83.111 9.24478C82.6256 9.01945 82.045 8.90678 81.369 8.90678C80.277 8.90678 79.4276 9.20145 78.821 9.79078C78.2143 10.3801 77.911 11.1168 77.911 12.0008C77.911 12.7634 78.1103 13.3961 78.509 13.8988C78.9076 14.3841 79.419 14.7481 80.043 14.9908C80.6843 15.2334 81.3863 15.4501 82.149 15.6408C82.929 15.8141 83.7003 16.0221 84.463 16.2648C85.243 16.4901 85.945 16.7848 86.569 17.1488C87.2103 17.5128 87.7303 18.0501 88.129 18.7608C88.5276 19.4714 88.727 20.3468 88.727 21.3868C88.727 22.9814 88.0596 24.2554 86.725 25.2088C85.3903 26.1448 83.7696 26.6128 81.863 26.6128ZM102.516 23.9088C102.516 24.3594 102.585 24.6974 102.724 24.9228C102.862 25.1481 103.01 25.2781 103.165 25.3128C103.339 25.3301 103.495 25.3821 103.634 25.4688C103.772 25.5381 103.842 25.6681 103.842 25.8588C103.842 26.2921 103.192 26.5088 101.892 26.5088C101.164 26.5088 100.626 26.3614 100.28 26.0668C99.9328 25.7721 99.7682 25.2781 99.7855 24.5848C99.0228 25.9368 97.7228 26.6128 95.8855 26.6128C94.4295 26.6128 93.2595 26.1274 92.3755 25.1568C91.4915 24.1861 91.0495 22.7821 91.0495 20.9448V16.4468C91.0495 16.0481 90.8848 15.6928 90.5555 15.3808C90.2262 15.0514 90.0615 14.8261 90.0615 14.7048V14.6268C90.0615 14.3668 90.2175 14.2108 90.5295 14.1588L93.2595 13.7168C93.8488 13.6301 94.1435 13.7601 94.1435 14.1068L94.0915 21.2308C94.0915 23.9868 94.9582 25.3648 96.6915 25.3648C97.4888 25.3648 98.1475 25.0441 98.6675 24.4028C99.2048 23.7441 99.4735 22.8948 99.4735 21.8548V16.4468C99.4735 16.0481 99.3002 15.6928 98.9535 15.3808C98.6242 15.0514 98.4595 14.8261 98.4595 14.7048V14.6268C98.4595 14.3668 98.6068 14.2108 98.9015 14.1588L101.684 13.7168C102.238 13.6301 102.516 13.7601 102.516 14.1068V23.9088ZM118.225 24.1688C118.242 24.5501 118.398 24.8968 118.693 25.2088C119.005 25.5034 119.161 25.7288 119.161 25.8848V25.9888C119.161 26.2488 118.97 26.3788 118.589 26.3788H114.793C114.411 26.3788 114.221 26.2488 114.221 25.9888V25.8848C114.221 25.7288 114.377 25.5034 114.689 25.2088C115.018 24.8968 115.174 24.5501 115.157 24.1688L114.897 19.1508C114.775 16.2908 113.865 14.8608 112.167 14.8608C111.352 14.8608 110.693 15.1641 110.191 15.7708C109.688 16.3601 109.437 17.1314 109.437 18.0848V24.1948C109.437 24.5761 109.61 24.9141 109.957 25.2088C110.321 25.5034 110.503 25.7288 110.503 25.8848V25.9888C110.503 26.2488 110.312 26.3788 109.931 26.3788H105.901C105.537 26.3788 105.355 26.2488 105.355 25.9888V25.8848C105.355 25.7288 105.528 25.5034 105.875 25.2088C106.221 24.9141 106.395 24.5761 106.395 24.1948V17.2268C106.395 16.8974 106.291 16.6288 106.083 16.4208C105.892 16.2128 105.701 16.0481 105.511 15.9268C105.32 15.7881 105.225 15.6408 105.225 15.4848V15.4068C105.225 15.2334 105.381 15.0774 105.693 14.9388L108.215 13.7168C108.492 13.5954 108.691 13.5868 108.813 13.6908C108.951 13.7774 109.021 13.9421 109.021 14.1848V15.8748C109.385 15.1641 109.913 14.6094 110.607 14.2108C111.3 13.8121 112.089 13.6128 112.973 13.6128C114.307 13.6128 115.434 14.0721 116.353 14.9908C117.271 15.9094 117.791 17.3308 117.913 19.2548L118.225 24.1688ZM133.51 24.1688C133.527 24.5501 133.683 24.8968 133.978 25.2088C134.29 25.5034 134.446 25.7288 134.446 25.8848V25.9888C134.446 26.2488 134.255 26.3788 133.874 26.3788H130.078C129.696 26.3788 129.506 26.2488 129.506 25.9888V25.8848C129.506 25.7288 129.662 25.5034 129.974 25.2088C130.303 24.8968 130.459 24.5501 130.442 24.1688L130.182 19.1508C130.06 16.2908 129.15 14.8608 127.452 14.8608C126.637 14.8608 125.978 15.1641 125.476 15.7708C124.973 16.3601 124.722 17.1314 124.722 18.0848V24.1948C124.722 24.5761 124.895 24.9141 125.242 25.2088C125.606 25.5034 125.788 25.7288 125.788 25.8848V25.9888C125.788 26.2488 125.597 26.3788 125.216 26.3788H121.186C120.822 26.3788 120.64 26.2488 120.64 25.9888V25.8848C120.64 25.7288 120.813 25.5034 121.16 25.2088C121.506 24.9141 121.68 24.5761 121.68 24.1948V17.2268C121.68 16.8974 121.576 16.6288 121.368 16.4208C121.177 16.2128 120.986 16.0481 120.796 15.9268C120.605 15.7881 120.51 15.6408 120.51 15.4848V15.4068C120.51 15.2334 120.666 15.0774 120.978 14.9388L123.5 13.7168C123.777 13.5954 123.976 13.5868 124.098 13.6908C124.236 13.7774 124.306 13.9421 124.306 14.1848V15.8748C124.67 15.1641 125.198 14.6094 125.892 14.2108C126.585 13.8121 127.374 13.6128 128.258 13.6128C129.592 13.6128 130.719 14.0721 131.638 14.9908C132.556 15.9094 133.076 17.3308 133.198 19.2548L133.51 24.1688ZM147.822 13.8728C148.117 13.8728 148.264 13.9941 148.264 14.2368V14.3408C148.264 14.5314 148.099 14.7914 147.77 15.1208C147.441 15.4328 147.189 15.7794 147.016 16.1608L142.102 26.9248C141.79 27.6354 141.521 28.1988 141.296 28.6148C141.088 29.0308 140.776 29.5335 140.36 30.1228C139.961 30.7121 139.502 31.1541 138.982 31.4488C138.462 31.7435 137.899 31.8908 137.292 31.8908C136.269 31.8908 135.429 31.6221 134.77 31.0848C134.111 30.5648 133.782 29.9841 133.782 29.3428C133.782 28.9614 133.895 28.6494 134.12 28.4068C134.345 28.1641 134.657 28.0428 135.056 28.0428C135.437 28.0428 135.749 28.1814 135.992 28.4588C136.235 28.7534 136.399 29.0741 136.486 29.4208C136.59 29.7848 136.746 30.1055 136.954 30.3828C137.162 30.6774 137.431 30.8248 137.76 30.8248C138.661 30.8248 139.632 29.5334 140.672 26.9508L135.602 16.1608C135.411 15.7794 135.143 15.4328 134.796 15.1208C134.449 14.7914 134.276 14.5314 134.276 14.3408V14.2368C134.276 13.9941 134.432 13.8728 134.744 13.8728H138.852C139.147 13.8728 139.294 14.0028 139.294 14.2628V14.3408C139.294 14.4794 139.216 14.6354 139.06 14.8088C138.904 14.9821 138.791 15.1468 138.722 15.3028C138.67 15.4588 138.722 15.7534 138.878 16.1868L142.31 24.0648L145.534 16.4728C145.69 15.9528 145.69 15.5974 145.534 15.4068C145.378 15.1988 145.161 15.0081 144.884 14.8348C144.607 14.6441 144.468 14.4794 144.468 14.3408V14.2628C144.468 14.0028 144.624 13.8728 144.936 13.8728H147.822ZM160.053 24.0128C160.088 24.3941 160.183 24.6974 160.339 24.9228C160.512 25.1308 160.677 25.2608 160.833 25.3128C161.006 25.3648 161.154 25.4341 161.275 25.5208C161.414 25.6074 161.483 25.7201 161.483 25.8588C161.483 26.2921 160.781 26.5088 159.377 26.5088C158.684 26.5088 158.172 26.4048 157.843 26.1968C157.531 25.9714 157.349 25.5554 157.297 24.9488C156.604 26.0581 155.399 26.6128 153.683 26.6128C152.227 26.6128 151.048 26.2748 150.147 25.5988C149.263 24.9054 148.821 23.9348 148.821 22.6868C148.804 21.4561 149.246 20.5028 150.147 19.8268C151.048 19.1334 152.184 18.7868 153.553 18.7868C154.801 18.7868 155.806 19.0814 156.569 19.6708L156.517 19.1508C156.361 17.5561 156.084 16.3948 155.685 15.6668C155.286 14.9388 154.654 14.5748 153.787 14.5748C153.25 14.5748 152.799 14.7394 152.435 15.0688C152.088 15.3981 151.846 15.7621 151.707 16.1608C151.586 16.5421 151.404 16.8974 151.161 17.2268C150.918 17.5561 150.615 17.7208 150.251 17.7208C149.87 17.7208 149.558 17.6168 149.315 17.4088C149.09 17.1834 148.977 16.8888 148.977 16.5248C148.977 15.6928 149.428 14.9994 150.329 14.4448C151.248 13.8901 152.4 13.6128 153.787 13.6128C155.416 13.6128 156.734 14.0981 157.739 15.0688C158.744 16.0221 159.342 17.3394 159.533 19.0208L160.053 24.0128ZM154.541 25.6248C155.252 25.6248 155.824 25.3648 156.257 24.8448C156.708 24.3248 156.916 23.7094 156.881 22.9988L156.803 22.1928C156.751 21.4474 156.5 20.8581 156.049 20.4248C155.598 19.9914 155.026 19.7748 154.333 19.7748C153.605 19.7748 153.016 20.0088 152.565 20.4768C152.114 20.9274 151.889 21.5428 151.889 22.3228C151.889 23.2414 152.132 24.0214 152.617 24.6628C153.12 25.3041 153.761 25.6248 154.541 25.6248ZM164.979 11.7148C164.338 11.7148 163.818 11.5328 163.419 11.1688C163.021 10.8048 162.821 10.3368 162.821 9.76478C162.821 9.19278 163.021 8.72478 163.419 8.36078C163.818 7.99678 164.338 7.81478 164.979 7.81478C165.603 7.81478 166.106 7.99678 166.487 8.36078C166.886 8.72478 167.085 9.19278 167.085 9.76478C167.085 10.3368 166.886 10.8048 166.487 11.1688C166.106 11.5328 165.603 11.7148 164.979 11.7148ZM163.055 26.3528C162.691 26.3528 162.509 26.2228 162.509 25.9628V25.8588C162.509 25.7028 162.665 25.4774 162.977 25.1828C163.307 24.8881 163.471 24.5501 163.471 24.1688V17.3568C163.471 16.9581 163.307 16.5854 162.977 16.2388C162.665 15.8921 162.509 15.6668 162.509 15.5628V15.4848C162.509 15.3461 162.665 15.1901 162.977 15.0168L165.577 13.7168C165.872 13.5954 166.097 13.5868 166.253 13.6908C166.427 13.7774 166.513 13.9334 166.513 14.1588V24.1688C166.513 24.5501 166.687 24.8881 167.033 25.1828C167.397 25.4774 167.579 25.7028 167.579 25.8588V25.9628C167.579 26.2228 167.389 26.3528 167.007 26.3528H163.055ZM181.636 24.1948C181.636 24.5761 181.801 24.9228 182.13 25.2348C182.46 25.5468 182.624 25.7721 182.624 25.9108V25.9888C182.624 26.2314 182.477 26.3528 182.182 26.3528H179.478C179.166 26.3528 178.993 26.1881 178.958 25.8588L178.88 24.9488C178.014 26.0581 176.8 26.6128 175.24 26.6128C173.576 26.6128 172.146 26.0148 170.95 24.8188C169.772 23.6228 169.182 22.0454 169.182 20.0868C169.182 18.1974 169.763 16.6461 170.924 15.4328C172.103 14.2194 173.559 13.6128 175.292 13.6128C176.644 13.6128 177.78 14.0548 178.698 14.9388V10.0508C178.698 9.72145 178.594 9.45278 178.386 9.24478C178.196 9.03678 177.996 8.87212 177.788 8.75078C177.598 8.61212 177.502 8.46478 177.502 8.30878V8.25678C177.502 8.03145 177.658 7.85812 177.97 7.73678L180.726 6.85278C181.333 6.64478 181.636 6.80078 181.636 7.32078V24.1948ZM175.942 25.6248C176.653 25.6248 177.286 25.3301 177.84 24.7408C178.412 24.1514 178.698 23.3281 178.698 22.2708V18.1108C178.698 17.2441 178.369 16.4468 177.71 15.7188C177.052 14.9734 176.28 14.6008 175.396 14.6008C174.426 14.6008 173.646 14.9994 173.056 15.7968C172.467 16.5768 172.164 17.6514 172.146 19.0208C172.112 20.8408 172.441 22.3921 173.134 23.6748C173.845 24.9574 174.781 25.6074 175.942 25.6248Z" fill="white"/>
<path d="M75.766 49.2954L73.7489 42.0227H74.9031L76.32 47.6548H76.3874L77.8612 42.0227H79.0046L80.4783 47.6583H80.5458L81.9592 42.0227H83.1168L81.0962 49.2954H79.9918L78.4613 43.848H78.4045L76.8739 49.2954H75.766ZM84.9174 49.2954V42.0227H89.477V42.9673H86.0147V45.1832H89.2391V46.1242H86.0147V48.3508H89.5196V49.2954H84.9174ZM95.8036 49.2954H94.6388L97.256 42.0227H98.5238L101.141 49.2954H99.9762L97.9201 43.3437H97.8632L95.8036 49.2954ZM95.9989 46.4474H99.7773V47.3707H95.9989V46.4474ZM102.991 49.2954V42.0227H105.584C106.147 42.0227 106.615 42.1197 106.986 42.3139C107.36 42.508 107.64 42.7767 107.824 43.12C108.009 43.4609 108.101 43.8551 108.101 44.3025C108.101 44.7476 108.008 45.1394 107.821 45.4779C107.636 45.8141 107.357 46.0757 106.983 46.2627C106.611 46.4498 106.143 46.5433 105.58 46.5433H103.616V45.5987H105.481C105.836 45.5987 106.124 45.5478 106.347 45.446C106.572 45.3442 106.736 45.1962 106.841 45.0021C106.945 44.808 106.997 44.5748 106.997 44.3025C106.997 44.0279 106.944 43.79 106.837 43.5887C106.733 43.3875 106.568 43.2336 106.343 43.1271C106.121 43.0182 105.829 42.9637 105.466 42.9637H104.088V49.2954H102.991ZM106.581 46.0142L108.378 49.2954H107.128L105.367 46.0142H106.581ZM110.237 49.2954V42.0227H114.796V42.9673H111.334V45.1832H114.558V46.1242H111.334V48.3508H114.839V49.2954H110.237ZM124.475 43.9332C124.437 43.597 124.281 43.3366 124.006 43.1519C123.732 42.9649 123.386 42.8714 122.969 42.8714C122.671 42.8714 122.413 42.9188 122.195 43.0134C121.977 43.1058 121.808 43.2336 121.687 43.397C121.569 43.558 121.51 43.7414 121.51 43.9474C121.51 44.1202 121.55 44.2694 121.631 44.3948C121.713 44.5203 121.821 44.6257 121.954 44.7109C122.089 44.7938 122.233 44.8636 122.387 44.9204C122.541 44.9749 122.689 45.0198 122.831 45.0554L123.541 45.24C123.773 45.2968 124.011 45.3738 124.255 45.4708C124.499 45.5679 124.725 45.6957 124.933 45.8544C125.141 46.013 125.31 46.2095 125.437 46.4438C125.568 46.6782 125.633 46.9588 125.633 47.2855C125.633 47.6974 125.526 48.0632 125.313 48.3828C125.102 48.7024 124.796 48.9545 124.393 49.1392C123.993 49.3238 123.509 49.4161 122.941 49.4161C122.396 49.4161 121.925 49.3297 121.528 49.1569C121.13 48.9841 120.819 48.7391 120.594 48.4218C120.369 48.1022 120.244 47.7234 120.221 47.2855H121.322C121.343 47.5483 121.428 47.7672 121.577 47.9424C121.729 48.1152 121.922 48.2443 122.156 48.3295C122.393 48.4124 122.652 48.4538 122.934 48.4538C123.244 48.4538 123.52 48.4053 123.761 48.3082C124.005 48.2088 124.197 48.0715 124.337 47.8963C124.476 47.7187 124.546 47.5116 124.546 47.2748C124.546 47.0594 124.484 46.883 124.361 46.7457C124.241 46.6084 124.076 46.4947 123.868 46.4048C123.662 46.3148 123.429 46.2355 123.168 46.1669L122.309 45.9325C121.726 45.7739 121.265 45.5407 120.924 45.2329C120.585 44.9251 120.416 44.5179 120.416 44.0113C120.416 43.5923 120.53 43.2265 120.757 42.914C120.984 42.6015 121.292 42.3589 121.68 42.186C122.069 42.0108 122.506 41.9233 122.994 41.9233C123.487 41.9233 123.921 42.0097 124.297 42.1825C124.676 42.3553 124.975 42.5932 125.192 42.8963C125.41 43.1969 125.524 43.5426 125.533 43.9332H124.475ZM128.841 42.0227V49.2954H127.744V42.0227H128.841ZM137.109 42.0227V49.2954H136.101L132.404 43.9616H132.337V49.2954H131.239V42.0227H132.255L135.955 47.3636H136.023V42.0227H137.109ZM145.55 44.3877H144.442C144.4 44.151 144.321 43.9427 144.205 43.7627C144.089 43.5828 143.946 43.4301 143.778 43.3046C143.61 43.1792 143.422 43.0845 143.214 43.0206C143.008 42.9566 142.789 42.9247 142.557 42.9247C142.138 42.9247 141.763 43.03 141.431 43.2407C141.102 43.4514 140.842 43.7604 140.65 44.1676C140.46 44.5748 140.366 45.0719 140.366 45.659C140.366 46.2509 140.46 46.7504 140.65 47.1576C140.842 47.5648 141.103 47.8726 141.435 48.0809C141.766 48.2893 142.139 48.3934 142.553 48.3934C142.783 48.3934 143.001 48.3626 143.207 48.3011C143.415 48.2372 143.603 48.1437 143.771 48.0206C143.939 47.8974 144.081 47.7471 144.197 47.5696C144.316 47.3896 144.397 47.1837 144.442 46.9517L145.55 46.9552C145.491 47.3127 145.376 47.6418 145.206 47.9424C145.038 48.2407 144.821 48.4988 144.556 48.7166C144.293 48.932 143.993 49.0989 143.654 49.2173C143.316 49.3357 142.946 49.3948 142.546 49.3948C141.916 49.3948 141.355 49.2457 140.863 48.9474C140.371 48.6467 139.982 48.217 139.698 47.6583C139.416 47.0996 139.276 46.4332 139.276 45.659C139.276 44.8825 139.418 44.2161 139.702 43.6598C139.986 43.101 140.374 42.6725 140.866 42.3742C141.359 42.0736 141.919 41.9233 142.546 41.9233C142.932 41.9233 143.292 41.9789 143.626 42.0902C143.962 42.1991 144.264 42.36 144.531 42.5731C144.799 42.7838 145.02 43.0419 145.195 43.3473C145.371 43.6503 145.489 43.9971 145.55 44.3877ZM147.663 49.2954V42.0227H152.223V42.9673H148.761V45.1832H151.985V46.1242H148.761V48.3508H152.266V49.2954H147.663ZM160.595 42.0227V49.2954H159.494V43.1235H159.452L157.712 44.2599V43.2088L159.526 42.0227H160.595ZM165.781 41.9233C166.105 41.9256 166.425 41.9848 166.74 42.1008C167.054 42.2168 167.339 42.4062 167.592 42.669C167.848 42.9318 168.051 43.2869 168.203 43.7343C168.357 44.1794 168.435 44.7334 168.437 45.3963C168.437 46.0331 168.373 46.6001 168.245 47.0973C168.117 47.592 167.934 48.0099 167.695 48.3508C167.458 48.6917 167.17 48.9509 166.832 49.1285C166.493 49.3061 166.112 49.3948 165.688 49.3948C165.255 49.3948 164.871 49.3096 164.534 49.1392C164.198 48.9687 163.925 48.7331 163.714 48.4325C163.503 48.1295 163.372 47.7814 163.32 47.3884H164.403C164.474 47.7009 164.618 47.9543 164.836 48.1484C165.056 48.3402 165.34 48.436 165.688 48.436C166.221 48.436 166.637 48.204 166.935 47.74C167.233 47.2736 167.384 46.6226 167.386 45.7869H167.329C167.206 45.9905 167.052 46.1657 166.867 46.3125C166.685 46.4592 166.48 46.5729 166.253 46.6534C166.026 46.7339 165.783 46.7741 165.525 46.7741C165.106 46.7741 164.725 46.6711 164.382 46.4652C164.038 46.2592 163.765 45.9763 163.561 45.6164C163.358 45.2566 163.256 44.8458 163.256 44.3842C163.256 43.9249 163.36 43.5082 163.568 43.1342C163.779 42.7601 164.073 42.4642 164.449 42.2464C164.828 42.0262 165.272 41.9185 165.781 41.9233ZM165.784 42.8465C165.507 42.8465 165.258 42.9152 165.035 43.0525C164.815 43.1875 164.641 43.3709 164.513 43.6029C164.385 43.8326 164.321 44.0883 164.321 44.37C164.321 44.6517 164.383 44.9074 164.506 45.137C164.631 45.3643 164.802 45.5454 165.017 45.6804C165.235 45.8129 165.484 45.8792 165.763 45.8792C165.971 45.8792 166.165 45.839 166.345 45.7585C166.525 45.678 166.683 45.5667 166.818 45.4247C166.953 45.2803 167.058 45.1169 167.134 44.9346C167.21 44.7523 167.247 44.5606 167.247 44.3593C167.247 44.0918 167.183 43.8432 167.056 43.6136C166.93 43.384 166.757 43.1993 166.537 43.0596C166.317 42.9176 166.066 42.8465 165.784 42.8465ZM172.977 49.3948C172.468 49.3948 172.018 49.3072 171.628 49.1321C171.24 48.9569 170.935 48.7154 170.715 48.4076C170.495 48.0999 170.386 47.7495 170.388 47.3565C170.386 47.0487 170.449 46.7658 170.577 46.5078C170.707 46.2474 170.883 46.0307 171.106 45.8579C171.328 45.6827 171.577 45.5715 171.852 45.5241V45.4815C171.489 45.3939 171.199 45.1998 170.982 44.8991C170.764 44.5984 170.656 44.2528 170.658 43.8622C170.656 43.4905 170.754 43.159 170.953 42.8679C171.154 42.5743 171.43 42.3435 171.781 42.1754C172.131 42.0073 172.53 41.9233 172.977 41.9233C173.42 41.9233 173.815 42.0085 174.163 42.1789C174.514 42.347 174.79 42.5778 174.991 42.8714C175.192 43.1626 175.294 43.4929 175.296 43.8622C175.294 44.2528 175.183 44.5984 174.962 44.8991C174.742 45.1998 174.456 45.3939 174.103 45.4815V45.5241C174.375 45.5715 174.62 45.6827 174.838 45.8579C175.058 46.0307 175.233 46.2474 175.364 46.5078C175.496 46.7658 175.564 47.0487 175.566 47.3565C175.564 47.7495 175.452 48.0999 175.232 48.4076C175.012 48.7154 174.707 48.9569 174.316 49.1321C173.928 49.3072 173.482 49.3948 172.977 49.3948ZM172.977 48.4964C173.278 48.4964 173.538 48.4467 173.759 48.3473C173.979 48.2455 174.149 48.1046 174.27 47.9247C174.391 47.7424 174.452 47.5293 174.455 47.2855C174.452 47.0322 174.386 46.8084 174.256 46.6143C174.128 46.4202 173.954 46.2675 173.734 46.1562C173.513 46.0449 173.261 45.9893 172.977 45.9893C172.691 45.9893 172.436 46.0449 172.214 46.1562C171.991 46.2675 171.816 46.4202 171.688 46.6143C171.56 46.8084 171.498 47.0322 171.5 47.2855C171.498 47.5293 171.556 47.7424 171.674 47.9247C171.795 48.1046 171.966 48.2455 172.189 48.3473C172.411 48.4467 172.674 48.4964 172.977 48.4964ZM172.977 45.1122C173.219 45.1122 173.433 45.0636 173.62 44.9666C173.807 44.8695 173.954 44.7346 174.06 44.5617C174.169 44.3889 174.225 44.1865 174.227 43.9545C174.225 43.7272 174.17 43.5284 174.064 43.3579C173.96 43.1875 173.814 43.0561 173.627 42.9637C173.44 42.869 173.223 42.8217 172.977 42.8217C172.726 42.8217 172.506 42.869 172.317 42.9637C172.13 43.0561 171.984 43.1875 171.88 43.3579C171.776 43.5284 171.725 43.7272 171.727 43.9545C171.725 44.1865 171.777 44.3889 171.884 44.5617C171.99 44.7346 172.137 44.8695 172.324 44.9666C172.513 45.0636 172.731 45.1122 172.977 45.1122ZM180.096 49.3948C179.587 49.3948 179.137 49.3072 178.746 49.1321C178.358 48.9569 178.054 48.7154 177.834 48.4076C177.613 48.0999 177.504 47.7495 177.507 47.3565C177.504 47.0487 177.567 46.7658 177.695 46.5078C177.825 46.2474 178.002 46.0307 178.224 45.8579C178.447 45.6827 178.695 45.5715 178.97 45.5241V45.4815C178.608 45.3939 178.318 45.1998 178.1 44.8991C177.882 44.5984 177.774 44.2528 177.777 43.8622C177.774 43.4905 177.873 43.159 178.071 42.8679C178.273 42.5743 178.549 42.3435 178.899 42.1754C179.249 42.0073 179.648 41.9233 180.096 41.9233C180.538 41.9233 180.934 42.0085 181.282 42.1789C181.632 42.347 181.908 42.5778 182.109 42.8714C182.31 43.1626 182.412 43.4929 182.415 43.8622C182.412 44.2528 182.301 44.5984 182.081 44.8991C181.861 45.1998 181.574 45.3939 181.221 45.4815V45.5241C181.494 45.5715 181.739 45.6827 181.956 45.8579C182.177 46.0307 182.352 46.2474 182.482 46.5078C182.615 46.7658 182.682 47.0487 182.684 47.3565C182.682 47.7495 182.571 48.0999 182.351 48.4076C182.13 48.7154 181.825 48.9569 181.434 49.1321C181.046 49.3072 180.6 49.3948 180.096 49.3948ZM180.096 48.4964C180.396 48.4964 180.657 48.4467 180.877 48.3473C181.097 48.2455 181.268 48.1046 181.388 47.9247C181.509 47.7424 181.571 47.5293 181.573 47.2855C181.571 47.0322 181.504 46.8084 181.374 46.6143C181.246 46.4202 181.072 46.2675 180.852 46.1562C180.632 46.0449 180.38 45.9893 180.096 45.9893C179.809 45.9893 179.555 46.0449 179.332 46.1562C179.11 46.2675 178.934 46.4202 178.807 46.6143C178.679 46.8084 178.616 47.0322 178.618 47.2855C178.616 47.5293 178.674 47.7424 178.792 47.9247C178.913 48.1046 179.085 48.2455 179.307 48.3473C179.53 48.4467 179.793 48.4964 180.096 48.4964ZM180.096 45.1122C180.337 45.1122 180.551 45.0636 180.738 44.9666C180.925 44.8695 181.072 44.7346 181.179 44.5617C181.288 44.3889 181.343 44.1865 181.346 43.9545C181.343 43.7272 181.289 43.5284 181.182 43.3579C181.078 43.1875 180.933 43.0561 180.745 42.9637C180.558 42.869 180.342 42.8217 180.096 42.8217C179.845 42.8217 179.625 42.869 179.435 42.9637C179.248 43.0561 179.103 43.1875 178.998 43.3579C178.894 43.5284 178.843 43.7272 178.846 43.9545C178.843 44.1865 178.895 44.3889 179.002 44.5617C179.108 44.7346 179.255 44.8695 179.442 44.9666C179.632 45.0636 179.849 45.1122 180.096 45.1122Z" fill="#5D6A83"/>
</svg>
