<svg width="175" height="50" viewBox="0 0 175 50" fill="none" xmlns="http://www.w3.org/2000/svg">
<path fill-rule="evenodd" clip-rule="evenodd" d="M27.4927 34.4947C26.5531 28.8523 23.4358 23.4888 18.136 18.4092C21.1798 22.2752 22.8241 26.611 23.059 31.4166C20.7639 30.1295 18.3219 29.3465 15.7185 29.0578C18.4883 30.1295 20.8275 31.9108 22.736 34.4066L22.6626 34.3185C25.1241 37.0932 25.4911 40.6118 23.7637 44.8693C15.7136 45.2852 7.70264 46.8023 0 49.3323C13.5995 47.2476 45.0512 46.9393 55 49.0778C47.2827 46.4646 39.2619 45.065 31.207 44.8008C29.5088 40.5775 29.8857 37.0834 32.3325 34.3234L32.2591 34.4115C34.1676 31.9157 36.5068 30.1344 39.2766 29.0627C36.6732 29.3563 34.2312 30.1393 31.9361 31.4215C32.171 26.6159 33.8104 22.2801 36.8591 18.4141C31.5495 23.4888 28.4322 28.8523 27.4927 34.4947ZM36.4677 24.3403C37.4415 24.3403 38.2343 25.1331 38.2343 26.1069C38.2343 27.0808 37.4464 27.8735 36.4677 27.8735C35.4938 27.8735 34.701 27.0857 34.701 26.1069C34.701 25.1282 35.4938 24.3403 36.4677 24.3403ZM27.4927 20.719C28.6916 20.719 29.6606 21.6879 29.6606 22.8869C29.6606 24.0858 28.6916 25.0548 27.4927 25.0548C26.2937 25.0548 25.3248 24.0858 25.3248 22.8869C25.3248 21.6879 26.2986 20.719 27.4927 20.719ZM18.8602 24.7563C19.8341 24.7563 20.6268 25.549 20.6268 26.5229C20.6268 27.4967 19.839 28.2895 18.8602 28.2895C17.8864 28.2895 17.0985 27.5016 17.0985 26.5229C17.0985 25.549 17.8864 24.7563 18.8602 24.7563Z" fill="#06083C"/>
<path fill-rule="evenodd" clip-rule="evenodd" d="M27.4931 3.18089C40.4515 3.18089 51.1295 13.2374 52.5193 26.1665C53.3366 33.8055 50.9534 39.9079 46.7008 46.5584C51.6629 41.6256 54.7362 34.794 54.7362 27.2431C54.7362 12.1999 42.5362 0 27.4931 0C12.4499 0 0.25 12.1999 0.25 27.2431C0.25 34.794 3.32323 41.6256 8.28541 46.5584C4.03281 39.9079 1.64959 33.8055 2.46683 26.1665C3.85664 13.2423 14.5346 3.18089 27.4931 3.18089Z" fill="#1140C0"/>
<path fill-rule="evenodd" clip-rule="evenodd" d="M28.0112 17.1581C31.3633 14.08 31.1725 10.581 27.4288 6.65625C23.7733 10.5125 23.6509 14.0114 27.0667 17.1434L27.2282 14.6036L27.419 11.6331L27.7371 14.5938L28.0112 17.1581Z" fill="#06083C"/>
<path fill-rule="evenodd" clip-rule="evenodd" d="M33.4532 17.0016C37.0109 16.6346 38.5329 14.3395 38.019 10.1064C33.9034 10.8209 32.1809 12.9692 32.866 16.5514L34.1579 15.0246L35.675 13.2433L34.4858 15.2595L33.4532 17.0016Z" fill="#06083C"/>
<path fill-rule="evenodd" clip-rule="evenodd" d="M21.1408 18.0385C17.2063 17.3044 15.7186 14.608 16.6827 9.93457C21.2044 11.1042 22.927 13.6587 21.8406 17.5883L20.5389 15.7678L19.012 13.644L20.1572 16.0027L21.1408 18.0385Z" fill="#06083C"/>
<path fill-rule="evenodd" clip-rule="evenodd" d="M39.8296 19.9669C42.6728 20.0893 44.1311 18.4548 44.2143 15.0684C40.8915 15.1564 39.2962 16.649 39.4185 19.5461L40.6126 18.4939L42.0073 17.2656L40.8377 18.7141L39.8296 19.9669Z" fill="#06083C"/>
<path fill-rule="evenodd" clip-rule="evenodd" d="M41.1363 24.8996C43.8621 26.3677 46.0691 25.4673 47.7575 22.1836C44.464 20.6911 42.1885 21.3958 40.9308 24.2879L42.5995 23.823L44.5521 23.2847L42.717 24.1509L41.1363 24.8996Z" fill="#06083C"/>
<path fill-rule="evenodd" clip-rule="evenodd" d="M41.0481 29.5432C42.8783 31.9166 45.1881 31.9851 47.9726 29.7487C45.6482 27.1306 43.3579 26.8565 41.1068 28.9217L42.7658 29.1712L44.7037 29.4649L42.7413 29.5089L41.0481 29.5432Z" fill="#06083C"/>
<path fill-rule="evenodd" clip-rule="evenodd" d="M37.1427 32.9047C37.955 35.8115 40.0789 36.7462 43.524 35.7136C42.3447 32.3957 40.3138 31.2751 37.4363 32.3517L38.8897 33.2081L40.5878 34.2113L38.7429 33.5115L37.1427 32.9047Z" fill="#06083C"/>
<path fill-rule="evenodd" clip-rule="evenodd" d="M15.2778 20.5198C12.2829 20.647 10.7414 18.9293 10.6533 15.3521C14.1572 15.445 15.8406 17.0208 15.7085 20.0696L14.4508 18.9587L12.9778 17.6668L14.211 19.1936L15.2778 20.5198Z" fill="#06083C"/>
<path fill-rule="evenodd" clip-rule="evenodd" d="M14.2457 24.8158C11.5199 26.2986 9.3031 25.3982 7.6001 22.1194C10.8984 20.6122 13.1789 21.3071 14.4464 24.2041L12.7727 23.7441L10.8152 23.2107L12.6553 24.072L14.2457 24.8158Z" fill="#06083C"/>
<path fill-rule="evenodd" clip-rule="evenodd" d="M14.2943 29.3816C12.4592 31.755 10.1494 31.8284 7.35999 29.5871C9.68937 26.969 11.9796 26.6901 14.2307 28.7601L12.5717 29.0097L10.6339 29.3033L12.5962 29.3473L14.2943 29.3816Z" fill="#06083C"/>
<path fill-rule="evenodd" clip-rule="evenodd" d="M18.1311 32.9926C17.3188 35.8994 15.1949 36.8341 11.7498 35.8015C12.9291 32.4836 14.96 31.363 17.8375 32.4396L16.3841 33.296L14.686 34.2992L16.5309 33.5994L18.1311 32.9926Z" fill="#06083C"/>
<path d="M73.32 27.26C70.98 27.26 69.1427 26.766 67.808 25.778C66.4733 24.7727 65.806 23.724 65.806 22.632C65.806 22.2507 65.9187 21.9387 66.144 21.696C66.3693 21.436 66.6813 21.3147 67.08 21.332C67.444 21.3493 67.7647 21.4793 68.042 21.722C68.3193 21.9473 68.536 22.2333 68.692 22.58C68.8653 22.9267 69.0733 23.2993 69.316 23.698C69.576 24.0967 69.8533 24.4693 70.148 24.816C70.46 25.1627 70.8933 25.4487 71.448 25.674C72.02 25.8993 72.6873 26.012 73.45 26.012C74.5073 26.012 75.3653 25.726 76.024 25.154C76.6827 24.582 77.012 23.828 77.012 22.892C77.012 22.0947 76.8127 21.436 76.414 20.916C76.0153 20.396 75.4953 20.0147 74.854 19.772C74.23 19.5293 73.528 19.33 72.748 19.174C71.9853 19.0007 71.214 18.81 70.434 18.602C69.6713 18.3767 68.9693 18.0907 68.328 17.744C67.704 17.3973 67.1927 16.8687 66.794 16.158C66.3953 15.4473 66.196 14.5633 66.196 13.506C66.196 11.998 66.794 10.7587 67.99 9.788C69.186 8.8 70.824 8.306 72.904 8.306C74.984 8.306 76.6653 8.76533 77.948 9.684C79.248 10.5853 79.8893 11.582 79.872 12.674C79.872 13.558 79.4213 14 78.52 14C78.1387 14 77.8093 13.896 77.532 13.688C77.272 13.4627 77.0727 13.1853 76.934 12.856C76.7953 12.5267 76.6133 12.1713 76.388 11.79C76.18 11.3913 75.946 11.0273 75.686 10.698C75.4433 10.3687 75.0707 10.1 74.568 9.892C74.0827 9.66667 73.502 9.554 72.826 9.554C71.734 9.554 70.8847 9.84867 70.278 10.438C69.6713 11.0273 69.368 11.764 69.368 12.648C69.368 13.4107 69.5673 14.0433 69.966 14.546C70.3647 15.0313 70.876 15.3953 71.5 15.638C72.1413 15.8807 72.8433 16.0973 73.606 16.288C74.386 16.4613 75.1573 16.6693 75.92 16.912C76.7 17.1373 77.402 17.432 78.026 17.796C78.6673 18.16 79.1873 18.6973 79.586 19.408C79.9847 20.1187 80.184 20.994 80.184 22.034C80.184 23.6287 79.5167 24.9027 78.182 25.856C76.8473 26.792 75.2267 27.26 73.32 27.26ZM93.9725 24.556C93.9725 25.0067 94.0419 25.3447 94.1805 25.57C94.3192 25.7953 94.4665 25.9253 94.6225 25.96C94.7959 25.9773 94.9519 26.0293 95.0905 26.116C95.2292 26.1853 95.2985 26.3153 95.2985 26.506C95.2985 26.9393 94.6485 27.156 93.3485 27.156C92.6205 27.156 92.0832 27.0087 91.7365 26.714C91.3899 26.4193 91.2252 25.9253 91.2425 25.232C90.4799 26.584 89.1799 27.26 87.3425 27.26C85.8865 27.26 84.7165 26.7747 83.8325 25.804C82.9485 24.8333 82.5065 23.4293 82.5065 21.592V17.094C82.5065 16.6953 82.3419 16.34 82.0125 16.028C81.6832 15.6987 81.5185 15.4733 81.5185 15.352V15.274C81.5185 15.014 81.6745 14.858 81.9865 14.806L84.7165 14.364C85.3059 14.2773 85.6005 14.4073 85.6005 14.754L85.5485 21.878C85.5485 24.634 86.4152 26.012 88.1485 26.012C88.9459 26.012 89.6045 25.6913 90.1245 25.05C90.6619 24.3913 90.9305 23.542 90.9305 22.502V17.094C90.9305 16.6953 90.7572 16.34 90.4105 16.028C90.0812 15.6987 89.9165 15.4733 89.9165 15.352V15.274C89.9165 15.014 90.0639 14.858 90.3585 14.806L93.1405 14.364C93.6952 14.2773 93.9725 14.4073 93.9725 14.754V24.556ZM109.682 24.816C109.699 25.1973 109.855 25.544 110.15 25.856C110.462 26.1507 110.618 26.376 110.618 26.532V26.636C110.618 26.896 110.427 27.026 110.046 27.026H106.25C105.868 27.026 105.678 26.896 105.678 26.636V26.532C105.678 26.376 105.834 26.1507 106.146 25.856C106.475 25.544 106.631 25.1973 106.614 24.816L106.354 19.798C106.232 16.938 105.322 15.508 103.624 15.508C102.809 15.508 102.15 15.8113 101.648 16.418C101.145 17.0073 100.894 17.7787 100.894 18.732V24.842C100.894 25.2233 101.067 25.5613 101.414 25.856C101.778 26.1507 101.96 26.376 101.96 26.532V26.636C101.96 26.896 101.769 27.026 101.388 27.026H97.3576C96.9936 27.026 96.8116 26.896 96.8116 26.636V26.532C96.8116 26.376 96.9849 26.1507 97.3316 25.856C97.6783 25.5613 97.8516 25.2233 97.8516 24.842V17.874C97.8516 17.5447 97.7476 17.276 97.5396 17.068C97.3489 16.86 97.1583 16.6953 96.9676 16.574C96.7769 16.4353 96.6816 16.288 96.6816 16.132V16.054C96.6816 15.8807 96.8376 15.7247 97.1496 15.586L99.6716 14.364C99.9489 14.2427 100.148 14.234 100.27 14.338C100.408 14.4247 100.478 14.5893 100.478 14.832V16.522C100.842 15.8113 101.37 15.2567 102.064 14.858C102.757 14.4593 103.546 14.26 104.43 14.26C105.764 14.26 106.891 14.7193 107.81 15.638C108.728 16.5567 109.248 17.978 109.37 19.902L109.682 24.816ZM124.967 24.816C124.984 25.1973 125.14 25.544 125.435 25.856C125.747 26.1507 125.903 26.376 125.903 26.532V26.636C125.903 26.896 125.712 27.026 125.331 27.026H121.535C121.153 27.026 120.963 26.896 120.963 26.636V26.532C120.963 26.376 121.119 26.1507 121.431 25.856C121.76 25.544 121.916 25.1973 121.899 24.816L121.639 19.798C121.517 16.938 120.607 15.508 118.909 15.508C118.094 15.508 117.435 15.8113 116.933 16.418C116.43 17.0073 116.179 17.7787 116.179 18.732V24.842C116.179 25.2233 116.352 25.5613 116.699 25.856C117.063 26.1507 117.245 26.376 117.245 26.532V26.636C117.245 26.896 117.054 27.026 116.673 27.026H112.643C112.279 27.026 112.097 26.896 112.097 26.636V26.532C112.097 26.376 112.27 26.1507 112.617 25.856C112.963 25.5613 113.137 25.2233 113.137 24.842V17.874C113.137 17.5447 113.033 17.276 112.825 17.068C112.634 16.86 112.443 16.6953 112.253 16.574C112.062 16.4353 111.967 16.288 111.967 16.132V16.054C111.967 15.8807 112.123 15.7247 112.435 15.586L114.957 14.364C115.234 14.2427 115.433 14.234 115.555 14.338C115.693 14.4247 115.763 14.5893 115.763 14.832V16.522C116.127 15.8113 116.655 15.2567 117.349 14.858C118.042 14.4593 118.831 14.26 119.715 14.26C121.049 14.26 122.176 14.7193 123.095 15.638C124.013 16.5567 124.533 17.978 124.655 19.902L124.967 24.816ZM139.279 14.52C139.574 14.52 139.721 14.6413 139.721 14.884V14.988C139.721 15.1787 139.556 15.4387 139.227 15.768C138.898 16.08 138.646 16.4267 138.473 16.808L133.559 27.572C133.247 28.2827 132.978 28.846 132.753 29.262C132.545 29.678 132.233 30.1807 131.817 30.77C131.418 31.3593 130.959 31.8013 130.439 32.096C129.919 32.3907 129.356 32.538 128.749 32.538C127.726 32.538 126.886 32.2693 126.227 31.732C125.568 31.212 125.239 30.6313 125.239 29.99C125.239 29.6087 125.352 29.2967 125.577 29.054C125.802 28.8113 126.114 28.69 126.513 28.69C126.894 28.69 127.206 28.8287 127.449 29.106C127.692 29.4007 127.856 29.7213 127.943 30.068C128.047 30.432 128.203 30.7527 128.411 31.03C128.619 31.3247 128.888 31.472 129.217 31.472C130.118 31.472 131.089 30.1807 132.129 27.598L127.059 16.808C126.868 16.4267 126.6 16.08 126.253 15.768C125.906 15.4387 125.733 15.1787 125.733 14.988V14.884C125.733 14.6413 125.889 14.52 126.201 14.52H130.309C130.604 14.52 130.751 14.65 130.751 14.91V14.988C130.751 15.1267 130.673 15.2827 130.517 15.456C130.361 15.6293 130.248 15.794 130.179 15.95C130.127 16.106 130.179 16.4007 130.335 16.834L133.767 24.712L136.991 17.12C137.147 16.6 137.147 16.2447 136.991 16.054C136.835 15.846 136.618 15.6553 136.341 15.482C136.064 15.2913 135.925 15.1267 135.925 14.988V14.91C135.925 14.65 136.081 14.52 136.393 14.52H139.279ZM151.51 24.66C151.545 25.0413 151.64 25.3447 151.796 25.57C151.969 25.778 152.134 25.908 152.29 25.96C152.463 26.012 152.611 26.0813 152.732 26.168C152.871 26.2547 152.94 26.3673 152.94 26.506C152.94 26.9393 152.238 27.156 150.834 27.156C150.141 27.156 149.629 27.052 149.3 26.844C148.988 26.6187 148.806 26.2027 148.754 25.596C148.061 26.7053 146.856 27.26 145.14 27.26C143.684 27.26 142.505 26.922 141.604 26.246C140.72 25.5527 140.278 24.582 140.278 23.334C140.261 22.1033 140.703 21.15 141.604 20.474C142.505 19.7807 143.641 19.434 145.01 19.434C146.258 19.434 147.263 19.7287 148.026 20.318L147.974 19.798C147.818 18.2033 147.541 17.042 147.142 16.314C146.743 15.586 146.111 15.222 145.244 15.222C144.707 15.222 144.256 15.3867 143.892 15.716C143.545 16.0453 143.303 16.4093 143.164 16.808C143.043 17.1893 142.861 17.5447 142.618 17.874C142.375 18.2033 142.072 18.368 141.708 18.368C141.327 18.368 141.015 18.264 140.772 18.056C140.547 17.8307 140.434 17.536 140.434 17.172C140.434 16.34 140.885 15.6467 141.786 15.092C142.705 14.5373 143.857 14.26 145.244 14.26C146.873 14.26 148.191 14.7453 149.196 15.716C150.201 16.6693 150.799 17.9867 150.99 19.668L151.51 24.66ZM145.998 26.272C146.709 26.272 147.281 26.012 147.714 25.492C148.165 24.972 148.373 24.3567 148.338 23.646L148.26 22.84C148.208 22.0947 147.957 21.5053 147.506 21.072C147.055 20.6387 146.483 20.422 145.79 20.422C145.062 20.422 144.473 20.656 144.022 21.124C143.571 21.5747 143.346 22.19 143.346 22.97C143.346 23.8887 143.589 24.6687 144.074 25.31C144.577 25.9513 145.218 26.272 145.998 26.272ZM156.437 12.362C155.795 12.362 155.275 12.18 154.877 11.816C154.478 11.452 154.279 10.984 154.279 10.412C154.279 9.84 154.478 9.372 154.877 9.008C155.275 8.644 155.795 8.462 156.437 8.462C157.061 8.462 157.563 8.644 157.945 9.008C158.343 9.372 158.543 9.84 158.543 10.412C158.543 10.984 158.343 11.452 157.945 11.816C157.563 12.18 157.061 12.362 156.437 12.362ZM154.513 27C154.149 27 153.967 26.87 153.967 26.61V26.506C153.967 26.35 154.123 26.1247 154.435 25.83C154.764 25.5353 154.929 25.1973 154.929 24.816V18.004C154.929 17.6053 154.764 17.2327 154.435 16.886C154.123 16.5393 153.967 16.314 153.967 16.21V16.132C153.967 15.9933 154.123 15.8373 154.435 15.664L157.035 14.364C157.329 14.2427 157.555 14.234 157.711 14.338C157.884 14.4247 157.971 14.5807 157.971 14.806V24.816C157.971 25.1973 158.144 25.5353 158.491 25.83C158.855 26.1247 159.037 26.35 159.037 26.506V26.61C159.037 26.87 158.846 27 158.465 27H154.513ZM173.093 24.842C173.093 25.2233 173.258 25.57 173.587 25.882C173.917 26.194 174.081 26.4193 174.081 26.558V26.636C174.081 26.8787 173.934 27 173.639 27H170.935C170.623 27 170.45 26.8353 170.415 26.506L170.337 25.596C169.471 26.7053 168.257 27.26 166.697 27.26C165.033 27.26 163.603 26.662 162.407 25.466C161.229 24.27 160.639 22.6927 160.639 20.734C160.639 18.8447 161.22 17.2933 162.381 16.08C163.56 14.8667 165.016 14.26 166.749 14.26C168.101 14.26 169.237 14.702 170.155 15.586V10.698C170.155 10.3687 170.051 10.1 169.843 9.892C169.653 9.684 169.453 9.51933 169.245 9.398C169.055 9.25933 168.959 9.112 168.959 8.956V8.904C168.959 8.67867 169.115 8.50533 169.427 8.384L172.183 7.5C172.79 7.292 173.093 7.448 173.093 7.968V24.842ZM167.399 26.272C168.11 26.272 168.743 25.9773 169.297 25.388C169.869 24.7987 170.155 23.9753 170.155 22.918V18.758C170.155 17.8913 169.826 17.094 169.167 16.366C168.509 15.6207 167.737 15.248 166.853 15.248C165.883 15.248 165.103 15.6467 164.513 16.444C163.924 17.224 163.621 18.2987 163.603 19.668C163.569 21.488 163.898 23.0393 164.591 24.322C165.302 25.6047 166.238 26.2547 167.399 26.272Z" fill="#06083C"/>
<path d="M67.223 46.3452L65.206 39.0725H66.3601L67.777 44.7046H67.8445L69.3182 39.0725H70.4616L71.9354 44.7081H72.0028L73.4162 39.0725H74.5739L72.5533 46.3452H71.4489L69.9183 40.8978H69.8615L68.331 46.3452H67.223ZM76.3744 46.3452V39.0725H80.9341V40.0171H77.4717V42.233H80.6961V43.174H77.4717V45.4006H80.9767V46.3452H76.3744ZM87.2606 46.3452H86.0958L88.713 39.0725H89.9808L92.598 46.3452H91.4332L89.3771 40.3935H89.3203L87.2606 46.3452ZM87.4559 43.4972H91.2343V44.4205H87.4559V43.4972ZM94.4482 46.3452V39.0725H97.0406C97.604 39.0725 98.0716 39.1696 98.4433 39.3637C98.8173 39.5578 99.0967 39.8265 99.2813 40.1698C99.466 40.5107 99.5583 40.9049 99.5583 41.3523C99.5583 41.7974 99.4648 42.1892 99.2778 42.5277C99.0931 42.8639 98.8138 43.1255 98.4397 43.3125C98.068 43.4996 97.6005 43.5931 97.037 43.5931H95.0732V42.6485H96.9376C97.2927 42.6485 97.5815 42.5976 97.804 42.4958C98.029 42.394 98.1935 42.246 98.2977 42.0519C98.4018 41.8578 98.4539 41.6246 98.4539 41.3523C98.4539 41.0777 98.4006 40.8398 98.2941 40.6385C98.1899 40.4373 98.0254 40.2834 97.8005 40.1769C97.578 40.068 97.2856 40.0135 96.9234 40.0135H95.5455V46.3452H94.4482ZM98.0384 43.064L99.8353 46.3452H98.5853L96.8239 43.064H98.0384ZM101.694 46.3452V39.0725H106.253V40.0171H102.791V42.233H106.015V43.174H102.791V45.4006H106.296V46.3452H101.694ZM115.932 40.983C115.894 40.6468 115.738 40.3864 115.463 40.2017C115.189 40.0147 114.843 39.9212 114.426 39.9212C114.128 39.9212 113.87 39.9686 113.652 40.0633C113.434 40.1556 113.265 40.2834 113.144 40.4468C113.026 40.6078 112.967 40.7912 112.967 40.9972C112.967 41.17 113.007 41.3192 113.088 41.4446C113.17 41.5701 113.278 41.6755 113.411 41.7607C113.546 41.8436 113.69 41.9134 113.844 41.9702C113.998 42.0247 114.146 42.0696 114.288 42.1052L114.998 42.2898C115.23 42.3466 115.468 42.4236 115.712 42.5206C115.956 42.6177 116.182 42.7455 116.39 42.9042C116.598 43.0628 116.767 43.2593 116.894 43.4937C117.025 43.728 117.09 44.0086 117.09 44.3353C117.09 44.7472 116.983 45.113 116.77 45.4326C116.559 45.7522 116.253 46.0043 115.85 46.189C115.45 46.3736 114.966 46.466 114.398 46.466C113.853 46.466 113.382 46.3795 112.985 46.2067C112.587 46.0339 112.276 45.7889 112.051 45.4716C111.826 45.152 111.701 44.7732 111.678 44.3353H112.779C112.8 44.5981 112.885 44.817 113.034 44.9922C113.186 45.1651 113.379 45.2941 113.613 45.3793C113.85 45.4622 114.109 45.5036 114.391 45.5036C114.701 45.5036 114.977 45.4551 115.218 45.358C115.462 45.2586 115.654 45.1213 115.794 44.9461C115.933 44.7685 116.003 44.5614 116.003 44.3246C116.003 44.1092 115.941 43.9328 115.818 43.7955C115.698 43.6582 115.533 43.5446 115.325 43.4546C115.119 43.3646 114.886 43.2853 114.625 43.2167L113.766 42.9823C113.183 42.8237 112.722 42.5905 112.381 42.2827C112.042 41.9749 111.873 41.5678 111.873 41.0611C111.873 40.6421 111.987 40.2763 112.214 39.9638C112.441 39.6513 112.749 39.4087 113.137 39.2358C113.526 39.0607 113.964 38.9731 114.451 38.9731C114.944 38.9731 115.378 39.0595 115.754 39.2323C116.133 39.4051 116.432 39.643 116.649 39.9461C116.867 40.2467 116.981 40.5924 116.99 40.983H115.932ZM120.298 39.0725V46.3452H119.201V39.0725H120.298ZM128.566 39.0725V46.3452H127.558L123.861 41.0114H123.794V46.3452H122.696V39.0725H123.712L127.412 44.4134H127.48V39.0725H128.566ZM137.007 41.4375H135.9C135.857 41.2008 135.778 40.9925 135.662 40.8125C135.546 40.6326 135.404 40.4799 135.235 40.3544C135.067 40.229 134.879 40.1343 134.671 40.0704C134.465 40.0064 134.246 39.9745 134.014 39.9745C133.595 39.9745 133.22 40.0798 132.888 40.2905C132.559 40.5012 132.299 40.8102 132.107 41.2174C131.917 41.6246 131.823 42.1217 131.823 42.7089C131.823 43.3007 131.917 43.8002 132.107 44.2074C132.299 44.6146 132.56 44.9224 132.892 45.1307C133.223 45.3391 133.596 45.4432 134.01 45.4432C134.24 45.4432 134.458 45.4124 134.664 45.3509C134.872 45.287 135.06 45.1935 135.228 45.0704C135.396 44.9473 135.538 44.7969 135.654 44.6194C135.773 44.4394 135.855 44.2335 135.9 44.0015L137.007 44.005C136.948 44.3625 136.833 44.6916 136.663 44.9922C136.495 45.2905 136.278 45.5486 136.013 45.7664C135.75 45.9818 135.45 46.1487 135.111 46.2671C134.773 46.3855 134.403 46.4446 134.003 46.4446C133.373 46.4446 132.812 46.2955 132.32 45.9972C131.828 45.6965 131.439 45.2669 131.155 44.7081C130.873 44.1494 130.733 43.483 130.733 42.7089C130.733 41.9323 130.875 41.2659 131.159 40.7096C131.443 40.1508 131.831 39.7223 132.324 39.424C132.816 39.1234 133.376 38.9731 134.003 38.9731C134.389 38.9731 134.749 39.0287 135.083 39.14C135.419 39.2489 135.721 39.4098 135.988 39.6229C136.256 39.8336 136.477 40.0917 136.652 40.3971C136.828 40.7001 136.946 41.0469 137.007 41.4375ZM139.12 46.3452V39.0725H143.68V40.0171H140.218V42.233H143.442V43.174H140.218V45.4006H143.723V46.3452H139.12ZM152.052 39.0725V46.3452H150.951V40.1733H150.909L149.169 41.3097V40.2586L150.983 39.0725H152.052ZM157.238 38.9731C157.562 38.9754 157.882 39.0346 158.197 39.1506C158.511 39.2666 158.796 39.456 159.049 39.7188C159.305 39.9816 159.508 40.3367 159.66 40.7841C159.814 41.2292 159.892 41.7832 159.894 42.4461C159.894 43.0829 159.83 43.6499 159.702 44.1471C159.574 44.6419 159.391 45.0597 159.152 45.4006C158.915 45.7415 158.627 46.0008 158.289 46.1783C157.95 46.3559 157.569 46.4446 157.145 46.4446C156.712 46.4446 156.328 46.3594 155.991 46.189C155.655 46.0185 155.382 45.783 155.171 45.4823C154.96 45.1793 154.829 44.8312 154.777 44.4383H155.86C155.931 44.7508 156.075 45.0041 156.293 45.1982C156.513 45.39 156.797 45.4858 157.145 45.4858C157.678 45.4858 158.094 45.2538 158.392 44.7898C158.69 44.3234 158.841 43.6724 158.843 42.8367H158.786C158.663 43.0403 158.509 43.2155 158.324 43.3623C158.142 43.509 157.937 43.6227 157.71 43.7032C157.483 43.7837 157.24 43.8239 156.982 43.8239C156.563 43.8239 156.182 43.7209 155.839 43.515C155.495 43.309 155.222 43.0261 155.018 42.6662C154.815 42.3064 154.713 41.8956 154.713 41.434C154.713 40.9747 154.817 40.558 155.025 40.184C155.236 39.8099 155.53 39.514 155.906 39.2962C156.285 39.076 156.729 38.9683 157.238 38.9731ZM157.241 39.8964C156.964 39.8964 156.715 39.965 156.492 40.1023C156.272 40.2373 156.098 40.4207 155.97 40.6527C155.842 40.8824 155.778 41.1381 155.778 41.4198C155.778 41.7015 155.84 41.9572 155.963 42.1868C156.088 42.4141 156.259 42.5952 156.474 42.7302C156.692 42.8627 156.941 42.929 157.22 42.929C157.428 42.929 157.623 42.8888 157.802 42.8083C157.982 42.7278 158.14 42.6165 158.275 42.4745C158.41 42.3301 158.515 42.1667 158.591 41.9844C158.667 41.8021 158.704 41.6104 158.704 41.4091C158.704 41.1416 158.641 40.893 158.513 40.6634C158.387 40.4338 158.214 40.2491 157.994 40.1094C157.774 39.9674 157.523 39.8964 157.241 39.8964ZM164.434 46.4446C163.925 46.4446 163.475 46.3571 163.085 46.1819C162.697 46.0067 162.392 45.7652 162.172 45.4574C161.952 45.1497 161.843 44.7993 161.846 44.4063C161.843 44.0985 161.906 43.8156 162.034 43.5576C162.164 43.2972 162.34 43.0805 162.563 42.9077C162.785 42.7325 163.034 42.6213 163.309 42.5739V42.5313C162.946 42.4437 162.656 42.2496 162.439 41.9489C162.221 41.6482 162.113 41.3026 162.115 40.912C162.113 40.5403 162.211 40.2089 162.41 39.9177C162.611 39.6241 162.887 39.3933 163.238 39.2252C163.588 39.0571 163.987 38.9731 164.434 38.9731C164.877 38.9731 165.272 39.0583 165.62 39.2287C165.971 39.3968 166.247 39.6276 166.448 39.9212C166.649 40.2124 166.751 40.5427 166.753 40.912C166.751 41.3026 166.64 41.6482 166.419 41.9489C166.199 42.2496 165.913 42.4437 165.56 42.5313V42.5739C165.832 42.6213 166.077 42.7325 166.295 42.9077C166.515 43.0805 166.69 43.2972 166.821 43.5576C166.953 43.8156 167.021 44.0985 167.023 44.4063C167.021 44.7993 166.909 45.1497 166.689 45.4574C166.469 45.7652 166.164 46.0067 165.773 46.1819C165.385 46.3571 164.939 46.4446 164.434 46.4446ZM164.434 45.5462C164.735 45.5462 164.995 45.4965 165.216 45.3971C165.436 45.2953 165.606 45.1544 165.727 44.9745C165.848 44.7922 165.909 44.5791 165.912 44.3353C165.909 44.082 165.843 43.8582 165.713 43.6641C165.585 43.47 165.411 43.3173 165.191 43.206C164.971 43.0947 164.718 43.0391 164.434 43.0391C164.148 43.0391 163.893 43.0947 163.671 43.206C163.448 43.3173 163.273 43.47 163.145 43.6641C163.017 43.8582 162.955 44.082 162.957 44.3353C162.955 44.5791 163.013 44.7922 163.131 44.9745C163.252 45.1544 163.423 45.2953 163.646 45.3971C163.868 45.4965 164.131 45.5462 164.434 45.5462ZM164.434 42.162C164.676 42.162 164.89 42.1134 165.077 42.0164C165.264 41.9193 165.411 41.7844 165.517 41.6115C165.626 41.4387 165.682 41.2363 165.684 41.0043C165.682 40.777 165.627 40.5782 165.521 40.4077C165.417 40.2373 165.271 40.1059 165.084 40.0135C164.897 39.9188 164.681 39.8715 164.434 39.8715C164.183 39.8715 163.963 39.9188 163.774 40.0135C163.587 40.1059 163.441 40.2373 163.337 40.4077C163.233 40.5782 163.182 40.777 163.184 41.0043C163.182 41.2363 163.234 41.4387 163.341 41.6115C163.447 41.7844 163.594 41.9193 163.781 42.0164C163.97 42.1134 164.188 42.162 164.434 42.162ZM171.553 46.4446C171.044 46.4446 170.594 46.3571 170.203 46.1819C169.815 46.0067 169.511 45.7652 169.291 45.4574C169.07 45.1497 168.962 44.7993 168.964 44.4063C168.962 44.0985 169.024 43.8156 169.152 43.5576C169.282 43.2972 169.459 43.0805 169.681 42.9077C169.904 42.7325 170.152 42.6213 170.427 42.5739V42.5313C170.065 42.4437 169.775 42.2496 169.557 41.9489C169.339 41.6482 169.231 41.3026 169.234 40.912C169.231 40.5403 169.33 40.2089 169.529 39.9177C169.73 39.6241 170.006 39.3933 170.356 39.2252C170.706 39.0571 171.105 38.9731 171.553 38.9731C171.995 38.9731 172.391 39.0583 172.739 39.2287C173.089 39.3968 173.365 39.6276 173.566 39.9212C173.767 40.2124 173.869 40.5427 173.872 40.912C173.869 41.3026 173.758 41.6482 173.538 41.9489C173.318 42.2496 173.031 42.4437 172.678 42.5313V42.5739C172.951 42.6213 173.196 42.7325 173.413 42.9077C173.634 43.0805 173.809 43.2972 173.939 43.5576C174.072 43.8156 174.139 44.0985 174.141 44.4063C174.139 44.7993 174.028 45.1497 173.808 45.4574C173.587 45.7652 173.282 46.0067 172.891 46.1819C172.503 46.3571 172.057 46.4446 171.553 46.4446ZM171.553 45.5462C171.853 45.5462 172.114 45.4965 172.334 45.3971C172.554 45.2953 172.725 45.1544 172.845 44.9745C172.966 44.7922 173.028 44.5791 173.03 44.3353C173.028 44.082 172.961 43.8582 172.831 43.6641C172.703 43.47 172.529 43.3173 172.309 43.206C172.089 43.0947 171.837 43.0391 171.553 43.0391C171.266 43.0391 171.012 43.0947 170.789 43.206C170.567 43.3173 170.391 43.47 170.264 43.6641C170.136 43.8582 170.073 44.082 170.075 44.3353C170.073 44.5791 170.131 44.7922 170.249 44.9745C170.37 45.1544 170.542 45.2953 170.764 45.3971C170.987 45.4965 171.25 45.5462 171.553 45.5462ZM171.553 42.162C171.794 42.162 172.008 42.1134 172.195 42.0164C172.382 41.9193 172.529 41.7844 172.636 41.6115C172.745 41.4387 172.8 41.2363 172.803 41.0043C172.8 40.777 172.746 40.5782 172.639 40.4077C172.535 40.2373 172.39 40.1059 172.203 40.0135C172.015 39.9188 171.799 39.8715 171.553 39.8715C171.302 39.8715 171.082 39.9188 170.892 40.0135C170.705 40.1059 170.56 40.2373 170.455 40.4077C170.351 40.5782 170.3 40.777 170.303 41.0043C170.3 41.2363 170.352 41.4387 170.459 41.6115C170.565 41.7844 170.712 41.9193 170.899 42.0164C171.089 42.1134 171.306 42.162 171.553 42.162Z" fill="#4C6A6D"/>
</svg>
