<svg width="175" height="50" viewBox="0 0 175 50" fill="none" xmlns="http://www.w3.org/2000/svg">
<path fill-rule="evenodd" clip-rule="evenodd" d="M27.4927 34.4947C26.5531 28.8523 23.4358 23.4888 18.136 18.4092C21.1798 22.2752 22.8241 26.611 23.059 31.4166C20.7639 30.1295 18.3219 29.3465 15.7185 29.0578C18.4883 30.1295 20.8275 31.9108 22.736 34.4066L22.6626 34.3185C25.1241 37.0932 25.4911 40.6118 23.7637 44.8693C15.7136 45.2852 7.70264 46.8023 0 49.3323C13.5995 47.2476 45.0512 46.9393 55 49.0778C47.2827 46.4646 39.2619 45.065 31.207 44.8008C29.5088 40.5775 29.8857 37.0834 32.3325 34.3234L32.2591 34.4115C34.1676 31.9157 36.5068 30.1344 39.2766 29.0627C36.6732 29.3563 34.2312 30.1393 31.9361 31.4215C32.171 26.6159 33.8104 22.2801 36.8591 18.4141C31.5495 23.4888 28.4322 28.8523 27.4927 34.4947ZM36.4677 24.3403C37.4415 24.3403 38.2343 25.1331 38.2343 26.1069C38.2343 27.0808 37.4464 27.8735 36.4677 27.8735C35.4938 27.8735 34.701 27.0857 34.701 26.1069C34.701 25.1282 35.4938 24.3403 36.4677 24.3403ZM27.4927 20.719C28.6916 20.719 29.6606 21.6879 29.6606 22.8869C29.6606 24.0858 28.6916 25.0548 27.4927 25.0548C26.2937 25.0548 25.3248 24.0858 25.3248 22.8869C25.3248 21.6879 26.2986 20.719 27.4927 20.719ZM18.8602 24.7563C19.8341 24.7563 20.6268 25.549 20.6268 26.5229C20.6268 27.4967 19.839 28.2895 18.8602 28.2895C17.8864 28.2895 17.0985 27.5016 17.0985 26.5229C17.0985 25.549 17.8864 24.7563 18.8602 24.7563Z" fill="#0B3948"/>
<path fill-rule="evenodd" clip-rule="evenodd" d="M27.493 3.18089C40.4515 3.18089 51.1295 13.2374 52.5193 26.1665C53.3365 33.8055 50.9533 39.9079 46.7007 46.5584C51.6629 41.6256 54.7361 34.794 54.7361 27.2431C54.7361 12.1999 42.5362 0 27.493 0C12.4499 0 0.249939 12.1999 0.249939 27.2431C0.249939 34.794 3.32317 41.6256 8.28535 46.5584C4.03275 39.9079 1.64953 33.8055 2.46677 26.1665C3.85658 13.2423 14.5346 3.18089 27.493 3.18089Z" fill="#FFD470"/>
<path fill-rule="evenodd" clip-rule="evenodd" d="M28.0112 17.1581C31.3633 14.08 31.1725 10.581 27.4288 6.65625C23.7733 10.5125 23.6509 14.0114 27.0667 17.1434L27.2282 14.6036L27.419 11.6331L27.7371 14.5938L28.0112 17.1581Z" fill="#0B3948"/>
<path fill-rule="evenodd" clip-rule="evenodd" d="M33.4533 17.0016C37.011 16.6346 38.5329 14.3395 38.0191 10.1064C33.9035 10.8209 32.1809 12.9692 32.866 16.5514L34.158 15.0246L35.675 13.2433L34.4858 15.2595L33.4533 17.0016Z" fill="#0B3948"/>
<path fill-rule="evenodd" clip-rule="evenodd" d="M21.1409 18.0385C17.2063 17.3044 15.7187 14.608 16.6827 9.93457C21.2045 11.1042 22.927 13.6587 21.8407 17.5883L20.5389 15.7678L19.0121 13.644L20.1572 16.0027L21.1409 18.0385Z" fill="#0B3948"/>
<path fill-rule="evenodd" clip-rule="evenodd" d="M39.8295 19.9669C42.6728 20.0893 44.1311 18.4548 44.2143 15.0684C40.8915 15.1564 39.2961 16.649 39.4185 19.5461L40.6125 18.4939L42.0072 17.2656L40.8376 18.7141L39.8295 19.9669Z" fill="#0B3948"/>
<path fill-rule="evenodd" clip-rule="evenodd" d="M41.1364 24.8996C43.8622 26.3677 46.0692 25.4673 47.7575 22.1836C44.4641 20.6911 42.1885 21.3958 40.9308 24.2879L42.5996 23.823L44.5522 23.2847L42.717 24.1509L41.1364 24.8996Z" fill="#0B3948"/>
<path fill-rule="evenodd" clip-rule="evenodd" d="M41.0481 29.5432C42.8783 31.9166 45.1881 31.9851 47.9726 29.7487C45.6482 27.1306 43.3579 26.8565 41.1068 28.9217L42.7658 29.1712L44.7037 29.4649L42.7413 29.5089L41.0481 29.5432Z" fill="#0B3948"/>
<path fill-rule="evenodd" clip-rule="evenodd" d="M37.1426 32.9047C37.955 35.8115 40.0788 36.7462 43.524 35.7136C42.3446 32.3957 40.3137 31.2751 37.4363 32.3517L38.8897 33.2081L40.5878 34.2113L38.7429 33.5115L37.1426 32.9047Z" fill="#0B3948"/>
<path fill-rule="evenodd" clip-rule="evenodd" d="M15.2779 20.5198C12.283 20.647 10.7415 18.9293 10.6534 15.3521C14.1573 15.445 15.8407 17.0208 15.7085 20.0696L14.4509 18.9587L12.9779 17.6668L14.2111 19.1936L15.2779 20.5198Z" fill="#0B3948"/>
<path fill-rule="evenodd" clip-rule="evenodd" d="M14.2457 24.8158C11.5199 26.2986 9.3031 25.3982 7.6001 22.1194C10.8984 20.6122 13.1789 21.3071 14.4464 24.2041L12.7727 23.7441L10.8152 23.2107L12.6553 24.072L14.2457 24.8158Z" fill="#0B3948"/>
<path fill-rule="evenodd" clip-rule="evenodd" d="M14.2943 29.3816C12.4591 31.755 10.1493 31.8284 7.35992 29.5871C9.68931 26.969 11.9796 26.6901 14.2306 28.7601L12.5717 29.0097L10.6338 29.3033L12.5962 29.3473L14.2943 29.3816Z" fill="#0B3948"/>
<path fill-rule="evenodd" clip-rule="evenodd" d="M18.1311 32.9926C17.3188 35.8994 15.1949 36.8341 11.7498 35.8015C12.9291 32.4836 14.96 31.363 17.8375 32.4396L16.3841 33.296L14.686 34.2992L16.5309 33.5994L18.1311 32.9926Z" fill="#0B3948"/>
<path d="M73.32 27.6052C70.98 27.6052 69.1427 27.1112 67.808 26.1232C66.4733 25.1179 65.806 24.0692 65.806 22.9772C65.806 22.5959 65.9187 22.2839 66.144 22.0412C66.3693 21.7812 66.6813 21.6599 67.08 21.6772C67.444 21.6945 67.7647 21.8245 68.042 22.0672C68.3193 22.2925 68.536 22.5785 68.692 22.9252C68.8653 23.2719 69.0733 23.6445 69.316 24.0432C69.576 24.4419 69.8533 24.8145 70.148 25.1612C70.46 25.5079 70.8933 25.7939 71.448 26.0192C72.02 26.2445 72.6873 26.3572 73.45 26.3572C74.5073 26.3572 75.3653 26.0712 76.024 25.4992C76.6827 24.9272 77.012 24.1732 77.012 23.2372C77.012 22.4399 76.8127 21.7812 76.414 21.2612C76.0153 20.7412 75.4953 20.3599 74.854 20.1172C74.23 19.8745 73.528 19.6752 72.748 19.5192C71.9853 19.3459 71.214 19.1552 70.434 18.9472C69.6713 18.7219 68.9693 18.4359 68.328 18.0892C67.704 17.7425 67.1927 17.2139 66.794 16.5032C66.3953 15.7925 66.196 14.9085 66.196 13.8512C66.196 12.3432 66.794 11.1039 67.99 10.1332C69.186 9.14521 70.824 8.65121 72.904 8.65121C74.984 8.65121 76.6653 9.11055 77.948 10.0292C79.248 10.9305 79.8893 11.9272 79.872 13.0192C79.872 13.9032 79.4213 14.3452 78.52 14.3452C78.1387 14.3452 77.8093 14.2412 77.532 14.0332C77.272 13.8079 77.0727 13.5305 76.934 13.2012C76.7953 12.8719 76.6133 12.5165 76.388 12.1352C76.18 11.7365 75.946 11.3725 75.686 11.0432C75.4433 10.7139 75.0707 10.4452 74.568 10.2372C74.0827 10.0119 73.502 9.89921 72.826 9.89921C71.734 9.89921 70.8847 10.1939 70.278 10.7832C69.6713 11.3725 69.368 12.1092 69.368 12.9932C69.368 13.7559 69.5673 14.3885 69.966 14.8912C70.3647 15.3765 70.876 15.7405 71.5 15.9832C72.1413 16.2259 72.8433 16.4425 73.606 16.6332C74.386 16.8065 75.1573 17.0145 75.92 17.2572C76.7 17.4825 77.402 17.7772 78.026 18.1412C78.6673 18.5052 79.1873 19.0425 79.586 19.7532C79.9847 20.4639 80.184 21.3392 80.184 22.3792C80.184 23.9739 79.5167 25.2479 78.182 26.2012C76.8473 27.1372 75.2267 27.6052 73.32 27.6052ZM93.9725 24.9012C93.9725 25.3519 94.0419 25.6899 94.1805 25.9152C94.3192 26.1405 94.4665 26.2705 94.6225 26.3052C94.7959 26.3225 94.9519 26.3745 95.0905 26.4612C95.2292 26.5305 95.2985 26.6605 95.2985 26.8512C95.2985 27.2845 94.6485 27.5012 93.3485 27.5012C92.6205 27.5012 92.0832 27.3539 91.7365 27.0592C91.3899 26.7645 91.2252 26.2705 91.2425 25.5772C90.4799 26.9292 89.1799 27.6052 87.3425 27.6052C85.8865 27.6052 84.7165 27.1199 83.8325 26.1492C82.9485 25.1785 82.5065 23.7745 82.5065 21.9372V17.4392C82.5065 17.0405 82.3419 16.6852 82.0125 16.3732C81.6832 16.0439 81.5185 15.8185 81.5185 15.6972V15.6192C81.5185 15.3592 81.6745 15.2032 81.9865 15.1512L84.7165 14.7092C85.3059 14.6225 85.6005 14.7525 85.6005 15.0992L85.5485 22.2232C85.5485 24.9792 86.4152 26.3572 88.1485 26.3572C88.9459 26.3572 89.6045 26.0365 90.1245 25.3952C90.6619 24.7365 90.9305 23.8872 90.9305 22.8472V17.4392C90.9305 17.0405 90.7572 16.6852 90.4105 16.3732C90.0812 16.0439 89.9165 15.8185 89.9165 15.6972V15.6192C89.9165 15.3592 90.0639 15.2032 90.3585 15.1512L93.1405 14.7092C93.6952 14.6225 93.9725 14.7525 93.9725 15.0992V24.9012ZM109.682 25.1612C109.699 25.5425 109.855 25.8892 110.15 26.2012C110.462 26.4959 110.618 26.7212 110.618 26.8772V26.9812C110.618 27.2412 110.427 27.3712 110.046 27.3712H106.25C105.868 27.3712 105.678 27.2412 105.678 26.9812V26.8772C105.678 26.7212 105.834 26.4959 106.146 26.2012C106.475 25.8892 106.631 25.5425 106.614 25.1612L106.354 20.1432C106.232 17.2832 105.322 15.8532 103.624 15.8532C102.809 15.8532 102.15 16.1565 101.648 16.7632C101.145 17.3525 100.894 18.1239 100.894 19.0772V25.1872C100.894 25.5685 101.067 25.9065 101.414 26.2012C101.778 26.4959 101.96 26.7212 101.96 26.8772V26.9812C101.96 27.2412 101.769 27.3712 101.388 27.3712H97.3576C96.9936 27.3712 96.8116 27.2412 96.8116 26.9812V26.8772C96.8116 26.7212 96.9849 26.4959 97.3316 26.2012C97.6783 25.9065 97.8516 25.5685 97.8516 25.1872V18.2192C97.8516 17.8899 97.7476 17.6212 97.5396 17.4132C97.3489 17.2052 97.1583 17.0405 96.9676 16.9192C96.7769 16.7805 96.6816 16.6332 96.6816 16.4772V16.3992C96.6816 16.2259 96.8376 16.0699 97.1496 15.9312L99.6716 14.7092C99.9489 14.5879 100.148 14.5792 100.27 14.6832C100.408 14.7699 100.478 14.9345 100.478 15.1772V16.8672C100.842 16.1565 101.37 15.6019 102.064 15.2032C102.757 14.8045 103.546 14.6052 104.43 14.6052C105.764 14.6052 106.891 15.0645 107.81 15.9832C108.728 16.9019 109.248 18.3232 109.37 20.2472L109.682 25.1612ZM124.967 25.1612C124.984 25.5425 125.14 25.8892 125.435 26.2012C125.747 26.4959 125.903 26.7212 125.903 26.8772V26.9812C125.903 27.2412 125.712 27.3712 125.331 27.3712H121.535C121.153 27.3712 120.963 27.2412 120.963 26.9812V26.8772C120.963 26.7212 121.119 26.4959 121.431 26.2012C121.76 25.8892 121.916 25.5425 121.899 25.1612L121.639 20.1432C121.517 17.2832 120.607 15.8532 118.909 15.8532C118.094 15.8532 117.435 16.1565 116.933 16.7632C116.43 17.3525 116.179 18.1239 116.179 19.0772V25.1872C116.179 25.5685 116.352 25.9065 116.699 26.2012C117.063 26.4959 117.245 26.7212 117.245 26.8772V26.9812C117.245 27.2412 117.054 27.3712 116.673 27.3712H112.643C112.279 27.3712 112.097 27.2412 112.097 26.9812V26.8772C112.097 26.7212 112.27 26.4959 112.617 26.2012C112.963 25.9065 113.137 25.5685 113.137 25.1872V18.2192C113.137 17.8899 113.033 17.6212 112.825 17.4132C112.634 17.2052 112.443 17.0405 112.253 16.9192C112.062 16.7805 111.967 16.6332 111.967 16.4772V16.3992C111.967 16.2259 112.123 16.0699 112.435 15.9312L114.957 14.7092C115.234 14.5879 115.433 14.5792 115.555 14.6832C115.693 14.7699 115.763 14.9345 115.763 15.1772V16.8672C116.127 16.1565 116.655 15.6019 117.349 15.2032C118.042 14.8045 118.831 14.6052 119.715 14.6052C121.049 14.6052 122.176 15.0645 123.095 15.9832C124.013 16.9019 124.533 18.3232 124.655 20.2472L124.967 25.1612ZM139.279 14.8652C139.574 14.8652 139.721 14.9865 139.721 15.2292V15.3332C139.721 15.5239 139.556 15.7839 139.227 16.1132C138.898 16.4252 138.646 16.7719 138.473 17.1532L133.559 27.9172C133.247 28.6279 132.978 29.1912 132.753 29.6072C132.545 30.0232 132.233 30.5259 131.817 31.1152C131.418 31.7045 130.959 32.1465 130.439 32.4412C129.919 32.7359 129.356 32.8832 128.749 32.8832C127.726 32.8832 126.886 32.6145 126.227 32.0772C125.568 31.5572 125.239 30.9765 125.239 30.3352C125.239 29.9539 125.352 29.6419 125.577 29.3992C125.802 29.1565 126.114 29.0352 126.513 29.0352C126.894 29.0352 127.206 29.1739 127.449 29.4512C127.692 29.7459 127.856 30.0665 127.943 30.4132C128.047 30.7772 128.203 31.0979 128.411 31.3752C128.619 31.6699 128.888 31.8172 129.217 31.8172C130.118 31.8172 131.089 30.5259 132.129 27.9432L127.059 17.1532C126.868 16.7719 126.6 16.4252 126.253 16.1132C125.906 15.7839 125.733 15.5239 125.733 15.3332V15.2292C125.733 14.9865 125.889 14.8652 126.201 14.8652H130.309C130.604 14.8652 130.751 14.9952 130.751 15.2552V15.3332C130.751 15.4719 130.673 15.6279 130.517 15.8012C130.361 15.9745 130.248 16.1392 130.179 16.2952C130.127 16.4512 130.179 16.7459 130.335 17.1792L133.767 25.0572L136.991 17.4652C137.147 16.9452 137.147 16.5899 136.991 16.3992C136.835 16.1912 136.618 16.0005 136.341 15.8272C136.064 15.6365 135.925 15.4719 135.925 15.3332V15.2552C135.925 14.9952 136.081 14.8652 136.393 14.8652H139.279ZM151.51 25.0052C151.545 25.3865 151.64 25.6899 151.796 25.9152C151.969 26.1232 152.134 26.2532 152.29 26.3052C152.463 26.3572 152.611 26.4265 152.732 26.5132C152.871 26.5999 152.94 26.7125 152.94 26.8512C152.94 27.2845 152.238 27.5012 150.834 27.5012C150.141 27.5012 149.629 27.3972 149.3 27.1892C148.988 26.9639 148.806 26.5479 148.754 25.9412C148.061 27.0505 146.856 27.6052 145.14 27.6052C143.684 27.6052 142.505 27.2672 141.604 26.5912C140.72 25.8979 140.278 24.9272 140.278 23.6792C140.261 22.4485 140.703 21.4952 141.604 20.8192C142.505 20.1259 143.641 19.7792 145.01 19.7792C146.258 19.7792 147.263 20.0739 148.026 20.6632L147.974 20.1432C147.818 18.5485 147.541 17.3872 147.142 16.6592C146.743 15.9312 146.111 15.5672 145.244 15.5672C144.707 15.5672 144.256 15.7319 143.892 16.0612C143.545 16.3905 143.303 16.7545 143.164 17.1532C143.043 17.5345 142.861 17.8899 142.618 18.2192C142.375 18.5485 142.072 18.7132 141.708 18.7132C141.327 18.7132 141.015 18.6092 140.772 18.4012C140.547 18.1759 140.434 17.8812 140.434 17.5172C140.434 16.6852 140.885 15.9919 141.786 15.4372C142.705 14.8825 143.857 14.6052 145.244 14.6052C146.873 14.6052 148.191 15.0905 149.196 16.0612C150.201 17.0145 150.799 18.3319 150.99 20.0132L151.51 25.0052ZM145.998 26.6172C146.709 26.6172 147.281 26.3572 147.714 25.8372C148.165 25.3172 148.373 24.7019 148.338 23.9912L148.26 23.1852C148.208 22.4399 147.957 21.8505 147.506 21.4172C147.055 20.9839 146.483 20.7672 145.79 20.7672C145.062 20.7672 144.473 21.0012 144.022 21.4692C143.571 21.9199 143.346 22.5352 143.346 23.3152C143.346 24.2339 143.589 25.0139 144.074 25.6552C144.577 26.2965 145.218 26.6172 145.998 26.6172ZM156.437 12.7072C155.795 12.7072 155.275 12.5252 154.877 12.1612C154.478 11.7972 154.279 11.3292 154.279 10.7572C154.279 10.1852 154.478 9.71721 154.877 9.35321C155.275 8.98921 155.795 8.80721 156.437 8.80721C157.061 8.80721 157.563 8.98921 157.945 9.35321C158.343 9.71721 158.543 10.1852 158.543 10.7572C158.543 11.3292 158.343 11.7972 157.945 12.1612C157.563 12.5252 157.061 12.7072 156.437 12.7072ZM154.513 27.3452C154.149 27.3452 153.967 27.2152 153.967 26.9552V26.8512C153.967 26.6952 154.123 26.4699 154.435 26.1752C154.764 25.8805 154.929 25.5425 154.929 25.1612V18.3492C154.929 17.9505 154.764 17.5779 154.435 17.2312C154.123 16.8845 153.967 16.6592 153.967 16.5552V16.4772C153.967 16.3385 154.123 16.1825 154.435 16.0092L157.035 14.7092C157.329 14.5879 157.555 14.5792 157.711 14.6832C157.884 14.7699 157.971 14.9259 157.971 15.1512V25.1612C157.971 25.5425 158.144 25.8805 158.491 26.1752C158.855 26.4699 159.037 26.6952 159.037 26.8512V26.9552C159.037 27.2152 158.846 27.3452 158.465 27.3452H154.513ZM173.093 25.1872C173.093 25.5685 173.258 25.9152 173.587 26.2272C173.917 26.5392 174.081 26.7645 174.081 26.9032V26.9812C174.081 27.2239 173.934 27.3452 173.639 27.3452H170.935C170.623 27.3452 170.45 27.1805 170.415 26.8512L170.337 25.9412C169.471 27.0505 168.257 27.6052 166.697 27.6052C165.033 27.6052 163.603 27.0072 162.407 25.8112C161.229 24.6152 160.639 23.0379 160.639 21.0792C160.639 19.1899 161.22 17.6385 162.381 16.4252C163.56 15.2119 165.016 14.6052 166.749 14.6052C168.101 14.6052 169.237 15.0472 170.155 15.9312V11.0432C170.155 10.7139 170.051 10.4452 169.843 10.2372C169.653 10.0292 169.453 9.86455 169.245 9.74321C169.055 9.60455 168.959 9.45721 168.959 9.30121V9.24921C168.959 9.02388 169.115 8.85055 169.427 8.72921L172.183 7.84521C172.79 7.63721 173.093 7.79321 173.093 8.31321V25.1872ZM167.399 26.6172C168.11 26.6172 168.743 26.3225 169.297 25.7332C169.869 25.1439 170.155 24.3205 170.155 23.2632V19.1032C170.155 18.2365 169.826 17.4392 169.167 16.7112C168.509 15.9659 167.737 15.5932 166.853 15.5932C165.883 15.5932 165.103 15.9919 164.513 16.7892C163.924 17.5692 163.621 18.6439 163.603 20.0132C163.569 21.8332 163.898 23.3845 164.591 24.6672C165.302 25.9499 166.238 26.5999 167.399 26.6172Z" fill="#0B3948"/>
<path d="M67.223 46.3452L65.206 39.0725H66.3601L67.777 44.7046H67.8445L69.3182 39.0725H70.4616L71.9354 44.7081H72.0028L73.4162 39.0725H74.5739L72.5533 46.3452H71.4489L69.9183 40.8978H69.8615L68.331 46.3452H67.223ZM76.3744 46.3452V39.0725H80.9341V40.0171H77.4717V42.233H80.6961V43.174H77.4717V45.4006H80.9767V46.3452H76.3744ZM87.2606 46.3452H86.0958L88.713 39.0725H89.9808L92.598 46.3452H91.4332L89.3771 40.3935H89.3203L87.2606 46.3452ZM87.4559 43.4972H91.2343V44.4205H87.4559V43.4972ZM94.4482 46.3452V39.0725H97.0406C97.604 39.0725 98.0716 39.1696 98.4433 39.3637C98.8173 39.5578 99.0967 39.8265 99.2813 40.1698C99.466 40.5107 99.5583 40.9049 99.5583 41.3523C99.5583 41.7974 99.4648 42.1892 99.2778 42.5277C99.0931 42.8639 98.8138 43.1255 98.4397 43.3125C98.068 43.4996 97.6005 43.5931 97.037 43.5931H95.0732V42.6485H96.9376C97.2927 42.6485 97.5815 42.5976 97.804 42.4958C98.029 42.394 98.1935 42.246 98.2977 42.0519C98.4018 41.8578 98.4539 41.6246 98.4539 41.3523C98.4539 41.0777 98.4006 40.8398 98.2941 40.6385C98.1899 40.4373 98.0254 40.2834 97.8005 40.1769C97.578 40.068 97.2856 40.0135 96.9234 40.0135H95.5455V46.3452H94.4482ZM98.0384 43.064L99.8353 46.3452H98.5853L96.8239 43.064H98.0384ZM101.694 46.3452V39.0725H106.253V40.0171H102.791V42.233H106.015V43.174H102.791V45.4006H106.296V46.3452H101.694ZM115.932 40.983C115.894 40.6468 115.738 40.3864 115.463 40.2017C115.189 40.0147 114.843 39.9212 114.426 39.9212C114.128 39.9212 113.87 39.9686 113.652 40.0633C113.434 40.1556 113.265 40.2834 113.144 40.4468C113.026 40.6078 112.967 40.7912 112.967 40.9972C112.967 41.17 113.007 41.3192 113.088 41.4446C113.17 41.5701 113.278 41.6755 113.411 41.7607C113.546 41.8436 113.69 41.9134 113.844 41.9702C113.998 42.0247 114.146 42.0696 114.288 42.1052L114.998 42.2898C115.23 42.3466 115.468 42.4236 115.712 42.5206C115.956 42.6177 116.182 42.7455 116.39 42.9042C116.598 43.0628 116.767 43.2593 116.894 43.4937C117.025 43.728 117.09 44.0086 117.09 44.3353C117.09 44.7472 116.983 45.113 116.77 45.4326C116.559 45.7522 116.253 46.0043 115.85 46.189C115.45 46.3736 114.966 46.466 114.398 46.466C113.853 46.466 113.382 46.3795 112.985 46.2067C112.587 46.0339 112.276 45.7889 112.051 45.4716C111.826 45.152 111.701 44.7732 111.678 44.3353H112.779C112.8 44.5981 112.885 44.817 113.034 44.9922C113.186 45.1651 113.379 45.2941 113.613 45.3793C113.85 45.4622 114.109 45.5036 114.391 45.5036C114.701 45.5036 114.977 45.4551 115.218 45.358C115.462 45.2586 115.654 45.1213 115.794 44.9461C115.933 44.7685 116.003 44.5614 116.003 44.3246C116.003 44.1092 115.941 43.9328 115.818 43.7955C115.698 43.6582 115.533 43.5446 115.325 43.4546C115.119 43.3646 114.886 43.2853 114.625 43.2167L113.766 42.9823C113.183 42.8237 112.722 42.5905 112.381 42.2827C112.042 41.9749 111.873 41.5678 111.873 41.0611C111.873 40.6421 111.987 40.2763 112.214 39.9638C112.441 39.6513 112.749 39.4087 113.137 39.2358C113.526 39.0607 113.964 38.9731 114.451 38.9731C114.944 38.9731 115.378 39.0595 115.754 39.2323C116.133 39.4051 116.432 39.643 116.649 39.9461C116.867 40.2467 116.981 40.5924 116.99 40.983H115.932ZM120.298 39.0725V46.3452H119.201V39.0725H120.298ZM128.566 39.0725V46.3452H127.558L123.861 41.0114H123.794V46.3452H122.696V39.0725H123.712L127.412 44.4134H127.48V39.0725H128.566ZM137.007 41.4375H135.9C135.857 41.2008 135.778 40.9925 135.662 40.8125C135.546 40.6326 135.404 40.4799 135.235 40.3544C135.067 40.229 134.879 40.1343 134.671 40.0704C134.465 40.0064 134.246 39.9745 134.014 39.9745C133.595 39.9745 133.22 40.0798 132.888 40.2905C132.559 40.5012 132.299 40.8102 132.107 41.2174C131.917 41.6246 131.823 42.1217 131.823 42.7089C131.823 43.3007 131.917 43.8002 132.107 44.2074C132.299 44.6146 132.56 44.9224 132.892 45.1307C133.223 45.3391 133.596 45.4432 134.01 45.4432C134.24 45.4432 134.458 45.4124 134.664 45.3509C134.872 45.287 135.06 45.1935 135.228 45.0704C135.396 44.9473 135.538 44.7969 135.654 44.6194C135.773 44.4394 135.855 44.2335 135.9 44.0015L137.007 44.005C136.948 44.3625 136.833 44.6916 136.663 44.9922C136.495 45.2905 136.278 45.5486 136.013 45.7664C135.75 45.9818 135.45 46.1487 135.111 46.2671C134.773 46.3855 134.403 46.4446 134.003 46.4446C133.373 46.4446 132.812 46.2955 132.32 45.9972C131.828 45.6965 131.439 45.2669 131.155 44.7081C130.873 44.1494 130.733 43.483 130.733 42.7089C130.733 41.9323 130.875 41.2659 131.159 40.7096C131.443 40.1508 131.831 39.7223 132.324 39.424C132.816 39.1234 133.376 38.9731 134.003 38.9731C134.389 38.9731 134.749 39.0287 135.083 39.14C135.419 39.2489 135.721 39.4098 135.988 39.6229C136.256 39.8336 136.477 40.0917 136.652 40.3971C136.828 40.7001 136.946 41.0469 137.007 41.4375ZM139.12 46.3452V39.0725H143.68V40.0171H140.218V42.233H143.442V43.174H140.218V45.4006H143.723V46.3452H139.12ZM152.052 39.0725V46.3452H150.951V40.1733H150.909L149.169 41.3097V40.2586L150.983 39.0725H152.052ZM157.238 38.9731C157.562 38.9754 157.882 39.0346 158.197 39.1506C158.511 39.2666 158.796 39.456 159.049 39.7188C159.305 39.9816 159.508 40.3367 159.66 40.7841C159.814 41.2292 159.892 41.7832 159.894 42.4461C159.894 43.0829 159.83 43.6499 159.702 44.1471C159.574 44.6419 159.391 45.0597 159.152 45.4006C158.915 45.7415 158.627 46.0008 158.289 46.1783C157.95 46.3559 157.569 46.4446 157.145 46.4446C156.712 46.4446 156.328 46.3594 155.991 46.189C155.655 46.0185 155.382 45.783 155.171 45.4823C154.96 45.1793 154.829 44.8312 154.777 44.4383H155.86C155.931 44.7508 156.075 45.0041 156.293 45.1982C156.513 45.39 156.797 45.4858 157.145 45.4858C157.678 45.4858 158.094 45.2538 158.392 44.7898C158.69 44.3234 158.841 43.6724 158.843 42.8367H158.786C158.663 43.0403 158.509 43.2155 158.324 43.3623C158.142 43.509 157.937 43.6227 157.71 43.7032C157.483 43.7837 157.24 43.8239 156.982 43.8239C156.563 43.8239 156.182 43.7209 155.839 43.515C155.495 43.309 155.222 43.0261 155.018 42.6662C154.815 42.3064 154.713 41.8956 154.713 41.434C154.713 40.9747 154.817 40.558 155.025 40.184C155.236 39.8099 155.53 39.514 155.906 39.2962C156.285 39.076 156.729 38.9683 157.238 38.9731ZM157.241 39.8964C156.964 39.8964 156.715 39.965 156.492 40.1023C156.272 40.2373 156.098 40.4207 155.97 40.6527C155.842 40.8824 155.778 41.1381 155.778 41.4198C155.778 41.7015 155.84 41.9572 155.963 42.1868C156.088 42.4141 156.259 42.5952 156.474 42.7302C156.692 42.8627 156.941 42.929 157.22 42.929C157.428 42.929 157.623 42.8888 157.802 42.8083C157.982 42.7278 158.14 42.6165 158.275 42.4745C158.41 42.3301 158.515 42.1667 158.591 41.9844C158.667 41.8021 158.704 41.6104 158.704 41.4091C158.704 41.1416 158.641 40.893 158.513 40.6634C158.387 40.4338 158.214 40.2491 157.994 40.1094C157.774 39.9674 157.523 39.8964 157.241 39.8964ZM164.434 46.4446C163.925 46.4446 163.475 46.3571 163.085 46.1819C162.697 46.0067 162.392 45.7652 162.172 45.4574C161.952 45.1497 161.843 44.7993 161.846 44.4063C161.843 44.0985 161.906 43.8156 162.034 43.5576C162.164 43.2972 162.34 43.0805 162.563 42.9077C162.785 42.7325 163.034 42.6213 163.309 42.5739V42.5313C162.946 42.4437 162.656 42.2496 162.439 41.9489C162.221 41.6482 162.113 41.3026 162.115 40.912C162.113 40.5403 162.211 40.2089 162.41 39.9177C162.611 39.6241 162.887 39.3933 163.238 39.2252C163.588 39.0571 163.987 38.9731 164.434 38.9731C164.877 38.9731 165.272 39.0583 165.62 39.2287C165.971 39.3968 166.247 39.6276 166.448 39.9212C166.649 40.2124 166.751 40.5427 166.753 40.912C166.751 41.3026 166.64 41.6482 166.419 41.9489C166.199 42.2496 165.913 42.4437 165.56 42.5313V42.5739C165.832 42.6213 166.077 42.7325 166.295 42.9077C166.515 43.0805 166.69 43.2972 166.821 43.5576C166.953 43.8156 167.021 44.0985 167.023 44.4063C167.021 44.7993 166.909 45.1497 166.689 45.4574C166.469 45.7652 166.164 46.0067 165.773 46.1819C165.385 46.3571 164.939 46.4446 164.434 46.4446ZM164.434 45.5462C164.735 45.5462 164.995 45.4965 165.216 45.3971C165.436 45.2953 165.606 45.1544 165.727 44.9745C165.848 44.7922 165.909 44.5791 165.912 44.3353C165.909 44.082 165.843 43.8582 165.713 43.6641C165.585 43.47 165.411 43.3173 165.191 43.206C164.971 43.0947 164.718 43.0391 164.434 43.0391C164.148 43.0391 163.893 43.0947 163.671 43.206C163.448 43.3173 163.273 43.47 163.145 43.6641C163.017 43.8582 162.955 44.082 162.957 44.3353C162.955 44.5791 163.013 44.7922 163.131 44.9745C163.252 45.1544 163.423 45.2953 163.646 45.3971C163.868 45.4965 164.131 45.5462 164.434 45.5462ZM164.434 42.162C164.676 42.162 164.89 42.1134 165.077 42.0164C165.264 41.9193 165.411 41.7844 165.517 41.6115C165.626 41.4387 165.682 41.2363 165.684 41.0043C165.682 40.777 165.627 40.5782 165.521 40.4077C165.417 40.2373 165.271 40.1059 165.084 40.0135C164.897 39.9188 164.681 39.8715 164.434 39.8715C164.183 39.8715 163.963 39.9188 163.774 40.0135C163.587 40.1059 163.441 40.2373 163.337 40.4077C163.233 40.5782 163.182 40.777 163.184 41.0043C163.182 41.2363 163.234 41.4387 163.341 41.6115C163.447 41.7844 163.594 41.9193 163.781 42.0164C163.97 42.1134 164.188 42.162 164.434 42.162ZM171.553 46.4446C171.044 46.4446 170.594 46.3571 170.203 46.1819C169.815 46.0067 169.511 45.7652 169.291 45.4574C169.07 45.1497 168.962 44.7993 168.964 44.4063C168.962 44.0985 169.024 43.8156 169.152 43.5576C169.282 43.2972 169.459 43.0805 169.681 42.9077C169.904 42.7325 170.152 42.6213 170.427 42.5739V42.5313C170.065 42.4437 169.775 42.2496 169.557 41.9489C169.339 41.6482 169.231 41.3026 169.234 40.912C169.231 40.5403 169.33 40.2089 169.529 39.9177C169.73 39.6241 170.006 39.3933 170.356 39.2252C170.706 39.0571 171.105 38.9731 171.553 38.9731C171.995 38.9731 172.391 39.0583 172.739 39.2287C173.089 39.3968 173.365 39.6276 173.566 39.9212C173.767 40.2124 173.869 40.5427 173.872 40.912C173.869 41.3026 173.758 41.6482 173.538 41.9489C173.318 42.2496 173.031 42.4437 172.678 42.5313V42.5739C172.951 42.6213 173.196 42.7325 173.413 42.9077C173.634 43.0805 173.809 43.2972 173.939 43.5576C174.072 43.8156 174.139 44.0985 174.141 44.4063C174.139 44.7993 174.028 45.1497 173.808 45.4574C173.587 45.7652 173.282 46.0067 172.891 46.1819C172.503 46.3571 172.057 46.4446 171.553 46.4446ZM171.553 45.5462C171.853 45.5462 172.114 45.4965 172.334 45.3971C172.554 45.2953 172.725 45.1544 172.845 44.9745C172.966 44.7922 173.028 44.5791 173.03 44.3353C173.028 44.082 172.961 43.8582 172.831 43.6641C172.703 43.47 172.529 43.3173 172.309 43.206C172.089 43.0947 171.837 43.0391 171.553 43.0391C171.266 43.0391 171.012 43.0947 170.789 43.206C170.567 43.3173 170.391 43.47 170.264 43.6641C170.136 43.8582 170.073 44.082 170.075 44.3353C170.073 44.5791 170.131 44.7922 170.249 44.9745C170.37 45.1544 170.542 45.2953 170.764 45.3971C170.987 45.4965 171.25 45.5462 171.553 45.5462ZM171.553 42.162C171.794 42.162 172.008 42.1134 172.195 42.0164C172.382 41.9193 172.529 41.7844 172.636 41.6115C172.745 41.4387 172.8 41.2363 172.803 41.0043C172.8 40.777 172.746 40.5782 172.639 40.4077C172.535 40.2373 172.39 40.1059 172.203 40.0135C172.015 39.9188 171.799 39.8715 171.553 39.8715C171.302 39.8715 171.082 39.9188 170.892 40.0135C170.705 40.1059 170.56 40.2373 170.455 40.4077C170.351 40.5782 170.3 40.777 170.303 41.0043C170.3 41.2363 170.352 41.4387 170.459 41.6115C170.565 41.7844 170.712 41.9193 170.899 42.0164C171.089 42.1134 171.306 42.162 171.553 42.162Z" fill="#71848A"/>
</svg>
